<svg width="10.500000" height="61.000000" viewBox="0 0 10.5 61" fill="none" xmlns="http://www.w3.org/2000/svg" xmlns:xlink="http://www.w3.org/1999/xlink">
	<desc>
			Created with Pixso.
	</desc>
	<defs/>
	<g opacity="0.300000">
		<path id="Rectangle 34624386" d="M10.5 61L8.5 61Q6.77 61 5.19 60.33Q3.66 59.68 2.48 58.51Q1.31 57.33 0.66 55.8Q0 54.22 0 52.5L0 8.5Q0 6.77 0.66 5.19Q1.31 3.66 2.48 2.48Q3.66 1.31 5.19 0.66Q6.77 0 8.5 0L10.5 0L10.5 1L8.5 1Q6.97 1 5.58 1.58Q4.23 2.15 3.19 3.19Q2.15 4.23 1.58 5.58Q1 6.97 1 8.5L1 52.5Q1 54.02 1.58 55.41Q2.15 56.76 3.19 57.8Q4.23 58.84 5.58 59.41Q6.97 60 8.5 60L10.5 60L10.5 61Z" fill="#6B7583" fill-opacity="1.000000" fill-rule="evenodd"/>
	</g>
</svg>
