<svg width="135.760315" height="40.000000" viewBox="0 0 135.76 40" fill="none" xmlns="http://www.w3.org/2000/svg" xmlns:xlink="http://www.w3.org/1999/xlink">
	<desc>
			Created with Pixso.
	</desc>
	<defs/>
	<path d="M5.14 0L34.85 0C37.69 0 40 1.73 40 3.88L40 36.11C40 38.26 37.69 40 34.85 40L5.14 40C2.3 40 0 38.26 0 36.11L0 3.88C0 1.73 2.3 0 5.14 0Z" fill="#234778" fill-opacity="1.000000" fill-rule="evenodd"/>
	<path d="M21.92 34.64L11.62 34.64L11.62 24.74L20.08 33.2C20.64 33.77 21.26 34.24 21.92 34.64L21.92 34.64Z" fill="#FBF7F2" fill-opacity="1.000000" fill-rule="evenodd"/>
	<path d="M25.78 34.64C23.81 34.64 21.83 33.88 20.33 32.38L11.62 23.67L11.62 23.67L11.62 23.67C13.12 22.17 15.1 21.41 17.07 21.41C19.05 21.41 21.02 22.17 22.52 23.67L31.23 32.38C31.23 32.38 31.23 32.38 31.22 32.39C31.22 32.39 31.22 32.39 31.22 32.39C31.22 32.39 31.22 32.39 31.22 32.39L31.22 32.39C31.22 32.39 31.22 32.39 31.22 32.4L31.21 32.4L31.21 32.4L31.21 32.4L31.21 32.4C31.21 32.4 31.21 32.4 31.21 32.4C31.21 32.4 31.21 32.41 31.21 32.41C31.21 32.41 31.2 32.41 31.2 32.41L31.2 32.41C30.99 32.62 30.77 32.81 30.55 32.99C30.77 32.81 30.99 32.62 31.2 32.41C29.7 33.89 27.74 34.64 25.78 34.64L25.78 34.64ZM17.37 23.35C18.45 23.72 19.47 24.33 20.34 25.2L25.31 30.17L20.34 25.2C19.47 24.33 18.45 23.72 17.37 23.35ZM29.04 33.91L29.04 33.91L29.06 33.9L29.04 33.91Z" fill="#F9F5F1" fill-opacity="1.000000" fill-rule="evenodd"/>
	<path d="M11.62 13.06L11.62 20.77L18.77 20.77C23.03 20.77 26.48 17.32 26.48 13.06C26.48 8.81 23.03 5.35 18.77 5.35L11.62 5.35L11.62 13.06Z" fill="#FBF7F2" fill-opacity="1.000000" fill-rule="evenodd"/>
	<path d="M20.34 25.2L25.31 30.17L29.04 33.91C29.57 33.66 30.08 33.35 30.55 32.99C30.55 32.98 30.56 32.98 30.56 32.97C30.78 32.8 31 32.61 31.2 32.41L31.2 32.41L31.2 32.41L31.21 32.41C31.21 32.41 31.21 32.4 31.21 32.4C31.21 32.4 31.21 32.4 31.21 32.4C31.21 32.4 31.21 32.4 31.21 32.4C31.21 32.4 31.21 32.4 31.21 32.4C31.21 32.4 31.21 32.4 31.21 32.4C31.21 32.4 31.21 32.4 31.21 32.4C31.21 32.4 31.22 32.4 31.22 32.4C31.22 32.4 31.22 32.39 31.22 32.39C31.22 32.39 31.22 32.39 31.22 32.39C31.22 32.39 31.22 32.39 31.22 32.39C31.22 32.39 31.22 32.39 31.22 32.39C31.22 32.39 31.22 32.39 31.22 32.39C31.22 32.39 31.22 32.39 31.22 32.39C31.23 32.39 31.23 32.39 31.23 32.38C31.23 32.38 31.23 32.38 31.23 32.38C31.23 32.38 31.23 32.38 31.23 32.38C31.23 32.38 31.23 32.38 31.23 32.38L22.52 23.67C21.02 22.16 19.04 21.41 17.07 21.41C16.81 21.41 16.54 21.42 16.28 21.45C14.58 21.63 12.92 22.37 11.62 23.67L11.62 23.67L11.62 23.67C12.66 23.19 13.78 22.95 14.9 22.95C15.73 22.95 16.57 23.08 17.37 23.35C18.45 23.72 19.47 24.33 20.34 25.2L20.34 25.2Z" fill="#FBF7F2" fill-opacity="1.000000" fill-rule="evenodd"/>
	<path d="M82.44 29.1Q83.61 30.07 85.6 30.07Q87.58 30.07 88.76 29.1Q88.94 28.95 89.1 28.78Q89.13 28.74 89.17 28.7Q90.31 27.4 90.31 25.1L90.31 14.73Q90.31 12.43 89.17 11.14Q89.13 11.1 89.1 11.06Q88.93 10.88 88.74 10.73Q87.57 9.76 85.6 9.76Q83.63 9.76 82.45 10.73Q82.27 10.88 82.1 11.06Q82.06 11.1 82.03 11.14Q80.89 12.43 80.89 14.73L80.89 25.1Q80.89 27.4 82.03 28.7Q82.06 28.74 82.1 28.78Q82.26 28.95 82.44 29.1ZM93.7 29.12Q94.84 30.07 96.77 30.07Q98.69 30.07 99.83 29.13Q100.01 28.98 100.17 28.8Q100.19 28.78 100.21 28.76Q101.34 27.49 101.34 25.21L101.34 22.43L98.4 22.43L98.4 25.44Q98.4 26.48 97.89 26.92Q97.51 27.25 96.85 27.25Q96.2 27.25 95.82 26.92Q95.3 26.48 95.3 25.44L95.3 14.42Q95.3 13.34 95.83 12.89Q96.21 12.58 96.85 12.58Q97.5 12.58 97.87 12.89Q98.4 13.34 98.4 14.42L98.4 16.7L101.34 16.7L101.34 14.61Q101.34 12.34 100.21 11.07Q100.19 11.05 100.17 11.03Q100.01 10.85 99.83 10.7Q98.69 9.76 96.77 9.76Q94.84 9.76 93.7 10.71Q93.53 10.86 93.37 11.03Q93.35 11.05 93.33 11.07Q92.2 12.34 92.2 14.61L92.2 25.21Q92.2 27.49 93.33 28.76Q93.35 28.78 93.37 28.8Q93.53 28.97 93.7 29.12ZM54.51 10.04L49.91 10.04L49.91 29.79L53.01 29.79L53.01 21.32L54.09 21.32Q55.14 21.32 55.58 21.84Q55.59 21.85 55.59 21.86Q56.04 22.4 56.04 23.75L56.04 27.36Q56.04 28.46 56.09 28.89Q56.15 29.31 56.32 29.79L59.47 29.79Q59.25 29.28 59.19 28.76Q59.13 28.24 59.13 27.39L59.13 23.92Q59.13 22.17 58.67 21.13Q58.46 20.65 58.1 20.32Q57.69 19.93 57.08 19.75L57.08 19.69Q57.58 19.49 57.95 19.15Q59.11 18.11 59.11 15.79L59.11 14.58Q59.11 12.27 58.01 11.16Q56.91 10.04 54.51 10.04ZM69.75 10.04L61.28 10.04L61.28 29.79L69.75 29.79L69.75 26.96L64.38 26.96L64.38 20.9L68.64 20.9L68.64 18.08L64.38 18.08L64.38 12.86L69.75 12.86L69.75 10.04ZM74.62 10.04L71.52 10.04L71.52 29.79L79.73 29.79L79.73 26.96L74.62 26.96L74.62 10.04ZM109.8 10.04L105.6 10.04L102.38 29.79L105.26 29.79L105.83 25.92L109.35 25.92L109.35 25.87L109.92 29.79L113.02 29.79L109.8 10.04ZM118.41 10.04L114.52 10.04L114.52 29.79L117.28 29.79L117.28 15.37L117.34 15.37L121.06 29.79L124.25 29.79L124.25 10.04L121.49 10.04L121.49 21.86L121.42 21.86L118.41 10.04ZM125.74 12.86L128.99 12.86L128.99 29.79L132.09 29.79L132.09 12.86L135.34 12.86L135.34 10.04L125.74 10.04L125.74 12.86ZM86.64 26.92Q86.25 27.25 85.6 27.25Q84.95 27.25 84.56 26.93Q83.99 26.46 83.99 25.3L83.99 14.53Q83.99 13.36 84.56 12.89Q84.95 12.58 85.6 12.58Q86.25 12.58 86.64 12.9Q87.21 13.37 87.21 14.53L87.21 25.3Q87.21 26.45 86.64 26.92ZM55.51 18.05Q55.05 18.51 54.14 18.51L53.01 18.51L53.01 12.86L54.42 12.86Q55.12 12.86 55.5 13.2Q55.56 13.27 55.62 13.34Q56.01 13.82 56.01 14.89L56.01 16.41Q56.01 17.54 55.54 18.02Q55.53 18.04 55.51 18.05ZM107.6 13.49L108.99 23.25L106.19 23.25L107.55 13.49L107.6 13.49Z" fill="#234778" fill-opacity="1.000000" fill-rule="evenodd"/>
</svg>
