<svg width="33.200012" height="33.199951" viewBox="0 0 33.2 33.2" fill="none" xmlns="http://www.w3.org/2000/svg" xmlns:xlink="http://www.w3.org/1999/xlink">
	<desc>
			Created with Pixso.
	</desc>
	<defs/>
	<path id="Rectangle 34624357" d="M0.85 5.5C0.91 5.07 0.94 4.86 0.98 4.67C1.39 2.83 2.83 1.39 4.67 0.98C4.86 0.94 5.07 0.91 5.5 0.85C6.71 0.68 7.31 0.6 7.92 0.53C13.68 -0.18 19.51 -0.18 25.27 0.53C25.88 0.6 26.48 0.68 27.69 0.85C28.12 0.91 28.33 0.94 28.52 0.98C30.36 1.39 31.8 2.83 32.21 4.67C32.25 4.86 32.28 5.07 32.34 5.5C32.51 6.71 32.59 7.31 32.66 7.92C33.37 13.68 33.37 19.51 32.66 25.27C32.59 25.88 32.51 26.48 32.34 27.69C32.28 28.12 32.25 28.33 32.21 28.52C31.8 30.36 30.36 31.8 28.52 32.21C28.33 32.25 28.12 32.28 27.69 32.34C26.48 32.51 25.88 32.59 25.27 32.66C19.51 33.37 13.68 33.37 7.92 32.66C7.31 32.59 6.71 32.51 5.5 32.34C5.07 32.28 4.86 32.25 4.67 32.21C2.83 31.8 1.39 30.36 0.98 28.52C0.94 28.33 0.91 28.12 0.85 27.69C0.68 26.48 0.6 25.88 0.53 25.27C-0.18 19.51 -0.18 13.68 0.53 7.92C0.6 7.31 0.68 6.71 0.85 5.5Z" fill="#0088CC" fill-opacity="1.000000" fill-rule="nonzero"/>
	<path id="telegram" d="M7.23 15.71C12.45 13.44 15.94 11.94 17.68 11.21C22.65 9.14 23.69 8.79 24.36 8.77C24.51 8.77 24.84 8.81 25.05 8.98C25.24 9.13 25.29 9.33 25.31 9.47C25.33 9.61 25.36 9.92 25.34 10.17C25.07 13 23.9 19.88 23.31 23.05C23.06 24.39 22.56 24.84 22.09 24.89C21.05 24.98 20.26 24.2 19.25 23.54C17.67 22.51 16.78 21.86 15.25 20.85C13.48 19.69 14.63 19.05 15.64 18C15.9 17.73 20.48 13.56 20.57 13.18C20.58 13.13 20.59 12.96 20.49 12.86C20.38 12.77 20.23 12.8 20.12 12.83C19.96 12.86 17.44 14.53 12.56 17.82C11.85 18.31 11.2 18.55 10.62 18.54C9.98 18.53 8.75 18.18 7.83 17.88C6.71 17.52 5.82 17.32 5.9 16.7C5.94 16.38 6.38 16.05 7.23 15.71Z" fill="#FFFFFF" fill-opacity="1.000000" fill-rule="nonzero"/>
</svg>
