<svg width="33.200012" height="33.199951" viewBox="0 0 33.2 33.2" fill="none" xmlns="http://www.w3.org/2000/svg" xmlns:xlink="http://www.w3.org/1999/xlink">
	<desc>
			Created with Pixso.
	</desc>
	<defs/>
	<path id="Rectangle 558" d="M0.85 5.5C0.91 5.07 0.94 4.86 0.98 4.67C1.39 2.83 2.83 1.39 4.67 0.98C4.86 0.94 5.07 0.91 5.5 0.85C6.71 0.68 7.31 0.6 7.92 0.53C13.68 -0.18 19.51 -0.18 25.27 0.53C25.88 0.6 26.48 0.68 27.69 0.85C28.12 0.91 28.33 0.94 28.52 0.98C30.36 1.39 31.8 2.83 32.21 4.67C32.25 4.86 32.28 5.07 32.34 5.5C32.51 6.71 32.59 7.31 32.66 7.92C33.37 13.68 33.37 19.51 32.66 25.27C32.59 25.88 32.51 26.48 32.34 27.69C32.28 28.12 32.25 28.33 32.21 28.52C31.8 30.36 30.36 31.8 28.52 32.21C28.33 32.25 28.12 32.28 27.69 32.34C26.48 32.51 25.88 32.59 25.27 32.66C19.51 33.37 13.68 33.37 7.92 32.66C7.31 32.59 6.71 32.51 5.5 32.34C5.07 32.28 4.86 32.25 4.67 32.21C2.83 31.8 1.39 30.36 0.98 28.52C0.94 28.33 0.91 28.12 0.85 27.69C0.68 26.48 0.6 25.88 0.53 25.27C-0.18 19.51 -0.18 13.68 0.53 7.92C0.6 7.31 0.68 6.71 0.85 5.5Z" fill="#25D366" fill-opacity="1.000000" fill-rule="nonzero"/>
	<path id="whatsapp" d="M24.93 7.78C22.87 5.72 20.13 4.63 17.25 4.63C11.22 4.63 6.29 9.56 6.29 15.59C6.29 17.51 6.84 19.43 7.8 21.07L6.29 26.55L12.04 25.05C13.69 25.87 15.47 26.42 17.25 26.42C23.28 26.42 28.21 21.48 28.21 15.45C28.21 12.58 26.98 9.84 24.93 7.78ZM17.25 24.64C15.61 24.64 13.96 24.23 12.59 23.4L12.32 23.27L8.89 24.23L9.85 20.94L9.58 20.53C8.62 19.02 8.21 17.37 8.21 15.73C8.21 10.8 12.32 6.68 17.25 6.68C19.72 6.68 21.91 7.64 23.69 9.29C25.47 11.07 26.3 13.26 26.3 15.73C26.3 20.53 22.32 24.64 17.25 24.64ZM22.18 17.78C21.91 17.65 20.54 16.96 20.27 16.96C19.99 16.83 19.85 16.83 19.72 17.1C19.58 17.37 19.03 17.92 18.9 18.2C18.76 18.33 18.62 18.33 18.35 18.33C18.07 18.2 17.25 17.92 16.15 16.96C15.33 16.28 14.78 15.32 14.65 15.04C14.51 14.77 14.65 14.63 14.78 14.5C14.92 14.36 15.06 14.22 15.2 14.08C15.33 13.95 15.33 13.81 15.47 13.67C15.61 13.54 15.47 13.4 15.47 13.26C15.47 13.12 14.92 11.75 14.65 11.21C14.51 10.8 14.24 10.8 14.1 10.8C13.96 10.8 13.83 10.8 13.55 10.8C13.41 10.8 13.14 10.8 12.87 11.07C12.59 11.34 11.91 12.03 11.91 13.4C11.91 14.77 12.87 16 13 16.28C13.14 16.41 14.92 19.29 17.66 20.39C19.99 21.35 20.4 21.07 20.95 21.07C21.5 21.07 22.6 20.39 22.73 19.84C23.01 19.15 23.01 18.61 22.87 18.61C22.73 17.92 22.46 17.92 22.18 17.78Z" fill="#FFFFFF" fill-opacity="1.000000" fill-rule="evenodd"/>
</svg>
