<svg width="20.000000" height="20.000000" viewBox="0 0 20 20" fill="none" xmlns="http://www.w3.org/2000/svg" xmlns:xlink="http://www.w3.org/1999/xlink">
	<desc>
			Created with Pixso.
	</desc>
	<defs/>
	<path id="Vector" d="M0 10C0 4.47 4.47 0 10 0C15.52 0 20 4.47 20 10C20 15.52 15.52 20 10 20C4.47 20 0 15.52 0 10ZM10 1.81C5.48 1.81 1.81 5.48 1.81 10C1.81 14.51 5.48 18.18 10 18.18C14.51 18.18 18.18 14.51 18.18 10C18.18 5.48 14.51 1.81 10 1.81ZM9.09 9.09L9.09 4.54L10.9 4.54L10.9 9.09L15.45 9.09L15.45 10.9L10.9 10.9L10.9 15.45L9.09 15.45L9.09 10.9L4.54 10.9L4.54 9.09L9.09 9.09Z" fill="#234778" fill-opacity="1.000000" fill-rule="evenodd"/>
</svg>
