<svg width="65.268829" height="69.000000" viewBox="0 0 65.2688 69" fill="none" xmlns="http://www.w3.org/2000/svg" xmlns:xlink="http://www.w3.org/1999/xlink">
	<desc>
			Created with Pixso.
	</desc>
	<defs/>
	<mask id="mask_7_23" fill="white">
		<path id="Subtract" d="M42.0306 0C42.7194 0 43.6409 0.0373535 44.0783 0.0837402C44.5158 0.139648 44.9998 0.186279 45.1487 0.204834C45.2977 0.223389 45.6607 0.260742 45.9399 0.297852C46.2192 0.344482 46.8893 0.474609 47.4292 0.60498C47.9691 0.726074 48.9092 1.00537 49.5235 1.20996C50.1378 1.41479 50.687 1.61035 50.7335 1.65674C50.7801 1.69409 50.929 1.75928 51.0593 1.79639C51.1896 1.83374 51.6457 2.03833 52.0832 2.24316C52.5207 2.448 53.3584 2.90405 53.9448 3.25781C54.5312 3.61157 55.2014 4.03955 55.4341 4.198C55.6667 4.3562 56.2531 4.80298 56.7372 5.20312C57.2212 5.59399 58.0682 6.3667 58.6174 6.92505C59.1665 7.48364 59.8274 8.20972 60.0787 8.54468C60.3394 8.87988 60.5907 9.19629 60.6279 9.24292C60.6744 9.29858 60.8978 9.60571 61.1305 9.94092C61.3632 10.2759 61.7355 10.8438 61.9496 11.1975C62.173 11.5605 62.5453 12.2493 62.7967 12.7334C63.0387 13.2173 63.3831 13.9712 63.5599 14.4087C63.7368 14.8462 64.016 15.6001 64.1649 16.0842C64.3232 16.5681 64.5 17.136 64.5558 17.3408C64.6117 17.5454 64.7327 18.1318 64.8351 18.6438C64.9282 19.1558 65.0585 19.9563 65.1143 20.4124C65.1702 20.8777 65.226 21.762 65.2354 22.3857C65.254 23.4746 65.2447 23.5212 65.0213 23.7539C64.8723 23.9121 64.6583 24.0054 64.4163 24.0239C64.2115 24.0425 63.9415 24.0054 63.8112 23.9495C63.6716 23.875 63.532 23.6887 63.4668 23.4746C63.4017 23.27 63.3458 22.8418 63.3458 22.5066C63.3458 22.1716 63.2621 21.2781 63.1597 20.5054C63.0573 19.7422 62.8525 18.6252 62.7036 18.0388C62.5547 17.4524 62.3033 16.6147 62.1544 16.1772C62.0055 15.7397 61.7914 15.1814 61.689 14.9207C61.5866 14.6694 61.3632 14.1667 61.1771 13.8037C61.0002 13.4407 60.6186 12.752 60.33 12.2678C60.0415 11.7839 59.8088 11.3557 59.8088 11.3186C59.8088 11.272 59.7716 11.2346 59.7343 11.2253C59.6971 11.2068 59.3527 10.7786 58.9804 10.2666C58.5988 9.75464 57.8262 8.87061 57.2584 8.31201C56.6906 7.74414 56.0763 7.15771 55.8994 6.99951C55.7226 6.85059 55.2386 6.46899 54.829 6.17114C54.4195 5.86401 53.8238 5.43579 53.498 5.22168C53.1815 4.99829 52.9023 4.82153 52.8744 4.82153C52.8464 4.82153 52.5486 4.66333 52.2042 4.46777C51.8505 4.27246 51.0686 3.90015 50.4543 3.6394C49.84 3.37891 49.0488 3.07153 48.6858 2.95996C48.3228 2.84814 47.634 2.66211 47.15 2.53174C46.666 2.41064 45.7817 2.24316 45.1953 2.1687C44.6089 2.08496 43.8549 1.98267 43.5198 1.92676C43.0731 1.84302 42.5052 1.85229 41.2859 1.93604C40.3924 2.00122 39.5732 2.06641 39.4709 2.07568C39.3685 2.08496 38.9683 2.14087 38.5866 2.20605C38.205 2.27124 37.5534 2.41064 37.1439 2.50391C36.7343 2.6062 36.1479 2.7644 35.8408 2.86694C35.5336 2.95996 34.8448 3.21118 34.3049 3.42529C33.7651 3.6394 32.9926 3.98389 32.583 4.18848C32.1734 4.39331 31.6335 4.69116 31.3729 4.84937C31.1216 4.99829 30.74 5.24048 30.5352 5.37061C30.3304 5.50098 29.8278 5.85474 29.4183 6.16187C29.0087 6.46899 28.5247 6.84131 28.3478 6.99951C28.171 7.15771 27.6032 7.70703 27.082 8.21899C26.57 8.73096 25.8533 9.53125 25.4903 9.98755C25.1366 10.4529 24.6991 11.0393 24.5316 11.2905C24.3547 11.5513 24.1965 11.7747 24.1686 11.8025C24.1406 11.8303 24.0197 12.0166 23.8986 12.2214C23.7869 12.426 23.4146 13.1428 23.0795 13.8037C22.7352 14.4739 22.2698 15.6189 22.0184 16.3635C21.7764 17.1082 21.4879 18.1318 21.3855 18.6438C21.2738 19.1558 21.1249 20.0959 21.0411 20.7383C20.9666 21.3804 20.9015 22.2275 20.9015 22.6277C20.9015 23.0186 20.8456 23.4561 20.7898 23.5864C20.7246 23.7261 20.5571 23.8936 20.4175 23.9587C20.222 24.0518 19.738 24.0891 18.621 24.0891C17.6902 24.0891 17.0666 24.1262 17.0387 24.1821C17.0107 24.238 17.3365 24.8245 17.7647 25.4851C18.1835 26.1555 18.6303 26.8628 18.7606 27.0676C18.8909 27.2725 19.4587 28.1846 20.0358 29.0874C20.6129 29.9995 21.0876 30.8 21.0876 30.8652C21.0876 30.9211 21.1155 30.9771 21.1621 30.9771C21.1993 30.9771 21.7299 31.7681 22.3442 32.7454C22.9586 33.7134 23.6008 34.7373 23.759 35.0073C23.9266 35.2678 24.1127 35.4912 24.1779 35.4912C24.243 35.4912 24.6805 34.8862 25.1552 34.1416C25.6299 33.397 26.1046 32.6431 26.207 32.4663C26.3094 32.2893 26.6445 31.7681 26.9423 31.3027C27.2495 30.8467 27.6312 30.2322 27.7987 29.9531C27.9569 29.6738 28.3386 29.0781 28.6364 28.6313C28.9435 28.1753 29.1855 27.7937 29.1855 27.7656C29.1855 27.7378 29.53 27.1885 29.9489 26.5371C30.3584 25.8762 30.861 25.085 31.0658 24.7686C31.3078 24.3589 31.3823 24.1636 31.3078 24.1355C31.2426 24.1077 29.5114 24.0798 27.4543 24.0703C24.0475 24.0425 23.7125 24.0332 23.5729 23.8843C23.4891 23.7913 23.3681 23.5771 23.3215 23.4189C23.2657 23.2512 23.2285 23.0371 23.2285 22.9534C23.2285 22.8604 23.3495 22.6555 23.7683 22.2275L25.1552 22.2275C25.9092 22.2275 26.5793 22.1902 26.6352 22.1531C26.7003 22.1157 26.7934 21.6875 26.8586 21.2036C26.9144 20.7195 27.0261 20.0679 27.0912 19.7607C27.1564 19.4536 27.3705 18.7463 27.5567 18.1785C27.7429 17.6106 28.0966 16.7729 28.3292 16.3169C28.562 15.8608 28.9063 15.2463 29.0832 14.9673C29.26 14.688 29.5765 14.2227 29.7812 13.9434C29.9954 13.6641 30.2932 13.2917 30.4421 13.115C30.5911 12.938 30.8889 12.6216 31.0937 12.3982C31.2985 12.1841 31.736 11.7654 32.071 11.4768C32.4061 11.1882 33.0391 10.7041 33.4952 10.397C33.942 10.0991 34.6959 9.65234 35.1706 9.41968C35.636 9.17773 36.241 8.90771 36.4923 8.80542C36.7529 8.70288 37.2928 8.51685 37.7024 8.40503C38.1119 8.28418 38.6797 8.14453 38.9589 8.08862C39.2382 8.02344 39.657 7.95825 39.8897 7.92114C40.1224 7.89307 40.4761 7.87451 40.6809 7.87451C40.8857 7.88379 41.2021 7.84668 41.379 7.79077C41.6117 7.71631 42.0585 7.71631 43.0079 7.79077C43.7246 7.84668 44.7112 7.96753 45.1953 8.07007C45.6793 8.16309 46.5449 8.39575 47.1034 8.59131C47.6619 8.77734 48.5275 9.14038 49.0115 9.38232C49.4956 9.62451 49.961 9.89429 50.0354 9.97803C50.1099 10.062 50.2309 10.1365 50.2961 10.127C50.3519 10.127 50.6684 10.3225 50.9941 10.574C51.3106 10.8159 51.6736 11.0764 51.804 11.1697C51.9343 11.2534 52.3345 11.6069 52.6882 11.9607C53.0512 12.3052 53.5631 12.845 53.8331 13.1521C54.0937 13.4592 54.3171 13.7385 54.3171 13.7852C54.3171 13.8223 54.4288 13.9619 54.5591 14.1108C54.6894 14.2505 55.0245 14.7439 55.2944 15.2C55.5737 15.656 55.946 16.354 56.1228 16.7358C56.2997 17.1174 56.5696 17.8154 56.7186 18.2715C56.8675 18.7275 57.0909 19.5466 57.2026 20.0867C57.3701 20.9058 57.4073 21.3711 57.4073 22.9722C57.4166 24.0239 57.3794 25.1128 57.3422 25.3921C57.305 25.6714 57.184 26.3044 57.063 26.7883C56.942 27.2725 56.7278 27.989 56.5882 28.3706C56.4579 28.7524 56.1787 29.4131 55.9832 29.8413C55.7784 30.2603 55.3968 30.949 55.1176 31.3772C54.8477 31.7961 54.5405 32.2429 54.4474 32.3545C54.345 32.4756 54.0565 32.8386 53.7865 33.1458C53.5259 33.4622 53.0047 34.0208 52.623 34.3743C52.2507 34.7373 51.5898 35.2866 51.1524 35.5938C50.7149 35.9102 50.0168 36.3569 49.598 36.5989C49.1698 36.8315 48.4158 37.1946 47.9225 37.3901C47.4199 37.595 46.6101 37.8647 46.1261 38.0044C45.6421 38.1348 45.0929 38.2559 44.916 38.2744C44.7392 38.293 44.5065 38.3396 44.4041 38.386C44.3017 38.4326 43.3989 38.4604 42.4029 38.4512C41.4069 38.4419 40.4482 38.4326 40.29 38.4326C40.1224 38.4233 39.9642 38.3953 39.9456 38.3582C39.9177 38.3115 39.806 38.3022 39.6849 38.3115C39.564 38.3303 38.9869 38.2185 38.4005 38.0696C37.8141 37.9207 36.9391 37.6414 36.4737 37.4553C35.999 37.269 35.3289 36.9712 34.9844 36.7852C34.6307 36.5989 34.0164 36.2173 33.6069 35.9473C33.1973 35.6775 32.6575 35.2866 32.3968 35.0911C32.1455 34.8862 31.708 34.4861 31.4474 34.1975C31.0472 33.7786 30.9541 33.6111 30.9541 33.3506C30.9541 33.1458 31.0378 32.9316 31.1682 32.7734C31.2892 32.6245 31.5126 32.4849 31.6615 32.4568C31.8104 32.4197 32.0617 32.429 32.2106 32.4756C32.3596 32.522 32.7598 32.8198 33.0949 33.1177C33.43 33.4248 33.9326 33.8345 34.2119 34.03C34.4911 34.2161 34.7424 34.4023 34.7703 34.4302C34.7983 34.458 35.2544 34.7188 35.7943 35.0073C36.3341 35.2866 37.1252 35.6494 37.5627 35.8079C38.0002 35.9661 38.7263 36.1802 39.1917 36.2825C39.806 36.4314 40.4855 36.4966 41.7048 36.5337C43.0638 36.571 43.5478 36.5525 44.2645 36.4221C44.7485 36.3291 45.2977 36.2358 45.4745 36.2173C45.6514 36.1987 45.8841 36.1428 45.9865 36.0869C46.0889 36.0405 46.5449 35.8542 47.0103 35.6775C47.4757 35.4912 48.2204 35.1377 48.6858 34.8862C49.1512 34.6257 49.7562 34.2441 50.0447 34.0208C50.3426 33.8066 50.8824 33.3599 51.2455 33.0247C51.6178 32.6897 52.1763 32.1033 52.4834 31.7217C52.7906 31.3398 53.2188 30.7534 53.4328 30.4185C53.6469 30.0833 54.0099 29.4319 54.252 28.9758C54.4846 28.5195 54.8104 27.7004 54.9687 27.1606C55.1269 26.6208 55.313 25.8018 55.3875 25.3457C55.4527 24.8894 55.5364 24.238 55.5737 23.9028C55.6016 23.5679 55.583 22.7766 55.5271 22.1343C55.4713 21.4922 55.3596 20.6824 55.2851 20.3193C55.2107 19.9563 55.0245 19.2861 54.8663 18.8301C54.708 18.374 54.4102 17.6387 54.1961 17.2012C53.9727 16.7637 53.5538 16.0376 53.2467 15.5815C52.9395 15.1162 52.3159 14.3528 51.8505 13.8689C51.3851 13.3848 50.6963 12.752 50.3147 12.4634C49.933 12.1841 49.3839 11.8025 49.1046 11.6257C48.8254 11.458 48.239 11.1509 47.8015 10.9463C47.364 10.7415 46.6938 10.4807 46.3123 10.3506C45.9306 10.2295 45.186 10.0432 44.6647 9.94092C44.1342 9.83862 43.2313 9.72681 42.6635 9.69897C41.9375 9.66162 41.2673 9.6897 40.4948 9.79199C39.8804 9.86646 38.9589 10.0525 38.447 10.2014C37.9351 10.3506 37.1997 10.6018 36.8181 10.76C36.4365 10.9275 35.7477 11.272 35.2823 11.5513C34.8169 11.821 34.156 12.2771 33.793 12.5564C33.43 12.845 32.825 13.4128 32.4434 13.813C32.0617 14.2134 31.5498 14.7996 31.3171 15.1069C31.0844 15.4141 30.74 15.9167 30.5632 16.2239C30.377 16.531 30.0884 17.0708 29.9209 17.4338C29.7626 17.7969 29.5392 18.3181 29.4462 18.5974C29.3438 18.8765 29.2042 19.3232 29.139 19.5747C29.0739 19.8352 28.9435 20.3938 28.8691 20.8313C28.7853 21.2688 28.7202 21.7341 28.7202 22.1343L30.982 22.1436C32.4713 22.1436 33.3463 22.1809 33.5603 22.2554C33.7837 22.3298 33.942 22.4695 34.0536 22.6929C34.156 22.8977 34.2026 23.1211 34.1653 23.2979C34.1374 23.4468 34.0071 23.7446 33.8675 23.9495C33.7278 24.1543 33.5324 24.4707 33.4207 24.6475C33.309 24.8245 33.067 25.2061 32.8901 25.4851C32.7133 25.7644 32.3224 26.3882 32.0152 26.8535C31.7173 27.3281 31.4009 27.8215 31.3264 27.9426C31.252 28.0635 30.9261 28.5847 30.619 29.0874C30.3026 29.5901 29.9767 30.0647 29.8929 30.1392C29.8092 30.2136 29.7347 30.3162 29.744 30.3718C29.744 30.4277 29.1111 31.4702 28.3386 32.699C27.566 33.9275 26.6352 35.4167 26.2629 36.0032C25.8906 36.5896 25.4531 37.2878 25.2949 37.5391C25.1366 37.7996 24.9225 38.0881 24.8108 38.1907C24.6898 38.293 24.4478 38.386 24.243 38.4048C24.0383 38.4141 23.7963 38.3767 23.6938 38.3303C23.5915 38.2837 22.9492 37.3528 22.2791 36.2639C21.5995 35.1841 20.827 33.9556 20.5571 33.5459C20.2964 33.127 19.7566 32.2708 19.3563 31.6284C18.9654 30.9863 18.379 30.0647 18.0626 29.5808C17.7461 29.0967 17.3086 28.4172 17.0945 28.0728C16.8897 27.7192 16.7129 27.4119 16.7129 27.3748C16.7129 27.3281 16.6291 27.2166 16.536 27.114C16.4429 27.0117 15.8752 26.1274 15.2701 25.1594C14.2369 23.4841 14.1811 23.3723 14.2277 23.0186C14.2649 22.8137 14.3859 22.5532 14.4976 22.4321C14.7024 22.218 14.7769 22.2087 16.806 22.1624C18.1835 22.125 18.9282 22.0691 18.9654 22.0042C19.0026 21.9482 19.0399 21.6968 19.0399 21.4363C19.0399 21.1851 19.105 20.5334 19.1795 19.9934C19.254 19.4536 19.3657 18.8115 19.4215 18.5508C19.4774 18.2996 19.5797 17.8154 19.6635 17.4805C19.738 17.1453 19.9241 16.5217 20.0638 16.0842C20.2127 15.6467 20.4547 14.958 20.6129 14.5483C20.7712 14.1389 21.1621 13.2825 21.4879 12.6401C21.8137 11.998 22.2791 11.1602 22.5304 10.7786C22.7817 10.397 23.2843 9.68018 23.6566 9.19629C24.0197 8.71216 24.6246 7.97705 25.0063 7.55811C25.3879 7.14844 26.0115 6.51562 26.3932 6.15259C26.7748 5.78955 27.5009 5.17529 28.0035 4.78418C28.4968 4.39331 28.9435 4.0769 28.9901 4.0769C29.0366 4.0769 29.139 4.021 29.2042 3.94653C29.2693 3.88135 29.6789 3.60229 30.1164 3.34155C30.5538 3.07153 31.3264 2.64355 31.8383 2.39209C32.3503 2.15015 32.8436 1.93604 32.9367 1.93604C33.0204 1.93604 33.0949 1.9082 33.0949 1.87085C33.0949 1.82446 33.4952 1.63818 33.9978 1.45215C34.5004 1.26587 35.3754 0.986572 35.9338 0.828369C36.4923 0.670166 37.4417 0.456055 38.0281 0.35376C38.6146 0.251221 39.4709 0.130371 39.9363 0.0837402C40.4017 0.0466309 41.3418 0 42.0306 0ZM41.8723 13.115C42.012 13.1057 42.2446 13.1802 42.4029 13.2639C42.5518 13.3569 42.7194 13.5244 42.7752 13.6362C42.8218 13.7571 42.8683 14.0457 42.8683 14.2878C42.8683 14.5391 42.8962 14.8184 42.9148 14.9207C42.952 15.051 43.1475 15.1719 43.5943 15.3303C43.9387 15.4512 44.4227 15.656 44.6833 15.7957C44.9346 15.926 45.3907 16.2891 45.6979 16.5962C46.0423 16.9404 46.3588 17.3687 46.517 17.7131C46.6566 18.0203 46.8055 18.5229 46.8521 18.8301C46.908 19.2395 46.8986 19.4817 46.8149 19.7144C46.7404 19.8911 46.5915 20.0959 46.4798 20.1519C46.3588 20.2168 46.1633 20.282 46.033 20.3101C45.9027 20.3286 45.6607 20.2913 45.5024 20.2168C45.3349 20.1423 45.1581 19.9934 45.1115 19.8726C45.0649 19.7607 44.9719 19.4165 44.8974 19.1187C44.8043 18.6812 44.6833 18.4578 44.3575 18.104C44.1249 17.8528 43.7898 17.5735 43.6129 17.4805C43.4361 17.3872 43.1941 17.2942 42.8683 17.2012L42.8683 19.4817C42.8683 21.5945 42.8776 21.762 43.0358 21.762C43.1196 21.7712 43.5292 21.8831 43.9387 22.0227C44.3575 22.1624 44.9346 22.4229 45.2325 22.5999C45.5304 22.7766 46.0051 23.1768 46.3029 23.4841C46.5915 23.8005 46.9359 24.2751 47.0662 24.5544C47.2058 24.8337 47.364 25.3176 47.4292 25.6248C47.4944 25.96 47.5223 26.4346 47.485 26.8069C47.4571 27.1606 47.3547 27.6353 47.2617 27.8774C47.1686 28.1287 46.908 28.594 46.6752 28.9292C46.4426 29.2642 46.0051 29.7297 45.6979 29.9624C45.4 30.2043 44.944 30.4836 44.6833 30.6045C44.432 30.7163 43.9294 30.8838 42.9148 31.1445L42.8683 31.9077C42.8218 32.5872 42.7938 32.6897 42.5704 32.8943C42.3749 33.062 42.1981 33.1177 41.8909 33.1177C41.5466 33.1177 41.4163 33.062 41.1929 32.8386C40.9509 32.5964 40.9136 32.4849 40.9043 32.0195C40.895 31.731 40.8671 31.3865 40.8392 31.2654C40.7926 31.0886 40.6716 31.0142 40.3551 30.9304C40.1224 30.8745 39.6663 30.679 39.3406 30.5022C39.0055 30.3254 38.5215 29.9902 38.2701 29.7576C38.0095 29.5249 37.6558 29.1248 37.4883 28.8733C37.3207 28.6221 37.0974 28.1846 36.9949 27.9053C36.8926 27.626 36.7902 27.1421 36.7715 26.835C36.7529 26.5278 36.7809 26.1926 36.8367 26.0903C36.8926 25.9878 37.0229 25.8296 37.1346 25.7458C37.2463 25.6528 37.4883 25.5784 37.7303 25.5784C38.0095 25.5784 38.1957 25.6436 38.3818 25.8018C38.568 25.96 38.6518 26.1367 38.7076 26.5183C38.7449 26.7976 38.8845 27.2444 39.0055 27.5051C39.1451 27.803 39.3964 28.1194 39.6384 28.3149C39.8525 28.4824 40.2062 28.7151 40.4296 28.8269C40.7275 28.9758 40.8392 28.9944 40.895 28.9014C40.9323 28.8455 40.9695 27.7192 40.9881 26.416C41.0067 25.1128 40.9788 23.8936 40.9323 23.7168C40.8764 23.512 40.8019 23.4001 40.7181 23.4189C40.6437 23.4282 40.3551 23.3723 40.0759 23.2886C39.7966 23.2048 39.3964 23.0559 39.1917 22.9441C38.9869 22.8418 38.5773 22.5159 38.2888 22.218C37.9444 21.8645 37.6465 21.4363 37.4603 21.0361C37.2277 20.5427 37.1532 20.2449 37.116 19.6211C37.088 19.0254 37.116 18.7183 37.2277 18.3647C37.3207 18.104 37.5069 17.6943 37.6372 17.4431C37.7769 17.1919 38.1398 16.7544 38.447 16.4751C38.7542 16.1865 39.294 15.8235 39.657 15.6467C40.02 15.4792 40.4482 15.3208 40.9136 15.2463L40.9136 14.6135C40.9136 14.269 40.9601 13.8596 41.016 13.7107C41.0718 13.5618 41.2301 13.3662 41.3604 13.2732C41.5 13.1895 41.7234 13.115 41.8723 13.115ZM40.4203 17.4897C40.2341 17.5828 39.9642 17.7598 39.8339 17.8713C39.7036 17.9924 39.4802 18.2717 39.3499 18.5044C39.173 18.8115 39.1078 19.0627 39.1078 19.4351C39.0985 19.8262 39.1637 20.0496 39.3405 20.366C39.4708 20.5986 39.7036 20.8779 39.8525 20.9988C40.0014 21.1199 40.2806 21.2688 40.4668 21.3247C40.6623 21.3899 40.8484 21.3992 40.8857 21.3618C40.9229 21.3154 40.9601 20.4312 40.9601 19.3887C40.9601 18.1973 40.9229 17.4526 40.8671 17.3967C40.8019 17.3408 40.6437 17.3687 40.4203 17.4897ZM42.8683 26.4626L42.8683 29.1155C43.2685 29.0225 43.4826 28.9573 43.6129 28.9106C43.7432 28.8547 44.0317 28.6873 44.2645 28.5291C44.4971 28.3616 44.795 28.1101 44.9346 27.9519C45.0742 27.803 45.2511 27.4866 45.3348 27.2539C45.4093 27.0212 45.4745 26.6208 45.4745 26.3696C45.4745 26.0437 45.4 25.7458 45.2231 25.3923C45.0649 25.0945 44.795 24.75 44.5437 24.5544C44.311 24.3684 43.8828 24.1265 43.585 24.0146C43.2964 23.9031 43.0079 23.8098 42.9613 23.8098C42.9055 23.8098 42.8683 24.7593 42.8683 26.4626ZM64.3046 26.053C64.3883 26.0437 64.5931 26.1089 64.742 26.1833C64.8909 26.2578 65.0771 26.4346 65.1516 26.5742C65.2354 26.7417 65.2726 27.0676 65.254 27.4863C65.2354 28.082 65.2074 28.1565 64.9375 28.3894C64.7234 28.5847 64.5466 28.6499 64.2766 28.6499C64.016 28.6499 63.8298 28.5847 63.653 28.4265C63.411 28.2124 63.3924 28.1565 63.3924 27.4119C63.3924 26.7791 63.4296 26.5835 63.5599 26.416C63.653 26.2949 63.8205 26.1741 63.9322 26.1274C64.0439 26.0903 64.2115 26.053 64.3046 26.053ZM64.3046 31.1724C64.3883 31.1631 64.5652 31.2004 64.6955 31.2561C64.8258 31.312 65.012 31.4888 65.1143 31.6472C65.2633 31.8984 65.2912 32.0659 65.254 32.6057C65.226 33.127 65.1702 33.2947 65.0027 33.4622C64.8723 33.5833 64.6396 33.6855 64.4163 33.7041C64.1835 33.7322 63.9508 33.6855 63.7926 33.5925C63.6437 33.5088 63.5041 33.304 63.4482 33.1177C63.3924 32.9409 63.3458 32.5779 63.3458 32.3267C63.3365 31.9451 63.3831 31.8054 63.5971 31.5728C63.7368 31.405 63.9229 31.2561 63.9974 31.2283C64.0718 31.2004 64.2115 31.1724 64.3046 31.1724ZM19.3191 42.2488C20.1848 42.2395 20.5478 42.2861 21.1807 42.4629C21.6182 42.584 22.4094 42.8259 22.9492 42.9841C23.4891 43.1423 24.364 43.3938 24.9039 43.5427C25.4438 43.6917 26.0302 43.8591 26.207 43.915C26.3839 43.9709 27.1657 44.2036 27.929 44.4177C28.7015 44.6411 30.5818 45.1902 32.1176 45.637C33.6534 46.0745 35.394 46.5771 35.9804 46.7539C36.5668 46.9214 37.7024 47.2566 38.4935 47.48C39.2847 47.7126 40.4575 48.0571 41.0998 48.2432C41.742 48.4294 42.4308 48.6714 42.6356 48.7737C42.8404 48.8762 43.2127 49.1182 43.464 49.3044C43.7153 49.4905 44.0969 49.8721 44.311 50.1514C44.5251 50.4307 44.795 50.8682 44.9067 51.1287C45.0277 51.3799 45.186 51.8826 45.2604 52.2456C45.3442 52.646 45.3815 53.1113 45.3442 53.4556C45.3163 53.7629 45.2139 54.2842 45.1115 54.6191C45.0091 54.9543 44.7299 55.4941 44.4972 55.8291C44.2738 56.1643 43.8829 56.5925 43.6409 56.7878C43.3895 56.9834 42.9893 57.2534 42.7286 57.3835C42.4774 57.5139 42.0585 57.6814 41.7979 57.7466C41.5466 57.821 40.9881 57.877 40.5692 57.877C39.9549 57.877 39.3685 57.7747 37.6837 57.3743C36.5109 57.0952 34.7703 56.667 33.793 56.4343C32.8157 56.2014 31.2333 55.8198 30.256 55.5779C29.139 55.3174 28.3572 55.0752 28.1431 54.9355C27.9197 54.7961 27.7801 54.6377 27.7801 54.4983C27.7708 54.3865 27.7708 54.1631 27.7801 54.0142C27.7894 53.8652 27.8452 53.679 27.9104 53.6045C27.9755 53.53 28.1617 53.4185 28.3292 53.344C28.5898 53.2417 28.7388 53.251 29.6323 53.4651C30.1815 53.5952 31.4846 53.9119 32.5364 54.1631C33.5883 54.4238 34.9658 54.7495 35.6081 54.9077C36.2503 55.0566 37.0229 55.2522 37.33 55.3267C37.6372 55.4104 38.0561 55.5127 38.2609 55.55C38.4656 55.5964 39.052 55.7361 39.564 55.8572C40.411 56.0713 40.5413 56.0806 41.0067 55.9688C41.2859 55.9131 41.6862 55.7734 41.8909 55.6616C42.0957 55.5593 42.4215 55.3079 42.6169 55.1125C42.8124 54.917 43.0638 54.5728 43.1755 54.3398C43.3058 54.0608 43.3895 53.679 43.4175 53.2229C43.4454 52.6272 43.4175 52.4504 43.222 52.0129C43.101 51.7336 42.8683 51.3521 42.7101 51.1753C42.5518 50.9983 42.226 50.7378 41.9747 50.5981C41.7234 50.4678 41.0067 50.198 40.3831 50.021C39.7501 49.835 38.7449 49.5464 38.1492 49.3694C37.5441 49.1926 36.3806 48.8481 35.5615 48.6062C34.7424 48.3735 33.7186 48.0757 33.2811 47.9639C32.8436 47.843 32.3037 47.6848 32.071 47.6011C31.8383 47.5266 31.4195 47.3962 31.1403 47.3311C30.861 47.2566 29.5206 46.8657 28.1617 46.4746C26.8027 46.0837 25.1924 45.6091 24.5781 45.4321C23.9638 45.2554 23.2564 45.0505 22.9958 44.9668C22.7444 44.8923 22.2418 44.7527 21.8788 44.6504C21.5158 44.5479 20.9108 44.3804 20.5292 44.2874C20.1475 44.1851 19.6356 44.1011 19.3936 44.1011C19.1423 44.1011 18.6396 44.157 18.2766 44.2314C17.9043 44.3059 17.411 44.4363 17.1783 44.52C16.9456 44.6038 16.4243 44.8831 16.0148 45.1436C15.6052 45.4043 15.2515 45.6462 15.2236 45.6836C15.1957 45.7114 14.5907 46.1582 13.874 46.6609C13.1572 47.1729 12.4033 47.7034 12.1985 47.843C11.9938 47.9827 11.6121 48.2524 11.3515 48.448C11.0815 48.6436 10.4579 49.0903 9.95532 49.4534C9.4527 49.8162 8.96863 50.1514 8.88489 50.198C8.80109 50.2444 8.43811 50.5144 8.0658 50.7749C7.70276 51.0449 7.40491 51.3149 7.40491 51.3613C7.40491 51.408 7.79584 51.9851 8.27057 52.6365C8.75458 53.2974 9.26648 54.0142 9.41547 54.2468C9.56439 54.4795 9.74121 54.731 9.81567 54.8054C9.89014 54.8799 10.2532 55.3918 10.6255 55.9409C11.0071 56.4995 11.3143 56.9741 11.3143 57.0112C11.3049 57.0579 11.398 57.1697 11.5097 57.272C11.6121 57.3743 12.4592 58.5193 13.3713 59.8037C14.2835 61.0974 15.0561 62.1587 15.084 62.1587C15.1119 62.1587 15.2888 62.0376 15.4843 61.8979C15.6704 61.749 16.0892 61.4604 16.415 61.2463C16.7315 61.0325 17.3086 60.7532 17.6902 60.6228C18.2301 60.446 18.5745 60.3901 19.2074 60.3901C19.6542 60.3901 20.1661 60.4368 20.343 60.4832C20.5198 60.5298 22.2139 60.958 24.1127 61.4419C26.0115 61.926 28.6457 62.6055 29.9767 62.9497C31.3078 63.2942 33.067 63.741 33.8861 63.9458C34.7052 64.1411 35.4312 64.3459 35.4964 64.4019C35.5522 64.4485 35.636 64.467 35.6826 64.4485C35.7198 64.4204 36.3992 64.5693 37.1904 64.7742C37.9816 64.9697 38.7263 65.1372 38.8472 65.1372C38.9589 65.1372 39.2754 65.0906 39.5453 65.0254C39.8432 64.9604 40.2714 64.7463 40.6809 64.467C41.0439 64.2251 41.7606 63.7131 42.2819 63.3408C42.8031 62.9778 44.0318 62.1028 45.0091 61.4141C45.9865 60.7251 46.88 60.0923 47.001 60.0178C47.1127 59.9434 47.3827 59.7478 47.5967 59.5989C47.8015 59.45 48.9091 58.6589 50.054 57.8584C51.1989 57.0486 52.4369 56.1736 52.8185 55.9036C53.2001 55.6338 53.74 55.2429 54.0285 55.0474C54.3171 54.8425 54.6987 54.5728 54.8849 54.4424C55.071 54.312 55.6388 53.9119 56.1414 53.5581C56.6534 53.1951 57.8355 52.3574 58.7849 51.678C59.7343 51.0076 60.6279 50.3281 60.7768 50.1885C60.9258 50.0396 61.1584 49.686 61.2888 49.4067C61.4842 48.9878 61.5308 48.7644 61.5215 48.1501C61.5215 47.5359 61.4749 47.3218 61.2794 46.9402C61.1491 46.6794 60.8792 46.3164 60.6837 46.1116C60.479 45.9163 60.116 45.6462 59.8553 45.5066C59.4551 45.302 59.2783 45.2646 58.5988 45.2739C57.9565 45.2739 57.7238 45.3113 57.3887 45.488C57.156 45.6091 56.43 46.0837 55.7598 46.5491C55.099 47.0146 54.3636 47.5266 54.1309 47.6848C53.8983 47.843 52.772 48.6436 51.6178 49.4534C50.2961 50.3748 49.3839 50.9612 49.1512 51.0171C48.8533 51.0916 48.723 51.082 48.4996 50.9612C48.3507 50.8774 48.1645 50.7004 48.1087 50.5703C48.0435 50.4399 47.9877 50.2537 47.9877 50.1514C47.9877 50.0491 48.0342 49.8721 48.0994 49.7512C48.1552 49.6394 48.2669 49.4905 48.3507 49.4253C48.4344 49.3601 48.8347 49.0715 49.2443 48.7925C49.6538 48.5132 50.2402 48.0942 50.5474 47.8708C50.8545 47.6382 51.2361 47.387 51.3851 47.3032C51.5433 47.2192 51.6829 47.1169 51.7109 47.0891C51.7388 47.0518 52.1763 46.7354 52.6882 46.3723C53.2001 46.0093 53.8331 45.5625 54.0844 45.3857C54.345 45.2087 54.8197 44.8738 55.1548 44.6411C55.4899 44.4084 55.9925 44.0918 56.2718 43.9336C56.551 43.7661 56.9326 43.5891 57.1095 43.5334C57.2863 43.4775 57.8727 43.4124 58.4126 43.4031C59.0083 43.3752 59.5668 43.4124 59.8553 43.4868C60.116 43.552 60.5907 43.7476 60.9164 43.9243C61.2515 44.1011 61.7635 44.4829 62.0613 44.7712C62.3592 45.0691 62.7222 45.5532 62.8711 45.8418C63.0201 46.1396 63.2062 46.6143 63.29 46.8936C63.3644 47.1729 63.4296 47.7405 63.4296 48.1501C63.4296 48.5596 63.3831 49.0996 63.3272 49.3601C63.2714 49.6116 63.1224 50.0303 62.9828 50.2817C62.8525 50.533 62.6757 50.8401 62.6105 50.9797C62.536 51.1101 62.2847 51.3987 62.052 51.6221C61.81 51.8455 60.963 52.4971 60.1532 53.0647C59.3434 53.6418 58.5894 54.1724 58.4778 54.2468C58.3661 54.3213 57.4818 54.9451 56.5045 55.6338C55.5364 56.3225 54.2333 57.2441 53.619 57.6721C53.0047 58.1096 52.3159 58.603 52.0832 58.7612C51.8505 58.9194 51.1431 59.4314 50.5008 59.8782C49.8586 60.3342 49.1512 60.8276 48.9185 60.9858C48.6858 61.144 48.1273 61.5442 47.6619 61.8794C47.1965 62.2144 46.638 62.6147 46.4053 62.7637C46.1726 62.9219 45.9399 63.0801 45.8934 63.1174C45.8469 63.1545 45.5304 63.3872 45.1953 63.6199C44.8602 63.8621 44.4786 64.1226 44.3483 64.197C44.218 64.2808 43.7618 64.6067 43.3244 64.9231C42.8962 65.2395 42.3098 65.6677 42.0306 65.8726C41.7513 66.0774 41.2673 66.3657 40.9601 66.5242C40.653 66.6731 40.2155 66.8499 39.9828 66.8965C39.7501 66.9521 39.2568 66.9988 38.8938 66.9988C38.3353 66.9988 37.572 66.8313 34.7052 66.1052C32.7692 65.6118 31.1403 65.1743 31.0937 65.1279C31.0472 65.0813 30.982 65.072 30.9541 65.0906C30.9261 65.1187 29.9209 64.8953 28.7202 64.5881C27.5195 64.2808 25.0249 63.6387 23.1819 63.1638C20.4826 62.4658 19.7007 62.2983 19.1795 62.2983C18.7792 62.2983 18.3697 62.3635 18.137 62.4658C17.9136 62.5496 17.5506 62.7637 17.3272 62.9219C17.1038 63.0894 16.7408 63.3408 16.1544 63.741L16.5174 64.2251C16.7129 64.4949 16.9828 64.9045 17.1038 65.1372C17.2621 65.4072 17.3272 65.6492 17.2993 65.8352C17.2807 65.9934 17.1318 66.2449 16.9642 66.4031C16.7966 66.5613 16.4337 66.8591 16.1544 67.0547C15.8752 67.25 15.1398 67.762 14.5255 68.1995C13.5575 68.8977 13.362 69 13.0176 69C12.7291 69 12.5709 68.9441 12.394 68.7673C12.2544 68.637 12.1241 68.4043 12.0961 68.2554C12.0589 68.0879 12.0961 67.8552 12.1892 67.6689C12.273 67.5107 12.4778 67.2874 12.6453 67.1943C12.8035 67.0918 13.0455 66.9243 13.1758 66.8125C13.3062 66.7102 13.4365 66.6265 13.4737 66.6265C13.5109 66.6265 13.5947 66.5706 13.6599 66.5054C13.725 66.4402 14.0601 66.189 14.4138 65.947C14.8234 65.6584 15.0189 65.4722 14.9723 65.3884C14.9351 65.3328 14.6744 64.9417 14.3859 64.5322C14.0974 64.1226 13.39 63.1174 12.8035 62.2983C12.2264 61.4792 11.2212 60.0645 10.5789 59.1614C9.93671 58.2585 9.03381 56.9834 8.56842 56.3318C8.1123 55.6802 7.58179 54.9543 7.40491 54.7029C7.22809 54.4517 6.70679 53.7163 6.24139 53.0647C5.78534 52.4131 5.38507 51.8362 5.35718 51.7896C5.32922 51.7336 5.07794 51.3799 4.79871 51.0076C4.51947 50.6353 4.25885 50.3374 4.22162 50.3374C4.17505 50.3374 3.67242 50.6819 3.10461 51.1008C2.52753 51.5195 1.8667 51.9758 1.63397 52.1248C1.37335 52.2922 1.09412 52.3853 0.889343 52.3853C0.712463 52.3853 0.479797 52.3108 0.368103 52.2178C0.265686 52.134 0.126099 51.9106 0.0609131 51.7336C-0.0135498 51.5166 -0.0197144 51.3303 0.0422974 51.1753C0.0888672 51.0449 0.219177 50.8494 0.321533 50.7285C0.433228 50.6167 0.563538 50.5237 0.610107 50.5237C0.665955 50.5237 0.870728 50.384 1.06616 50.2166C1.27094 50.0583 1.77362 49.686 2.18317 49.4067C2.60199 49.1274 3.05811 48.8018 3.19769 48.6807C3.33734 48.5596 3.59796 48.3921 3.77478 48.2991C3.95166 48.2061 4.26813 48.0942 4.4729 48.0571C4.79871 48.0012 4.87317 48.0291 5.12445 48.2712C5.27338 48.4202 5.58057 48.8018 5.80396 49.1089C6.01801 49.4253 6.22278 49.686 6.26935 49.686C6.30658 49.686 6.67889 49.4438 7.09778 49.146C7.5166 48.8577 8.50323 48.1594 9.2851 47.5916C10.067 47.0332 11.2584 46.186 11.9193 45.7114C12.5801 45.2275 13.5947 44.5107 14.1532 44.1199C14.721 43.7195 15.3632 43.282 15.5959 43.1519C15.8286 43.0215 16.2475 42.8167 16.5267 42.7144C16.806 42.6025 17.3086 42.4629 17.6437 42.3884C17.9788 42.314 18.7327 42.2488 19.3191 42.2488Z" clip-rule="evenodd" fill="" fill-opacity="1.000000" fill-rule="evenodd"/>
	</mask>
	<path id="Subtract" d="M42.0306 0C42.7194 0 43.6409 0.0373535 44.0783 0.0837402C44.5158 0.139648 44.9998 0.186279 45.1487 0.204834C45.2977 0.223389 45.6607 0.260742 45.9399 0.297852C46.2192 0.344482 46.8893 0.474609 47.4292 0.60498C47.9691 0.726074 48.9092 1.00537 49.5235 1.20996C50.1378 1.41479 50.687 1.61035 50.7335 1.65674C50.7801 1.69409 50.929 1.75928 51.0593 1.79639C51.1896 1.83374 51.6457 2.03833 52.0832 2.24316C52.5207 2.448 53.3584 2.90405 53.9448 3.25781C54.5312 3.61157 55.2014 4.03955 55.4341 4.198C55.6667 4.3562 56.2531 4.80298 56.7372 5.20312C57.2212 5.59399 58.0682 6.3667 58.6174 6.92505C59.1665 7.48364 59.8274 8.20972 60.0787 8.54468C60.3394 8.87988 60.5907 9.19629 60.6279 9.24292C60.6744 9.29858 60.8978 9.60571 61.1305 9.94092C61.3632 10.2759 61.7355 10.8438 61.9496 11.1975C62.173 11.5605 62.5453 12.2493 62.7967 12.7334C63.0387 13.2173 63.3831 13.9712 63.5599 14.4087C63.7368 14.8462 64.016 15.6001 64.1649 16.0842C64.3232 16.5681 64.5 17.136 64.5558 17.3408C64.6117 17.5454 64.7327 18.1318 64.8351 18.6438C64.9282 19.1558 65.0585 19.9563 65.1143 20.4124C65.1702 20.8777 65.226 21.762 65.2354 22.3857C65.254 23.4746 65.2447 23.5212 65.0213 23.7539C64.8723 23.9121 64.6583 24.0054 64.4163 24.0239C64.2115 24.0425 63.9415 24.0054 63.8112 23.9495C63.6716 23.875 63.532 23.6887 63.4668 23.4746C63.4017 23.27 63.3458 22.8418 63.3458 22.5066C63.3458 22.1716 63.2621 21.2781 63.1597 20.5054C63.0573 19.7422 62.8525 18.6252 62.7036 18.0388C62.5547 17.4524 62.3033 16.6147 62.1544 16.1772C62.0055 15.7397 61.7914 15.1814 61.689 14.9207C61.5866 14.6694 61.3632 14.1667 61.1771 13.8037C61.0002 13.4407 60.6186 12.752 60.33 12.2678C60.0415 11.7839 59.8088 11.3557 59.8088 11.3186C59.8088 11.272 59.7716 11.2346 59.7343 11.2253C59.6971 11.2068 59.3527 10.7786 58.9804 10.2666C58.5988 9.75464 57.8262 8.87061 57.2584 8.31201C56.6906 7.74414 56.0763 7.15771 55.8994 6.99951C55.7226 6.85059 55.2386 6.46899 54.829 6.17114C54.4195 5.86401 53.8238 5.43579 53.498 5.22168C53.1815 4.99829 52.9023 4.82153 52.8744 4.82153C52.8464 4.82153 52.5486 4.66333 52.2042 4.46777C51.8505 4.27246 51.0686 3.90015 50.4543 3.6394C49.84 3.37891 49.0488 3.07153 48.6858 2.95996C48.3228 2.84814 47.634 2.66211 47.15 2.53174C46.666 2.41064 45.7817 2.24316 45.1953 2.1687C44.6089 2.08496 43.8549 1.98267 43.5198 1.92676C43.0731 1.84302 42.5052 1.85229 41.2859 1.93604C40.3924 2.00122 39.5732 2.06641 39.4709 2.07568C39.3685 2.08496 38.9683 2.14087 38.5866 2.20605C38.205 2.27124 37.5534 2.41064 37.1439 2.50391C36.7343 2.6062 36.1479 2.7644 35.8408 2.86694C35.5336 2.95996 34.8448 3.21118 34.3049 3.42529C33.7651 3.6394 32.9926 3.98389 32.583 4.18848C32.1734 4.39331 31.6335 4.69116 31.3729 4.84937C31.1216 4.99829 30.74 5.24048 30.5352 5.37061C30.3304 5.50098 29.8278 5.85474 29.4183 6.16187C29.0087 6.46899 28.5247 6.84131 28.3478 6.99951C28.171 7.15771 27.6032 7.70703 27.082 8.21899C26.57 8.73096 25.8533 9.53125 25.4903 9.98755C25.1366 10.4529 24.6991 11.0393 24.5316 11.2905C24.3547 11.5513 24.1965 11.7747 24.1686 11.8025C24.1406 11.8303 24.0197 12.0166 23.8986 12.2214C23.7869 12.426 23.4146 13.1428 23.0795 13.8037C22.7352 14.4739 22.2698 15.6189 22.0184 16.3635C21.7764 17.1082 21.4879 18.1318 21.3855 18.6438C21.2738 19.1558 21.1249 20.0959 21.0411 20.7383C20.9666 21.3804 20.9015 22.2275 20.9015 22.6277C20.9015 23.0186 20.8456 23.4561 20.7898 23.5864C20.7246 23.7261 20.5571 23.8936 20.4175 23.9587C20.222 24.0518 19.738 24.0891 18.621 24.0891C17.6902 24.0891 17.0666 24.1262 17.0387 24.1821C17.0107 24.238 17.3365 24.8245 17.7647 25.4851C18.1835 26.1555 18.6303 26.8628 18.7606 27.0676C18.8909 27.2725 19.4587 28.1846 20.0358 29.0874C20.6129 29.9995 21.0876 30.8 21.0876 30.8652C21.0876 30.9211 21.1155 30.9771 21.1621 30.9771C21.1993 30.9771 21.7299 31.7681 22.3442 32.7454C22.9586 33.7134 23.6008 34.7373 23.759 35.0073C23.9266 35.2678 24.1127 35.4912 24.1779 35.4912C24.243 35.4912 24.6805 34.8862 25.1552 34.1416C25.6299 33.397 26.1046 32.6431 26.207 32.4663C26.3094 32.2893 26.6445 31.7681 26.9423 31.3027C27.2495 30.8467 27.6312 30.2322 27.7987 29.9531C27.9569 29.6738 28.3386 29.0781 28.6364 28.6313C28.9435 28.1753 29.1855 27.7937 29.1855 27.7656C29.1855 27.7378 29.53 27.1885 29.9489 26.5371C30.3584 25.8762 30.861 25.085 31.0658 24.7686C31.3078 24.3589 31.3823 24.1636 31.3078 24.1355C31.2426 24.1077 29.5114 24.0798 27.4543 24.0703C24.0475 24.0425 23.7125 24.0332 23.5729 23.8843C23.4891 23.7913 23.3681 23.5771 23.3215 23.4189C23.2657 23.2512 23.2285 23.0371 23.2285 22.9534C23.2285 22.8604 23.3495 22.6555 23.7683 22.2275L25.1552 22.2275C25.9092 22.2275 26.5793 22.1902 26.6352 22.1531C26.7003 22.1157 26.7934 21.6875 26.8586 21.2036C26.9144 20.7195 27.0261 20.0679 27.0912 19.7607C27.1564 19.4536 27.3705 18.7463 27.5567 18.1785C27.7429 17.6106 28.0966 16.7729 28.3292 16.3169C28.562 15.8608 28.9063 15.2463 29.0832 14.9673C29.26 14.688 29.5765 14.2227 29.7812 13.9434C29.9954 13.6641 30.2932 13.2917 30.4421 13.115C30.5911 12.938 30.8889 12.6216 31.0937 12.3982C31.2985 12.1841 31.736 11.7654 32.071 11.4768C32.4061 11.1882 33.0391 10.7041 33.4952 10.397C33.942 10.0991 34.6959 9.65234 35.1706 9.41968C35.636 9.17773 36.241 8.90771 36.4923 8.80542C36.7529 8.70288 37.2928 8.51685 37.7024 8.40503C38.1119 8.28418 38.6797 8.14453 38.9589 8.08862C39.2382 8.02344 39.657 7.95825 39.8897 7.92114C40.1224 7.89307 40.4761 7.87451 40.6809 7.87451C40.8857 7.88379 41.2021 7.84668 41.379 7.79077C41.6117 7.71631 42.0585 7.71631 43.0079 7.79077C43.7246 7.84668 44.7112 7.96753 45.1953 8.07007C45.6793 8.16309 46.5449 8.39575 47.1034 8.59131C47.6619 8.77734 48.5275 9.14038 49.0115 9.38232C49.4956 9.62451 49.961 9.89429 50.0354 9.97803C50.1099 10.062 50.2309 10.1365 50.2961 10.127C50.3519 10.127 50.6684 10.3225 50.9941 10.574C51.3106 10.8159 51.6736 11.0764 51.804 11.1697C51.9343 11.2534 52.3345 11.6069 52.6882 11.9607C53.0512 12.3052 53.5631 12.845 53.8331 13.1521C54.0937 13.4592 54.3171 13.7385 54.3171 13.7852C54.3171 13.8223 54.4288 13.9619 54.5591 14.1108C54.6894 14.2505 55.0245 14.7439 55.2944 15.2C55.5737 15.656 55.946 16.354 56.1228 16.7358C56.2997 17.1174 56.5696 17.8154 56.7186 18.2715C56.8675 18.7275 57.0909 19.5466 57.2026 20.0867C57.3701 20.9058 57.4073 21.3711 57.4073 22.9722C57.4166 24.0239 57.3794 25.1128 57.3422 25.3921C57.305 25.6714 57.184 26.3044 57.063 26.7883C56.942 27.2725 56.7278 27.989 56.5882 28.3706C56.4579 28.7524 56.1787 29.4131 55.9832 29.8413C55.7784 30.2603 55.3968 30.949 55.1176 31.3772C54.8477 31.7961 54.5405 32.2429 54.4474 32.3545C54.345 32.4756 54.0565 32.8386 53.7865 33.1458C53.5259 33.4622 53.0047 34.0208 52.623 34.3743C52.2507 34.7373 51.5898 35.2866 51.1524 35.5938C50.7149 35.9102 50.0168 36.3569 49.598 36.5989C49.1698 36.8315 48.4158 37.1946 47.9225 37.3901C47.4199 37.595 46.6101 37.8647 46.1261 38.0044C45.6421 38.1348 45.0929 38.2559 44.916 38.2744C44.7392 38.293 44.5065 38.3396 44.4041 38.386C44.3017 38.4326 43.3989 38.4604 42.4029 38.4512C41.4069 38.4419 40.4482 38.4326 40.29 38.4326C40.1224 38.4233 39.9642 38.3953 39.9456 38.3582C39.9177 38.3115 39.806 38.3022 39.6849 38.3115C39.564 38.3303 38.9869 38.2185 38.4005 38.0696C37.8141 37.9207 36.9391 37.6414 36.4737 37.4553C35.999 37.269 35.3289 36.9712 34.9844 36.7852C34.6307 36.5989 34.0164 36.2173 33.6069 35.9473C33.1973 35.6775 32.6575 35.2866 32.3968 35.0911C32.1455 34.8862 31.708 34.4861 31.4474 34.1975C31.0472 33.7786 30.9541 33.6111 30.9541 33.3506C30.9541 33.1458 31.0378 32.9316 31.1682 32.7734C31.2892 32.6245 31.5126 32.4849 31.6615 32.4568C31.8104 32.4197 32.0617 32.429 32.2106 32.4756C32.3596 32.522 32.7598 32.8198 33.0949 33.1177C33.43 33.4248 33.9326 33.8345 34.2119 34.03C34.4911 34.2161 34.7424 34.4023 34.7703 34.4302C34.7983 34.458 35.2544 34.7188 35.7943 35.0073C36.3341 35.2866 37.1252 35.6494 37.5627 35.8079C38.0002 35.9661 38.7263 36.1802 39.1917 36.2825C39.806 36.4314 40.4855 36.4966 41.7048 36.5337C43.0638 36.571 43.5478 36.5525 44.2645 36.4221C44.7485 36.3291 45.2977 36.2358 45.4745 36.2173C45.6514 36.1987 45.8841 36.1428 45.9865 36.0869C46.0889 36.0405 46.5449 35.8542 47.0103 35.6775C47.4757 35.4912 48.2204 35.1377 48.6858 34.8862C49.1512 34.6257 49.7562 34.2441 50.0447 34.0208C50.3426 33.8066 50.8824 33.3599 51.2455 33.0247C51.6178 32.6897 52.1763 32.1033 52.4834 31.7217C52.7906 31.3398 53.2188 30.7534 53.4328 30.4185C53.6469 30.0833 54.0099 29.4319 54.252 28.9758C54.4846 28.5195 54.8104 27.7004 54.9687 27.1606C55.1269 26.6208 55.313 25.8018 55.3875 25.3457C55.4527 24.8894 55.5364 24.238 55.5737 23.9028C55.6016 23.5679 55.583 22.7766 55.5271 22.1343C55.4713 21.4922 55.3596 20.6824 55.2851 20.3193C55.2107 19.9563 55.0245 19.2861 54.8663 18.8301C54.708 18.374 54.4102 17.6387 54.1961 17.2012C53.9727 16.7637 53.5538 16.0376 53.2467 15.5815C52.9395 15.1162 52.3159 14.3528 51.8505 13.8689C51.3851 13.3848 50.6963 12.752 50.3147 12.4634C49.933 12.1841 49.3839 11.8025 49.1046 11.6257C48.8254 11.458 48.239 11.1509 47.8015 10.9463C47.364 10.7415 46.6938 10.4807 46.3123 10.3506C45.9306 10.2295 45.186 10.0432 44.6647 9.94092C44.1342 9.83862 43.2313 9.72681 42.6635 9.69897C41.9375 9.66162 41.2673 9.6897 40.4948 9.79199C39.8804 9.86646 38.9589 10.0525 38.447 10.2014C37.9351 10.3506 37.1997 10.6018 36.8181 10.76C36.4365 10.9275 35.7477 11.272 35.2823 11.5513C34.8169 11.821 34.156 12.2771 33.793 12.5564C33.43 12.845 32.825 13.4128 32.4434 13.813C32.0617 14.2134 31.5498 14.7996 31.3171 15.1069C31.0844 15.4141 30.74 15.9167 30.5632 16.2239C30.377 16.531 30.0884 17.0708 29.9209 17.4338C29.7626 17.7969 29.5392 18.3181 29.4462 18.5974C29.3438 18.8765 29.2042 19.3232 29.139 19.5747C29.0739 19.8352 28.9435 20.3938 28.8691 20.8313C28.7853 21.2688 28.7202 21.7341 28.7202 22.1343L30.982 22.1436C32.4713 22.1436 33.3463 22.1809 33.5603 22.2554C33.7837 22.3298 33.942 22.4695 34.0536 22.6929C34.156 22.8977 34.2026 23.1211 34.1653 23.2979C34.1374 23.4468 34.0071 23.7446 33.8675 23.9495C33.7278 24.1543 33.5324 24.4707 33.4207 24.6475C33.309 24.8245 33.067 25.2061 32.8901 25.4851C32.7133 25.7644 32.3224 26.3882 32.0152 26.8535C31.7173 27.3281 31.4009 27.8215 31.3264 27.9426C31.252 28.0635 30.9261 28.5847 30.619 29.0874C30.3026 29.5901 29.9767 30.0647 29.8929 30.1392C29.8092 30.2136 29.7347 30.3162 29.744 30.3718C29.744 30.4277 29.1111 31.4702 28.3386 32.699C27.566 33.9275 26.6352 35.4167 26.2629 36.0032C25.8906 36.5896 25.4531 37.2878 25.2949 37.5391C25.1366 37.7996 24.9225 38.0881 24.8108 38.1907C24.6898 38.293 24.4478 38.386 24.243 38.4048C24.0383 38.4141 23.7963 38.3767 23.6938 38.3303C23.5915 38.2837 22.9492 37.3528 22.2791 36.2639C21.5995 35.1841 20.827 33.9556 20.5571 33.5459C20.2964 33.127 19.7566 32.2708 19.3563 31.6284C18.9654 30.9863 18.379 30.0647 18.0626 29.5808C17.7461 29.0967 17.3086 28.4172 17.0945 28.0728C16.8897 27.7192 16.7129 27.4119 16.7129 27.3748C16.7129 27.3281 16.6291 27.2166 16.536 27.114C16.4429 27.0117 15.8752 26.1274 15.2701 25.1594C14.2369 23.4841 14.1811 23.3723 14.2277 23.0186C14.2649 22.8137 14.3859 22.5532 14.4976 22.4321C14.7024 22.218 14.7769 22.2087 16.806 22.1624C18.1835 22.125 18.9282 22.0691 18.9654 22.0042C19.0026 21.9482 19.0399 21.6968 19.0399 21.4363C19.0399 21.1851 19.105 20.5334 19.1795 19.9934C19.254 19.4536 19.3657 18.8115 19.4215 18.5508C19.4774 18.2996 19.5797 17.8154 19.6635 17.4805C19.738 17.1453 19.9241 16.5217 20.0638 16.0842C20.2127 15.6467 20.4547 14.958 20.6129 14.5483C20.7712 14.1389 21.1621 13.2825 21.4879 12.6401C21.8137 11.998 22.2791 11.1602 22.5304 10.7786C22.7817 10.397 23.2843 9.68018 23.6566 9.19629C24.0197 8.71216 24.6246 7.97705 25.0063 7.55811C25.3879 7.14844 26.0115 6.51562 26.3932 6.15259C26.7748 5.78955 27.5009 5.17529 28.0035 4.78418C28.4968 4.39331 28.9435 4.0769 28.9901 4.0769C29.0366 4.0769 29.139 4.021 29.2042 3.94653C29.2693 3.88135 29.6789 3.60229 30.1164 3.34155C30.5538 3.07153 31.3264 2.64355 31.8383 2.39209C32.3503 2.15015 32.8436 1.93604 32.9367 1.93604C33.0204 1.93604 33.0949 1.9082 33.0949 1.87085C33.0949 1.82446 33.4952 1.63818 33.9978 1.45215C34.5004 1.26587 35.3754 0.986572 35.9338 0.828369C36.4923 0.670166 37.4417 0.456055 38.0281 0.35376C38.6146 0.251221 39.4709 0.130371 39.9363 0.0837402C40.4017 0.0466309 41.3418 0 42.0306 0ZM41.8723 13.115C42.012 13.1057 42.2446 13.1802 42.4029 13.2639C42.5518 13.3569 42.7194 13.5244 42.7752 13.6362C42.8218 13.7571 42.8683 14.0457 42.8683 14.2878C42.8683 14.5391 42.8962 14.8184 42.9148 14.9207C42.952 15.051 43.1475 15.1719 43.5943 15.3303C43.9387 15.4512 44.4227 15.656 44.6833 15.7957C44.9346 15.926 45.3907 16.2891 45.6979 16.5962C46.0423 16.9404 46.3588 17.3687 46.517 17.7131C46.6566 18.0203 46.8055 18.5229 46.8521 18.8301C46.908 19.2395 46.8986 19.4817 46.8149 19.7144C46.7404 19.8911 46.5915 20.0959 46.4798 20.1519C46.3588 20.2168 46.1633 20.282 46.033 20.3101C45.9027 20.3286 45.6607 20.2913 45.5024 20.2168C45.3349 20.1423 45.1581 19.9934 45.1115 19.8726C45.0649 19.7607 44.9719 19.4165 44.8974 19.1187C44.8043 18.6812 44.6833 18.4578 44.3575 18.104C44.1249 17.8528 43.7898 17.5735 43.6129 17.4805C43.4361 17.3872 43.1941 17.2942 42.8683 17.2012L42.8683 19.4817C42.8683 21.5945 42.8776 21.762 43.0358 21.762C43.1196 21.7712 43.5292 21.8831 43.9387 22.0227C44.3575 22.1624 44.9346 22.4229 45.2325 22.5999C45.5304 22.7766 46.0051 23.1768 46.3029 23.4841C46.5915 23.8005 46.9359 24.2751 47.0662 24.5544C47.2058 24.8337 47.364 25.3176 47.4292 25.6248C47.4944 25.96 47.5223 26.4346 47.485 26.8069C47.4571 27.1606 47.3547 27.6353 47.2617 27.8774C47.1686 28.1287 46.908 28.594 46.6752 28.9292C46.4426 29.2642 46.0051 29.7297 45.6979 29.9624C45.4 30.2043 44.944 30.4836 44.6833 30.6045C44.432 30.7163 43.9294 30.8838 42.9148 31.1445L42.8683 31.9077C42.8218 32.5872 42.7938 32.6897 42.5704 32.8943C42.3749 33.062 42.1981 33.1177 41.8909 33.1177C41.5466 33.1177 41.4163 33.062 41.1929 32.8386C40.9509 32.5964 40.9136 32.4849 40.9043 32.0195C40.895 31.731 40.8671 31.3865 40.8392 31.2654C40.7926 31.0886 40.6716 31.0142 40.3551 30.9304C40.1224 30.8745 39.6663 30.679 39.3406 30.5022C39.0055 30.3254 38.5215 29.9902 38.2701 29.7576C38.0095 29.5249 37.6558 29.1248 37.4883 28.8733C37.3207 28.6221 37.0974 28.1846 36.9949 27.9053C36.8926 27.626 36.7902 27.1421 36.7715 26.835C36.7529 26.5278 36.7809 26.1926 36.8367 26.0903C36.8926 25.9878 37.0229 25.8296 37.1346 25.7458C37.2463 25.6528 37.4883 25.5784 37.7303 25.5784C38.0095 25.5784 38.1957 25.6436 38.3818 25.8018C38.568 25.96 38.6518 26.1367 38.7076 26.5183C38.7449 26.7976 38.8845 27.2444 39.0055 27.5051C39.1451 27.803 39.3964 28.1194 39.6384 28.3149C39.8525 28.4824 40.2062 28.7151 40.4296 28.8269C40.7275 28.9758 40.8392 28.9944 40.895 28.9014C40.9323 28.8455 40.9695 27.7192 40.9881 26.416C41.0067 25.1128 40.9788 23.8936 40.9323 23.7168C40.8764 23.512 40.8019 23.4001 40.7181 23.4189C40.6437 23.4282 40.3551 23.3723 40.0759 23.2886C39.7966 23.2048 39.3964 23.0559 39.1917 22.9441C38.9869 22.8418 38.5773 22.5159 38.2888 22.218C37.9444 21.8645 37.6465 21.4363 37.4603 21.0361C37.2277 20.5427 37.1532 20.2449 37.116 19.6211C37.088 19.0254 37.116 18.7183 37.2277 18.3647C37.3207 18.104 37.5069 17.6943 37.6372 17.4431C37.7769 17.1919 38.1398 16.7544 38.447 16.4751C38.7542 16.1865 39.294 15.8235 39.657 15.6467C40.02 15.4792 40.4482 15.3208 40.9136 15.2463L40.9136 14.6135C40.9136 14.269 40.9601 13.8596 41.016 13.7107C41.0718 13.5618 41.2301 13.3662 41.3604 13.2732C41.5 13.1895 41.7234 13.115 41.8723 13.115ZM40.4203 17.4897C40.2341 17.5828 39.9642 17.7598 39.8339 17.8713C39.7036 17.9924 39.4802 18.2717 39.3499 18.5044C39.173 18.8115 39.1078 19.0627 39.1078 19.4351C39.0985 19.8262 39.1637 20.0496 39.3405 20.366C39.4708 20.5986 39.7036 20.8779 39.8525 20.9988C40.0014 21.1199 40.2806 21.2688 40.4668 21.3247C40.6623 21.3899 40.8484 21.3992 40.8857 21.3618C40.9229 21.3154 40.9601 20.4312 40.9601 19.3887C40.9601 18.1973 40.9229 17.4526 40.8671 17.3967C40.8019 17.3408 40.6437 17.3687 40.4203 17.4897ZM42.8683 26.4626L42.8683 29.1155C43.2685 29.0225 43.4826 28.9573 43.6129 28.9106C43.7432 28.8547 44.0317 28.6873 44.2645 28.5291C44.4971 28.3616 44.795 28.1101 44.9346 27.9519C45.0742 27.803 45.2511 27.4866 45.3348 27.2539C45.4093 27.0212 45.4745 26.6208 45.4745 26.3696C45.4745 26.0437 45.4 25.7458 45.2231 25.3923C45.0649 25.0945 44.795 24.75 44.5437 24.5544C44.311 24.3684 43.8828 24.1265 43.585 24.0146C43.2964 23.9031 43.0079 23.8098 42.9613 23.8098C42.9055 23.8098 42.8683 24.7593 42.8683 26.4626ZM64.3046 26.053C64.3883 26.0437 64.5931 26.1089 64.742 26.1833C64.8909 26.2578 65.0771 26.4346 65.1516 26.5742C65.2354 26.7417 65.2726 27.0676 65.254 27.4863C65.2354 28.082 65.2074 28.1565 64.9375 28.3894C64.7234 28.5847 64.5466 28.6499 64.2766 28.6499C64.016 28.6499 63.8298 28.5847 63.653 28.4265C63.411 28.2124 63.3924 28.1565 63.3924 27.4119C63.3924 26.7791 63.4296 26.5835 63.5599 26.416C63.653 26.2949 63.8205 26.1741 63.9322 26.1274C64.0439 26.0903 64.2115 26.053 64.3046 26.053ZM64.3046 31.1724C64.3883 31.1631 64.5652 31.2004 64.6955 31.2561C64.8258 31.312 65.012 31.4888 65.1143 31.6472C65.2633 31.8984 65.2912 32.0659 65.254 32.6057C65.226 33.127 65.1702 33.2947 65.0027 33.4622C64.8723 33.5833 64.6396 33.6855 64.4163 33.7041C64.1835 33.7322 63.9508 33.6855 63.7926 33.5925C63.6437 33.5088 63.5041 33.304 63.4482 33.1177C63.3924 32.9409 63.3458 32.5779 63.3458 32.3267C63.3365 31.9451 63.3831 31.8054 63.5971 31.5728C63.7368 31.405 63.9229 31.2561 63.9974 31.2283C64.0718 31.2004 64.2115 31.1724 64.3046 31.1724ZM19.3191 42.2488C20.1848 42.2395 20.5478 42.2861 21.1807 42.4629C21.6182 42.584 22.4094 42.8259 22.9492 42.9841C23.4891 43.1423 24.364 43.3938 24.9039 43.5427C25.4438 43.6917 26.0302 43.8591 26.207 43.915C26.3839 43.9709 27.1657 44.2036 27.929 44.4177C28.7015 44.6411 30.5818 45.1902 32.1176 45.637C33.6534 46.0745 35.394 46.5771 35.9804 46.7539C36.5668 46.9214 37.7024 47.2566 38.4935 47.48C39.2847 47.7126 40.4575 48.0571 41.0998 48.2432C41.742 48.4294 42.4308 48.6714 42.6356 48.7737C42.8404 48.8762 43.2127 49.1182 43.464 49.3044C43.7153 49.4905 44.0969 49.8721 44.311 50.1514C44.5251 50.4307 44.795 50.8682 44.9067 51.1287C45.0277 51.3799 45.186 51.8826 45.2604 52.2456C45.3442 52.646 45.3815 53.1113 45.3442 53.4556C45.3163 53.7629 45.2139 54.2842 45.1115 54.6191C45.0091 54.9543 44.7299 55.4941 44.4972 55.8291C44.2738 56.1643 43.8829 56.5925 43.6409 56.7878C43.3895 56.9834 42.9893 57.2534 42.7286 57.3835C42.4774 57.5139 42.0585 57.6814 41.7979 57.7466C41.5466 57.821 40.9881 57.877 40.5692 57.877C39.9549 57.877 39.3685 57.7747 37.6837 57.3743C36.5109 57.0952 34.7703 56.667 33.793 56.4343C32.8157 56.2014 31.2333 55.8198 30.256 55.5779C29.139 55.3174 28.3572 55.0752 28.1431 54.9355C27.9197 54.7961 27.7801 54.6377 27.7801 54.4983C27.7708 54.3865 27.7708 54.1631 27.7801 54.0142C27.7894 53.8652 27.8452 53.679 27.9104 53.6045C27.9755 53.53 28.1617 53.4185 28.3292 53.344C28.5898 53.2417 28.7388 53.251 29.6323 53.4651C30.1815 53.5952 31.4846 53.9119 32.5364 54.1631C33.5883 54.4238 34.9658 54.7495 35.6081 54.9077C36.2503 55.0566 37.0229 55.2522 37.33 55.3267C37.6372 55.4104 38.0561 55.5127 38.2609 55.55C38.4656 55.5964 39.052 55.7361 39.564 55.8572C40.411 56.0713 40.5413 56.0806 41.0067 55.9688C41.2859 55.9131 41.6862 55.7734 41.8909 55.6616C42.0957 55.5593 42.4215 55.3079 42.6169 55.1125C42.8124 54.917 43.0638 54.5728 43.1755 54.3398C43.3058 54.0608 43.3895 53.679 43.4175 53.2229C43.4454 52.6272 43.4175 52.4504 43.222 52.0129C43.101 51.7336 42.8683 51.3521 42.7101 51.1753C42.5518 50.9983 42.226 50.7378 41.9747 50.5981C41.7234 50.4678 41.0067 50.198 40.3831 50.021C39.7501 49.835 38.7449 49.5464 38.1492 49.3694C37.5441 49.1926 36.3806 48.8481 35.5615 48.6062C34.7424 48.3735 33.7186 48.0757 33.2811 47.9639C32.8436 47.843 32.3037 47.6848 32.071 47.6011C31.8383 47.5266 31.4195 47.3962 31.1403 47.3311C30.861 47.2566 29.5206 46.8657 28.1617 46.4746C26.8027 46.0837 25.1924 45.6091 24.5781 45.4321C23.9638 45.2554 23.2564 45.0505 22.9958 44.9668C22.7444 44.8923 22.2418 44.7527 21.8788 44.6504C21.5158 44.5479 20.9108 44.3804 20.5292 44.2874C20.1475 44.1851 19.6356 44.1011 19.3936 44.1011C19.1423 44.1011 18.6396 44.157 18.2766 44.2314C17.9043 44.3059 17.411 44.4363 17.1783 44.52C16.9456 44.6038 16.4243 44.8831 16.0148 45.1436C15.6052 45.4043 15.2515 45.6462 15.2236 45.6836C15.1957 45.7114 14.5907 46.1582 13.874 46.6609C13.1572 47.1729 12.4033 47.7034 12.1985 47.843C11.9938 47.9827 11.6121 48.2524 11.3515 48.448C11.0815 48.6436 10.4579 49.0903 9.95532 49.4534C9.4527 49.8162 8.96863 50.1514 8.88489 50.198C8.80109 50.2444 8.43811 50.5144 8.0658 50.7749C7.70276 51.0449 7.40491 51.3149 7.40491 51.3613C7.40491 51.408 7.79584 51.9851 8.27057 52.6365C8.75458 53.2974 9.26648 54.0142 9.41547 54.2468C9.56439 54.4795 9.74121 54.731 9.81567 54.8054C9.89014 54.8799 10.2532 55.3918 10.6255 55.9409C11.0071 56.4995 11.3143 56.9741 11.3143 57.0112C11.3049 57.0579 11.398 57.1697 11.5097 57.272C11.6121 57.3743 12.4592 58.5193 13.3713 59.8037C14.2835 61.0974 15.0561 62.1587 15.084 62.1587C15.1119 62.1587 15.2888 62.0376 15.4843 61.8979C15.6704 61.749 16.0892 61.4604 16.415 61.2463C16.7315 61.0325 17.3086 60.7532 17.6902 60.6228C18.2301 60.446 18.5745 60.3901 19.2074 60.3901C19.6542 60.3901 20.1661 60.4368 20.343 60.4832C20.5198 60.5298 22.2139 60.958 24.1127 61.4419C26.0115 61.926 28.6457 62.6055 29.9767 62.9497C31.3078 63.2942 33.067 63.741 33.8861 63.9458C34.7052 64.1411 35.4312 64.3459 35.4964 64.4019C35.5522 64.4485 35.636 64.467 35.6826 64.4485C35.7198 64.4204 36.3992 64.5693 37.1904 64.7742C37.9816 64.9697 38.7263 65.1372 38.8472 65.1372C38.9589 65.1372 39.2754 65.0906 39.5453 65.0254C39.8432 64.9604 40.2714 64.7463 40.6809 64.467C41.0439 64.2251 41.7606 63.7131 42.2819 63.3408C42.8031 62.9778 44.0318 62.1028 45.0091 61.4141C45.9865 60.7251 46.88 60.0923 47.001 60.0178C47.1127 59.9434 47.3827 59.7478 47.5967 59.5989C47.8015 59.45 48.9091 58.6589 50.054 57.8584C51.1989 57.0486 52.4369 56.1736 52.8185 55.9036C53.2001 55.6338 53.74 55.2429 54.0285 55.0474C54.3171 54.8425 54.6987 54.5728 54.8849 54.4424C55.071 54.312 55.6388 53.9119 56.1414 53.5581C56.6534 53.1951 57.8355 52.3574 58.7849 51.678C59.7343 51.0076 60.6279 50.3281 60.7768 50.1885C60.9258 50.0396 61.1584 49.686 61.2888 49.4067C61.4842 48.9878 61.5308 48.7644 61.5215 48.1501C61.5215 47.5359 61.4749 47.3218 61.2794 46.9402C61.1491 46.6794 60.8792 46.3164 60.6837 46.1116C60.479 45.9163 60.116 45.6462 59.8553 45.5066C59.4551 45.302 59.2783 45.2646 58.5988 45.2739C57.9565 45.2739 57.7238 45.3113 57.3887 45.488C57.156 45.6091 56.43 46.0837 55.7598 46.5491C55.099 47.0146 54.3636 47.5266 54.1309 47.6848C53.8983 47.843 52.772 48.6436 51.6178 49.4534C50.2961 50.3748 49.3839 50.9612 49.1512 51.0171C48.8533 51.0916 48.723 51.082 48.4996 50.9612C48.3507 50.8774 48.1645 50.7004 48.1087 50.5703C48.0435 50.4399 47.9877 50.2537 47.9877 50.1514C47.9877 50.0491 48.0342 49.8721 48.0994 49.7512C48.1552 49.6394 48.2669 49.4905 48.3507 49.4253C48.4344 49.3601 48.8347 49.0715 49.2443 48.7925C49.6538 48.5132 50.2402 48.0942 50.5474 47.8708C50.8545 47.6382 51.2361 47.387 51.3851 47.3032C51.5433 47.2192 51.6829 47.1169 51.7109 47.0891C51.7388 47.0518 52.1763 46.7354 52.6882 46.3723C53.2001 46.0093 53.8331 45.5625 54.0844 45.3857C54.345 45.2087 54.8197 44.8738 55.1548 44.6411C55.4899 44.4084 55.9925 44.0918 56.2718 43.9336C56.551 43.7661 56.9326 43.5891 57.1095 43.5334C57.2863 43.4775 57.8727 43.4124 58.4126 43.4031C59.0083 43.3752 59.5668 43.4124 59.8553 43.4868C60.116 43.552 60.5907 43.7476 60.9164 43.9243C61.2515 44.1011 61.7635 44.4829 62.0613 44.7712C62.3592 45.0691 62.7222 45.5532 62.8711 45.8418C63.0201 46.1396 63.2062 46.6143 63.29 46.8936C63.3644 47.1729 63.4296 47.7405 63.4296 48.1501C63.4296 48.5596 63.3831 49.0996 63.3272 49.3601C63.2714 49.6116 63.1224 50.0303 62.9828 50.2817C62.8525 50.533 62.6757 50.8401 62.6105 50.9797C62.536 51.1101 62.2847 51.3987 62.052 51.6221C61.81 51.8455 60.963 52.4971 60.1532 53.0647C59.3434 53.6418 58.5894 54.1724 58.4778 54.2468C58.3661 54.3213 57.4818 54.9451 56.5045 55.6338C55.5364 56.3225 54.2333 57.2441 53.619 57.6721C53.0047 58.1096 52.3159 58.603 52.0832 58.7612C51.8505 58.9194 51.1431 59.4314 50.5008 59.8782C49.8586 60.3342 49.1512 60.8276 48.9185 60.9858C48.6858 61.144 48.1273 61.5442 47.6619 61.8794C47.1965 62.2144 46.638 62.6147 46.4053 62.7637C46.1726 62.9219 45.9399 63.0801 45.8934 63.1174C45.8469 63.1545 45.5304 63.3872 45.1953 63.6199C44.8602 63.8621 44.4786 64.1226 44.3483 64.197C44.218 64.2808 43.7618 64.6067 43.3244 64.9231C42.8962 65.2395 42.3098 65.6677 42.0306 65.8726C41.7513 66.0774 41.2673 66.3657 40.9601 66.5242C40.653 66.6731 40.2155 66.8499 39.9828 66.8965C39.7501 66.9521 39.2568 66.9988 38.8938 66.9988C38.3353 66.9988 37.572 66.8313 34.7052 66.1052C32.7692 65.6118 31.1403 65.1743 31.0937 65.1279C31.0472 65.0813 30.982 65.072 30.9541 65.0906C30.9261 65.1187 29.9209 64.8953 28.7202 64.5881C27.5195 64.2808 25.0249 63.6387 23.1819 63.1638C20.4826 62.4658 19.7007 62.2983 19.1795 62.2983C18.7792 62.2983 18.3697 62.3635 18.137 62.4658C17.9136 62.5496 17.5506 62.7637 17.3272 62.9219C17.1038 63.0894 16.7408 63.3408 16.1544 63.741L16.5174 64.2251C16.7129 64.4949 16.9828 64.9045 17.1038 65.1372C17.2621 65.4072 17.3272 65.6492 17.2993 65.8352C17.2807 65.9934 17.1318 66.2449 16.9642 66.4031C16.7966 66.5613 16.4337 66.8591 16.1544 67.0547C15.8752 67.25 15.1398 67.762 14.5255 68.1995C13.5575 68.8977 13.362 69 13.0176 69C12.7291 69 12.5709 68.9441 12.394 68.7673C12.2544 68.637 12.1241 68.4043 12.0961 68.2554C12.0589 68.0879 12.0961 67.8552 12.1892 67.6689C12.273 67.5107 12.4778 67.2874 12.6453 67.1943C12.8035 67.0918 13.0455 66.9243 13.1758 66.8125C13.3062 66.7102 13.4365 66.6265 13.4737 66.6265C13.5109 66.6265 13.5947 66.5706 13.6599 66.5054C13.725 66.4402 14.0601 66.189 14.4138 65.947C14.8234 65.6584 15.0189 65.4722 14.9723 65.3884C14.9351 65.3328 14.6744 64.9417 14.3859 64.5322C14.0974 64.1226 13.39 63.1174 12.8035 62.2983C12.2264 61.4792 11.2212 60.0645 10.5789 59.1614C9.93671 58.2585 9.03381 56.9834 8.56842 56.3318C8.1123 55.6802 7.58179 54.9543 7.40491 54.7029C7.22809 54.4517 6.70679 53.7163 6.24139 53.0647C5.78534 52.4131 5.38507 51.8362 5.35718 51.7896C5.32922 51.7336 5.07794 51.3799 4.79871 51.0076C4.51947 50.6353 4.25885 50.3374 4.22162 50.3374C4.17505 50.3374 3.67242 50.6819 3.10461 51.1008C2.52753 51.5195 1.8667 51.9758 1.63397 52.1248C1.37335 52.2922 1.09412 52.3853 0.889343 52.3853C0.712463 52.3853 0.479797 52.3108 0.368103 52.2178C0.265686 52.134 0.126099 51.9106 0.0609131 51.7336C-0.0135498 51.5166 -0.0197144 51.3303 0.0422974 51.1753C0.0888672 51.0449 0.219177 50.8494 0.321533 50.7285C0.433228 50.6167 0.563538 50.5237 0.610107 50.5237C0.665955 50.5237 0.870728 50.384 1.06616 50.2166C1.27094 50.0583 1.77362 49.686 2.18317 49.4067C2.60199 49.1274 3.05811 48.8018 3.19769 48.6807C3.33734 48.5596 3.59796 48.3921 3.77478 48.2991C3.95166 48.2061 4.26813 48.0942 4.4729 48.0571C4.79871 48.0012 4.87317 48.0291 5.12445 48.2712C5.27338 48.4202 5.58057 48.8018 5.80396 49.1089C6.01801 49.4253 6.22278 49.686 6.26935 49.686C6.30658 49.686 6.67889 49.4438 7.09778 49.146C7.5166 48.8577 8.50323 48.1594 9.2851 47.5916C10.067 47.0332 11.2584 46.186 11.9193 45.7114C12.5801 45.2275 13.5947 44.5107 14.1532 44.1199C14.721 43.7195 15.3632 43.282 15.5959 43.1519C15.8286 43.0215 16.2475 42.8167 16.5267 42.7144C16.806 42.6025 17.3086 42.4629 17.6437 42.3884C17.9788 42.314 18.7327 42.2488 19.3191 42.2488Z" clip-rule="evenodd" fill="#234778" fill-opacity="1.000000" fill-rule="evenodd" mask="url(#mask_7_23)"/>
	<path id="Subtract" d="" fill="#000000" fill-opacity="0.000000" fill-rule="nonzero"/>
</svg>
