<svg width="60.000000" height="52.000000" viewBox="0 0 60 52" fill="none" xmlns="http://www.w3.org/2000/svg" xmlns:xlink="http://www.w3.org/1999/xlink">
	<desc>
			Created with Pixso.
	</desc>
	<defs/>
	<path id="Vector" d="M47.25 0.03C47.12 0 43.48 -0.01 29.49 0C15.98 0 11.86 0.01 11.74 0.04C11.65 0.06 11.51 0.13 11.42 0.19C11.34 0.26 11.19 0.4 11.11 0.52C11.02 0.64 8.54 4.02 5.6 8.04C2.66 12.05 0.2 15.4 0.15 15.49C0.1 15.58 0.03 15.73 0.01 15.82C-0.01 15.94 -0.01 16.05 0.01 16.18C0.03 16.29 0.09 16.44 0.14 16.52C0.2 16.6 2.15 18.96 4.48 21.77C6.8 24.58 11.39 30.12 14.67 34.07C17.95 38.03 22.56 43.59 24.91 46.43C27.26 49.28 29.25 51.66 29.33 51.73C29.41 51.8 29.52 51.89 29.59 51.92C29.66 51.95 29.82 51.98 29.95 51.99C30.16 52 30.22 51.99 30.39 51.92C30.49 51.87 30.63 51.79 30.69 51.73C30.74 51.68 36.57 44.66 43.63 36.14C49.82 28.66 55.62 21.67 57.59 19.29L58.18 18.58C59.46 17.03 59.9 16.47 59.94 16.36C59.97 16.27 60 16.1 60 15.98C60 15.83 59.97 15.7 59.93 15.61C59.9 15.53 57.13 12.05 53.78 7.86C49.85 2.96 47.65 0.22 47.56 0.17C47.49 0.12 47.35 0.06 47.25 0.03ZM24.62 8.02L28.24 2C17.03 2 13.78 2.01 13.78 2.02C13.78 2.03 15.39 4.72 17.35 7.99C19.32 11.27 20.95 13.97 20.97 13.99C21 14.03 21.82 12.68 24.62 8.02ZM38.54 2L31.76 2L31.81 2.08C31.84 2.12 33.46 4.81 35.4 8.05C37.34 11.28 38.95 13.93 38.96 13.92C38.97 13.92 40.41 11.24 42.16 7.97C43.9 4.7 45.33 2.02 45.33 2.01C45.33 2.01 42.28 2 38.54 2ZM15.56 8.9C13.56 5.56 11.92 2.84 11.9 2.84C11.89 2.84 11.85 2.88 11.82 2.93C11.78 2.98 10.45 4.81 8.85 6.99C7.25 9.17 5.95 10.97 5.95 10.98C5.95 11.01 6.48 11.02 7.47 11.02L9 11.02L9 12.99L4.44 13L2.96 15C15.55 15 19.21 14.99 19.21 14.98L19.21 14.98C19.21 14.97 17.56 12.23 15.56 8.9ZM50.49 6.95C48.73 4.76 47.27 2.93 47.24 2.89C47.2 2.84 47.18 2.84 47.15 2.88C47.13 2.9 45.97 5.09 44.45 7.92C44.27 8.26 44.09 8.6 43.9 8.95L40.69 14.99C46.96 15 50.61 15 52.85 15L56.92 14.99L55.33 13L50.01 12.99L50.01 11.02C53.05 11.02 53.69 11.01 53.69 10.98C53.69 10.97 52.25 9.15 50.49 6.95ZM33.62 8.97C31.64 5.67 30.02 2.97 30.01 2.97C30 2.97 28.37 5.67 26.39 8.97C24.41 12.27 22.79 14.98 22.79 14.99C22.79 15 26.04 15 30.01 15C33.97 15 37.22 15 37.22 14.99C37.22 14.98 35.6 12.27 33.62 8.97ZM46.02 11.02L46.02 12.99L48 12.99L48 11.02L46.02 11.02ZM20.26 17.15L20.23 17.02C3.47 17.02 3.12 17.02 3.18 17.08C3.21 17.11 5.84 20.29 9.03 24.14C11.33 26.91 14.09 30.24 16.12 32.7C16.91 33.65 17.59 34.47 18.1 35.08C19.14 36.33 20.56 38.05 21.92 39.7C22.91 40.88 23.86 42.03 24.61 42.94C26.41 45.1 27.88 46.86 27.88 46.86C27.89 46.86 27.79 46.45 27.67 45.96C27.58 45.62 26.9 42.96 25.99 39.41C25.63 38.01 25.23 36.47 24.82 34.89C23.38 29.28 21.77 23.03 21.25 20.98C21.15 20.59 21.05 20.21 20.96 19.85C20.57 18.34 20.28 17.21 20.26 17.15ZM37.69 17.11L37.7 17.02C25.77 17.02 22.31 17.03 22.31 17.04C22.31 17.06 23 19.74 23.83 23C24.11 24.1 24.5 25.59 24.93 27.27C25.78 30.58 26.82 34.63 27.67 37.9C28.94 42.84 29.98 46.89 29.99 46.9C30 46.91 30.01 46.91 30.02 46.9C30.03 46.89 31.25 42.17 32.73 36.41C34.21 30.65 35.92 23.98 36.54 21.57C37.16 19.17 37.67 17.16 37.69 17.11ZM56.55 17.41L56.87 17.02C40.22 17.02 39.79 17.02 39.77 17.08C39.76 17.1 39.71 17.28 39.64 17.56C39.59 17.76 39.53 18.01 39.46 18.28C39.35 18.71 38.58 21.69 37.54 25.74C37.05 27.65 36.49 29.81 35.92 32.04C34.13 38.99 32.55 45.15 32.4 45.74C32.25 46.33 32.13 46.82 32.14 46.83C32.15 46.84 32.18 46.83 32.2 46.8C32.23 46.77 34.52 44.01 37.29 40.66C38.54 39.15 40.32 37 42.25 34.67C44.61 31.83 47.18 28.72 49.28 26.19C50.01 25.3 50.73 24.44 51.4 23.62C54.25 20.19 56.41 17.58 56.55 17.41ZM7.32 19.57C7.38 19.52 7.72 19.23 8.09 18.93C8.63 18.48 8.78 18.37 8.81 18.41C8.83 18.43 11.07 21.13 13.79 24.39C16.51 27.66 18.74 30.35 18.74 30.36C18.74 30.38 18.4 30.68 17.99 31.02C17.28 31.61 17.23 31.64 17.17 31.59C17.14 31.55 14.89 28.85 7.23 19.65L7.32 19.57ZM5.98 31.03C6.08 31.02 6.25 31.05 6.34 31.08C6.46 31.12 6.58 31.2 6.69 31.31C6.82 31.43 6.89 31.55 6.93 31.66C6.95 31.76 7 32.04 7.02 32.29C7.04 32.54 7.08 32.83 7.11 32.95C7.14 33.06 7.2 33.25 7.24 33.38C7.29 33.5 7.37 33.69 7.42 33.8C7.47 33.9 7.59 34.1 7.68 34.23C7.76 34.36 7.95 34.6 8.09 34.75C8.24 34.9 8.47 35.11 8.61 35.21C8.76 35.32 9 35.47 9.15 35.55C9.3 35.63 9.58 35.75 9.76 35.81C9.94 35.86 10.19 35.93 10.31 35.95C10.44 35.97 10.7 35.99 10.9 36.01C11.17 36.03 11.31 36.06 11.42 36.11C11.51 36.16 11.64 36.25 11.71 36.32C11.78 36.39 11.87 36.53 11.91 36.62C11.96 36.73 11.98 36.87 11.98 37C11.99 37.15 11.96 37.27 11.9 37.4C11.86 37.5 11.76 37.64 11.7 37.71C11.63 37.78 11.5 37.87 11.41 37.91C11.27 37.97 11.12 38 10.78 38.02C10.54 38.04 10.2 38.09 10.04 38.14C9.87 38.18 9.63 38.25 9.5 38.31C9.36 38.36 9.14 38.47 9 38.56C8.86 38.64 8.62 38.8 8.47 38.93C8.31 39.05 8.09 39.26 7.98 39.39C7.87 39.53 7.72 39.72 7.65 39.83C7.58 39.93 7.46 40.16 7.38 40.33C7.3 40.5 7.19 40.79 7.14 40.97C7.09 41.17 7.04 41.48 7.02 41.77C6.99 42.12 6.96 42.28 6.9 42.41C6.86 42.51 6.76 42.65 6.69 42.72C6.61 42.8 6.48 42.89 6.4 42.93C6.29 42.98 6.16 43 6 43C5.83 43 5.71 42.98 5.6 42.93C5.51 42.89 5.38 42.8 5.31 42.72C5.23 42.65 5.13 42.51 5.09 42.41C5.03 42.28 5.01 42.12 4.98 41.77C4.95 41.51 4.91 41.18 4.87 41.04C4.83 40.9 4.77 40.7 4.73 40.6C4.69 40.5 4.61 40.31 4.54 40.18C4.48 40.05 4.35 39.83 4.25 39.7C4.15 39.56 3.94 39.32 3.79 39.17C3.63 39.01 3.38 38.8 3.22 38.7C3.07 38.6 2.85 38.47 2.74 38.41C2.62 38.36 2.38 38.26 2.19 38.2C2 38.14 1.71 38.08 1.51 38.06L1.49 38.06C1.3 38.04 1.05 38.01 0.9 37.99C0.68 37.96 0.59 37.93 0.45 37.84C0.36 37.78 0.23 37.65 0.17 37.56C0.1 37.46 0.04 37.3 0.02 37.19C0 37.07 0 36.94 0.02 36.84C0.04 36.75 0.08 36.61 0.12 36.54C0.16 36.47 0.24 36.36 0.3 36.3C0.36 36.24 0.48 36.16 0.57 36.11C0.69 36.06 0.82 36.03 1.09 36.01C1.29 35.99 1.56 35.97 1.68 35.95C1.81 35.93 2.04 35.87 2.22 35.81C2.39 35.76 2.63 35.66 2.76 35.6C2.88 35.54 3.09 35.41 3.22 35.32C3.36 35.24 3.59 35.05 3.74 34.9C3.89 34.76 4.08 34.55 4.16 34.45C4.25 34.34 4.39 34.12 4.47 33.98C4.55 33.83 4.67 33.6 4.72 33.47C4.77 33.33 4.84 33.11 4.87 32.96C4.91 32.82 4.96 32.51 4.98 32.27C5 32.03 5.04 31.76 5.07 31.66C5.11 31.55 5.18 31.43 5.3 31.31C5.41 31.21 5.54 31.12 5.63 31.08C5.72 31.05 5.88 31.03 5.98 31.03ZM19 32.03L18.3 32.72L19.29 33.71L20.7 32.3C19.94 31.55 19.72 31.33 19.71 31.33C19.7 31.33 19.38 31.65 19 32.03ZM6 35.33C6 35.34 6.02 35.36 6.05 35.41C6.1 35.46 6.16 35.54 6.23 35.63C6.34 35.8 6.59 36.08 6.77 36.26C6.96 36.44 7.23 36.68 7.68 37L7.43 37.19C7.29 37.3 7.02 37.53 6.84 37.71C6.65 37.9 6.41 38.16 6.3 38.3C6.24 38.37 6.18 38.45 6.13 38.51C6.09 38.57 6.06 38.61 6.05 38.62C6 38.69 5.99 38.68 5.81 38.44C5.7 38.3 5.48 38.04 5.3 37.86C5.13 37.68 4.87 37.44 4.72 37.32C4.64 37.26 4.57 37.2 4.51 37.16C4.45 37.11 4.4 37.07 4.38 37.05C4.32 37.01 4.33 37 4.58 36.81C4.73 36.71 5.02 36.46 5.22 36.26C5.42 36.06 5.67 35.77 5.79 35.61C5.9 35.46 6 35.33 6 35.33ZM51.45 39.12C51.36 39.07 51.22 39.05 51.05 39.04C50.9 39.03 50.74 39.05 50.67 39.07C50.6 39.1 50.49 39.16 50.43 39.21C50.36 39.26 50.27 39.34 50.23 39.4C50.19 39.45 50.13 39.56 50.1 39.64C50.06 39.72 50.02 39.94 50.01 40.16C49.99 40.37 49.95 40.66 49.92 40.82C49.89 40.97 49.83 41.19 49.8 41.3C49.75 41.42 49.66 41.64 49.57 41.8C49.49 41.97 49.35 42.2 49.27 42.32C49.18 42.45 49 42.66 48.88 42.79C48.74 42.92 48.52 43.12 48.38 43.22C48.24 43.33 48.01 43.48 47.88 43.54C47.74 43.61 47.53 43.71 47.41 43.76C47.29 43.8 47.07 43.86 46.94 43.9C46.81 43.93 46.48 43.97 46.21 44C45.83 44.04 45.69 44.06 45.56 44.13C45.47 44.18 45.35 44.26 45.3 44.32C45.24 44.38 45.16 44.49 45.11 44.58C45.05 44.7 45.04 44.79 45.04 45.01C45.04 45.24 45.05 45.32 45.12 45.46C45.17 45.55 45.28 45.69 45.36 45.76C45.45 45.84 45.59 45.92 45.68 45.95C45.76 45.97 45.98 46.01 46.16 46.02C46.34 46.03 46.64 46.07 46.82 46.11C47 46.14 47.29 46.22 47.46 46.29C47.64 46.36 47.88 46.48 48.02 46.56C48.15 46.64 48.35 46.77 48.45 46.85C48.55 46.93 48.76 47.12 48.9 47.27C49.04 47.42 49.23 47.65 49.32 47.78C49.41 47.92 49.54 48.14 49.6 48.27C49.67 48.4 49.76 48.64 49.81 48.79C49.86 48.94 49.92 49.16 49.94 49.28C49.96 49.39 49.99 49.66 50.01 49.86C50.03 50.12 50.06 50.3 50.11 50.42C50.15 50.52 50.24 50.65 50.31 50.72C50.38 50.79 50.52 50.88 50.62 50.93C50.75 50.98 50.85 51 51.03 51C51.22 50.99 51.32 50.97 51.46 50.9C51.56 50.86 51.69 50.76 51.76 50.67C51.82 50.59 51.9 50.46 51.93 50.39C51.96 50.32 52 50.07 52.02 49.82C52.04 49.57 52.09 49.23 52.14 49.03C52.19 48.84 52.29 48.55 52.36 48.39C52.43 48.23 52.57 47.99 52.65 47.85C52.74 47.72 52.9 47.51 53 47.4C53.1 47.28 53.26 47.12 53.36 47.03C53.45 46.95 53.64 46.8 53.77 46.71C53.9 46.62 54.12 46.49 54.24 46.43C54.36 46.37 54.58 46.28 54.73 46.23C54.87 46.18 55.12 46.12 55.3 46.09C55.47 46.06 55.77 46.02 55.96 46.01C56.15 45.99 56.36 45.95 56.42 45.92C56.49 45.89 56.6 45.81 56.68 45.75C56.75 45.69 56.85 45.55 56.91 45.44C56.98 45.29 57 45.21 57 45.01C57 44.84 56.97 44.72 56.92 44.61C56.89 44.53 56.8 44.4 56.73 44.33C56.66 44.26 56.53 44.16 56.45 44.12C56.34 44.06 56.18 44.03 55.8 44C55.52 43.97 55.16 43.92 54.97 43.87C54.79 43.82 54.5 43.71 54.33 43.63C54.15 43.55 53.89 43.4 53.74 43.29C53.59 43.19 53.35 42.99 53.2 42.84C53.06 42.7 52.87 42.48 52.78 42.36C52.69 42.23 52.56 42.03 52.5 41.91C52.43 41.78 52.33 41.57 52.28 41.44C52.23 41.31 52.16 41.07 52.12 40.92C52.09 40.77 52.04 40.44 52.02 40.19C52 39.9 51.96 39.69 51.92 39.6C51.89 39.53 51.8 39.4 51.72 39.32C51.65 39.25 51.53 39.16 51.45 39.12ZM51.07 43.42L51 43.33L50.82 43.58C50.73 43.72 50.48 44 50.27 44.22C50.06 44.43 49.76 44.69 49.6 44.81L49.32 45.01C49.73 45.31 50.02 45.56 50.22 45.76C50.42 45.96 50.68 46.25 50.8 46.41L51.02 46.69C51.32 46.28 51.54 46.03 51.7 45.86C51.85 45.7 52.11 45.47 52.26 45.34C52.42 45.22 52.58 45.09 52.62 45.06C52.68 45.01 52.68 45 52.43 44.82C52.29 44.72 52.03 44.49 51.85 44.31C51.67 44.14 51.43 43.88 51.33 43.75C51.22 43.61 51.11 43.46 51.07 43.42Z" fill="#234778" fill-opacity="1.000000" fill-rule="evenodd"/>
	<path id="Vector" d="M47.25 0.03C47.35 0.06 47.49 0.12 47.56 0.17C47.65 0.22 49.85 2.96 53.78 7.86C57.13 12.05 59.9 15.53 59.93 15.61C59.97 15.7 60 15.83 60 15.98C60 16.1 59.97 16.27 59.94 16.36C59.9 16.47 59.46 17.03 58.18 18.58L57.59 19.29C55.62 21.67 49.82 28.66 43.63 36.14C36.57 44.66 30.74 51.68 30.69 51.73C30.63 51.79 30.49 51.87 30.39 51.92C30.22 51.99 30.16 52 29.95 51.99C29.82 51.98 29.66 51.95 29.59 51.92C29.52 51.89 29.41 51.8 29.33 51.73C29.25 51.66 27.26 49.28 24.91 46.43C22.56 43.59 17.95 38.03 14.67 34.07C11.39 30.12 6.8 24.58 4.48 21.77C2.15 18.96 0.2 16.6 0.14 16.52C0.09 16.44 0.03 16.29 0.01 16.18C-0.01 16.05 -0.01 15.94 0.01 15.82C0.03 15.73 0.1 15.58 0.15 15.49C0.2 15.4 2.66 12.05 5.6 8.04C8.54 4.02 11.02 0.64 11.11 0.52C11.19 0.4 11.34 0.26 11.42 0.19C11.51 0.13 11.65 0.06 11.74 0.04C11.86 0.01 15.98 0 29.49 0C43.48 -0.01 47.12 0 47.25 0.03ZM6.34 31.08C6.46 31.12 6.58 31.2 6.69 31.31C6.82 31.43 6.89 31.55 6.93 31.66C6.95 31.76 7 32.04 7.02 32.29C7.04 32.54 7.08 32.83 7.11 32.95C7.14 33.06 7.2 33.25 7.24 33.38C7.29 33.5 7.37 33.69 7.42 33.8C7.47 33.9 7.59 34.1 7.68 34.23C7.76 34.36 7.95 34.6 8.09 34.75C8.24 34.9 8.47 35.11 8.61 35.21C8.76 35.32 9 35.47 9.15 35.55C9.3 35.63 9.58 35.75 9.76 35.81C9.94 35.86 10.19 35.93 10.31 35.95C10.44 35.97 10.7 35.99 10.9 36.01C11.17 36.03 11.31 36.06 11.42 36.11C11.51 36.16 11.64 36.25 11.71 36.32C11.78 36.39 11.87 36.53 11.91 36.62C11.96 36.73 11.98 36.87 11.98 37C11.99 37.15 11.96 37.27 11.9 37.4C11.86 37.5 11.76 37.64 11.7 37.71C11.63 37.78 11.5 37.87 11.41 37.91C11.27 37.97 11.12 38 10.78 38.02C10.54 38.04 10.2 38.09 10.04 38.14C9.87 38.18 9.63 38.25 9.5 38.31C9.36 38.36 9.14 38.47 9 38.56C8.86 38.64 8.62 38.8 8.47 38.93C8.31 39.05 8.09 39.26 7.98 39.39C7.87 39.53 7.72 39.72 7.65 39.83C7.58 39.93 7.46 40.16 7.38 40.33C7.3 40.5 7.19 40.79 7.14 40.97C7.09 41.17 7.04 41.48 7.02 41.77C6.99 42.12 6.96 42.28 6.9 42.41C6.86 42.51 6.76 42.65 6.69 42.72C6.61 42.8 6.48 42.89 6.4 42.93C6.29 42.98 6.16 43 6 43C5.83 43 5.71 42.98 5.6 42.93C5.51 42.89 5.38 42.8 5.31 42.72C5.23 42.65 5.13 42.51 5.09 42.41C5.03 42.28 5.01 42.12 4.98 41.77C4.95 41.51 4.91 41.18 4.87 41.04C4.83 40.9 4.77 40.7 4.73 40.6C4.69 40.5 4.61 40.31 4.54 40.18C4.48 40.05 4.35 39.83 4.25 39.7C4.15 39.56 3.94 39.32 3.79 39.17C3.63 39.01 3.38 38.8 3.22 38.7C3.07 38.6 2.85 38.47 2.74 38.41C2.62 38.36 2.38 38.26 2.19 38.2C2 38.14 1.71 38.08 1.51 38.06L1.49 38.06C1.3 38.04 1.05 38.01 0.9 37.99C0.68 37.96 0.59 37.93 0.45 37.84C0.36 37.78 0.23 37.65 0.17 37.56C0.1 37.46 0.04 37.3 0.02 37.19C0 37.07 0 36.94 0.02 36.84C0.04 36.75 0.08 36.61 0.12 36.54C0.16 36.47 0.24 36.36 0.3 36.3C0.36 36.24 0.48 36.16 0.57 36.11C0.69 36.06 0.82 36.03 1.09 36.01C1.29 35.99 1.56 35.97 1.68 35.95C1.81 35.93 2.04 35.87 2.22 35.81C2.39 35.76 2.63 35.66 2.76 35.6C2.88 35.54 3.09 35.41 3.22 35.32C3.36 35.24 3.59 35.05 3.74 34.9C3.89 34.76 4.08 34.55 4.16 34.45C4.25 34.34 4.39 34.12 4.47 33.98C4.55 33.83 4.67 33.6 4.72 33.47C4.77 33.33 4.84 33.11 4.87 32.96C4.91 32.82 4.96 32.51 4.98 32.27C5 32.03 5.04 31.76 5.07 31.66C5.11 31.55 5.18 31.43 5.3 31.31C5.41 31.21 5.54 31.12 5.63 31.08C5.72 31.05 5.88 31.03 5.98 31.03C6.08 31.02 6.25 31.05 6.34 31.08ZM51.45 39.12C51.53 39.16 51.65 39.25 51.72 39.32C51.8 39.4 51.89 39.53 51.92 39.6C51.96 39.69 52 39.9 52.02 40.19C52.04 40.44 52.09 40.77 52.12 40.92C52.16 41.07 52.23 41.31 52.28 41.44C52.33 41.57 52.43 41.78 52.5 41.91C52.56 42.03 52.69 42.23 52.78 42.36C52.87 42.48 53.06 42.7 53.2 42.84C53.35 42.99 53.59 43.19 53.74 43.29C53.89 43.4 54.15 43.55 54.33 43.63C54.5 43.71 54.79 43.82 54.97 43.87C55.16 43.92 55.52 43.97 55.8 44C56.18 44.03 56.34 44.06 56.45 44.12C56.53 44.16 56.66 44.26 56.73 44.33C56.8 44.4 56.89 44.53 56.92 44.61C56.97 44.72 57 44.84 57 45.01C57 45.21 56.98 45.29 56.91 45.44C56.85 45.55 56.75 45.69 56.68 45.75C56.6 45.81 56.49 45.89 56.42 45.92C56.36 45.95 56.15 45.99 55.96 46.01C55.77 46.02 55.47 46.06 55.3 46.09C55.12 46.12 54.87 46.18 54.73 46.23C54.58 46.28 54.36 46.37 54.24 46.43C54.12 46.49 53.9 46.62 53.77 46.71C53.64 46.8 53.45 46.95 53.36 47.03C53.26 47.12 53.1 47.28 53 47.4C52.9 47.51 52.74 47.72 52.65 47.85C52.57 47.99 52.43 48.23 52.36 48.39C52.29 48.55 52.19 48.84 52.14 49.03C52.09 49.23 52.04 49.57 52.02 49.82C52 50.07 51.96 50.32 51.93 50.39C51.9 50.46 51.82 50.59 51.76 50.67C51.69 50.76 51.56 50.86 51.46 50.9C51.32 50.97 51.22 50.99 51.03 51C50.85 51 50.75 50.98 50.62 50.93C50.52 50.88 50.38 50.79 50.31 50.72C50.24 50.65 50.15 50.52 50.11 50.42C50.06 50.3 50.03 50.12 50.01 49.86C49.99 49.66 49.96 49.39 49.94 49.28C49.92 49.16 49.86 48.94 49.81 48.79C49.76 48.64 49.67 48.4 49.6 48.27C49.54 48.14 49.41 47.92 49.32 47.78C49.23 47.65 49.04 47.42 48.9 47.27C48.76 47.12 48.55 46.93 48.45 46.85C48.35 46.77 48.15 46.64 48.02 46.56C47.88 46.48 47.64 46.36 47.46 46.29C47.29 46.22 47 46.14 46.82 46.11C46.64 46.07 46.34 46.03 46.16 46.02C45.98 46.01 45.76 45.97 45.68 45.95C45.59 45.92 45.45 45.84 45.36 45.76C45.28 45.69 45.17 45.55 45.12 45.46C45.05 45.32 45.04 45.24 45.04 45.01C45.04 44.79 45.05 44.7 45.11 44.58C45.16 44.49 45.24 44.38 45.3 44.32C45.35 44.26 45.47 44.18 45.56 44.13C45.69 44.06 45.83 44.04 46.21 44C46.48 43.97 46.81 43.93 46.94 43.9C47.07 43.86 47.29 43.8 47.41 43.76C47.53 43.71 47.74 43.61 47.88 43.54C48.01 43.48 48.24 43.33 48.38 43.22C48.52 43.12 48.74 42.92 48.88 42.79C49 42.66 49.18 42.45 49.27 42.32C49.35 42.2 49.49 41.97 49.57 41.8C49.66 41.64 49.75 41.42 49.8 41.3C49.83 41.19 49.89 40.97 49.92 40.82C49.95 40.66 49.99 40.37 50.01 40.16C50.02 39.94 50.06 39.72 50.1 39.64C50.13 39.56 50.19 39.45 50.23 39.4C50.27 39.34 50.36 39.26 50.43 39.21C50.49 39.16 50.6 39.1 50.67 39.07C50.74 39.05 50.9 39.03 51.05 39.04C51.22 39.05 51.36 39.07 51.45 39.12ZM24.62 8.02C21.82 12.68 21 14.03 20.97 13.99C20.95 13.97 19.32 11.27 17.35 7.99C15.39 4.72 13.78 2.03 13.78 2.02C13.78 2.01 17.03 2 28.24 2L24.62 8.02ZM38.54 2C42.28 2 45.33 2.01 45.33 2.01C45.33 2.02 43.9 4.7 42.16 7.97C40.41 11.24 38.97 13.92 38.96 13.92C38.95 13.93 37.34 11.28 35.4 8.05C33.46 4.81 31.84 2.12 31.81 2.08L31.76 2L38.54 2ZM15.56 8.9C17.56 12.23 19.21 14.97 19.21 14.98C19.22 14.99 15.57 15 2.96 15L4.44 13L9 12.99L9 11.02L7.47 11.02C6.48 11.02 5.95 11.01 5.95 10.98C5.95 10.97 7.25 9.17 8.85 6.99C10.45 4.81 11.78 2.98 11.82 2.93C11.85 2.88 11.89 2.84 11.9 2.84C11.92 2.84 13.56 5.56 15.56 8.9ZM50.49 6.95C52.25 9.15 53.69 10.97 53.69 10.98C53.69 11.01 53.05 11.02 50.01 11.02L50.01 12.99L55.33 13L56.92 14.99L52.85 15C50.61 15 46.96 15 40.69 14.99L43.9 8.95C44.09 8.6 44.27 8.26 44.45 7.92C45.97 5.09 47.13 2.9 47.15 2.88C47.18 2.84 47.2 2.84 47.24 2.89C47.27 2.93 48.73 4.76 50.49 6.95ZM33.62 8.97C35.6 12.27 37.22 14.98 37.22 14.99C37.22 15 33.97 15 30.01 15C26.04 15 22.79 15 22.79 14.99C22.79 14.98 24.41 12.27 26.39 8.97C28.37 5.67 30 2.97 30.01 2.97C30.02 2.97 31.64 5.67 33.62 8.97ZM20.26 17.15C20.28 17.21 20.57 18.34 20.96 19.85C21.05 20.21 21.15 20.59 21.25 20.98C21.77 23.03 23.38 29.28 24.82 34.89C25.23 36.47 25.63 38.01 25.99 39.41C26.9 42.96 27.58 45.62 27.67 45.96C27.79 46.45 27.89 46.86 27.88 46.86C27.88 46.87 26.41 45.1 24.61 42.94C23.86 42.03 22.91 40.88 21.92 39.7C20.56 38.05 19.14 36.33 18.1 35.08C17.59 34.47 16.91 33.65 16.12 32.7C14.09 30.24 11.33 26.91 9.03 24.14C5.84 20.29 3.21 17.11 3.18 17.08C3.12 17.02 3.47 17.02 20.23 17.02L20.26 17.15ZM37.69 17.11C37.67 17.16 37.16 19.17 36.54 21.57C35.92 23.98 34.21 30.65 32.73 36.41C31.25 42.17 30.03 46.89 30.02 46.9C30.01 46.91 30 46.91 29.99 46.9C29.98 46.89 28.94 42.84 27.67 37.9C26.82 34.63 25.78 30.58 24.93 27.27C24.5 25.59 24.11 24.1 23.83 23C23 19.74 22.31 17.06 22.31 17.04C22.31 17.03 25.77 17.02 37.7 17.02L37.69 17.11ZM56.55 17.41C56.41 17.58 54.25 20.19 51.4 23.62C50.73 24.44 50.01 25.3 49.28 26.19C47.18 28.72 44.61 31.83 42.25 34.67C40.32 37 38.54 39.15 37.29 40.66C34.52 44.01 32.23 46.77 32.2 46.8C32.18 46.83 32.15 46.84 32.14 46.83C32.13 46.82 32.25 46.33 32.4 45.74C32.55 45.15 34.13 38.99 35.92 32.04C36.49 29.81 37.05 27.65 37.54 25.74C38.58 21.69 39.35 18.71 39.46 18.28C39.53 18.01 39.59 17.76 39.64 17.56C39.71 17.28 39.76 17.1 39.77 17.08C39.79 17.02 40.22 17.02 56.87 17.02L56.55 17.41ZM6.05 35.41C6.1 35.46 6.16 35.54 6.23 35.63C6.34 35.8 6.59 36.08 6.77 36.26C6.96 36.44 7.23 36.68 7.68 37L7.43 37.19C7.29 37.3 7.02 37.53 6.84 37.71C6.65 37.9 6.41 38.16 6.3 38.3C6.24 38.37 6.18 38.45 6.13 38.51C6.09 38.57 6.06 38.61 6.05 38.62C6 38.69 5.99 38.68 5.81 38.44C5.7 38.3 5.48 38.04 5.3 37.86C5.13 37.68 4.87 37.44 4.72 37.32C4.64 37.26 4.57 37.2 4.51 37.16C4.45 37.11 4.4 37.07 4.38 37.05C4.32 37.01 4.33 37 4.58 36.81C4.73 36.71 5.02 36.46 5.22 36.26C5.42 36.06 5.67 35.77 5.79 35.61C5.9 35.46 6 35.33 6 35.33C6 35.34 6.02 35.36 6.05 35.41ZM51.07 43.42C51.11 43.46 51.22 43.61 51.33 43.75C51.43 43.88 51.67 44.14 51.85 44.31C52.03 44.49 52.29 44.72 52.43 44.82C52.68 45 52.68 45.01 52.62 45.06C52.58 45.09 52.42 45.22 52.26 45.34C52.11 45.47 51.85 45.7 51.7 45.86C51.54 46.03 51.32 46.28 51.02 46.69L50.8 46.41C50.68 46.25 50.42 45.96 50.22 45.76C50.02 45.56 49.73 45.31 49.32 45.01L49.6 44.81C49.76 44.69 50.06 44.43 50.27 44.22C50.48 44 50.73 43.72 50.82 43.58L51 43.33L51.07 43.42ZM48 11.02L48 12.99L46.02 12.99L46.02 11.02L48 11.02ZM8.09 18.93C8.63 18.48 8.78 18.37 8.81 18.41C8.83 18.43 11.07 21.13 13.79 24.39C16.51 27.66 18.74 30.35 18.74 30.36C18.74 30.38 18.4 30.68 17.99 31.02C17.28 31.61 17.23 31.64 17.17 31.59C17.14 31.55 14.89 28.85 7.23 19.65L7.32 19.57C7.38 19.52 7.72 19.23 8.09 18.93ZM19 32.03C19.38 31.65 19.7 31.33 19.71 31.33C19.72 31.33 19.94 31.55 20.7 32.3L19.29 33.71L18.3 32.72L19 32.03Z" stroke="#000000" stroke-opacity="0" stroke-width="0.034670"/>
</svg>
