<svg width="71.101410" height="61.000000" viewBox="0 0 71.1014 61" fill="none" xmlns="http://www.w3.org/2000/svg" xmlns:xlink="http://www.w3.org/1999/xlink">
	<desc>
			Created with Pixso.
	</desc>
	<defs/>
	<path id="Vector" d="M54.99 0.19C54.77 0.38 54.7 0.67 54.45 2.65C54.22 4.4 54.16 5.24 54.21 6.45C54.24 7.67 54.3 8.14 54.5 8.64C54.63 8.98 54.95 9.58 55.19 9.96C55.44 10.34 56.1 11.17 56.65 11.81C57.2 12.44 58.07 13.58 58.58 14.34C59.08 15.1 59.8 16.35 60.17 17.11C60.53 17.87 61.03 19.01 61.26 19.64C61.49 20.27 61.86 21.46 62.07 22.29C62.27 23.11 62.54 24.41 62.65 25.17C62.8 26.16 62.86 27.23 62.86 28.97C62.86 30.7 62.8 31.77 62.67 32.72C62.55 33.44 62.32 34.61 62.16 35.31C62 36.01 61.66 37.18 61.41 37.9C61.17 38.63 60.63 39.93 60.21 40.78C59.8 41.64 59.22 42.73 58.93 43.2C58.63 43.68 57.95 44.67 57.41 45.39C56.87 46.12 55.93 47.24 55.33 47.86C54.73 48.49 53.79 49.37 53.25 49.82C52.71 50.27 51.78 50.98 51.18 51.4C50.58 51.82 49.51 52.48 48.82 52.86C48.11 53.25 47.01 53.79 46.34 54.07C45.67 54.36 44.61 54.75 43.98 54.95C43.34 55.15 42.22 55.45 41.5 55.6C40.76 55.76 40.08 55.98 39.97 56.09C39.85 56.2 39.76 56.44 39.77 56.65C39.77 56.89 39.86 57.12 40.02 57.27C40.25 57.49 40.37 57.52 40.87 57.45C41.18 57.4 41.86 57.26 42.36 57.13C42.87 57.01 43.28 56.93 43.3 56.94C43.3 56.96 43.44 57.18 43.64 57.48C43.7 57.58 43.76 57.68 43.83 57.78C44.11 58.23 44.6 58.81 44.89 59.07C45.17 59.35 45.7 59.75 46.05 59.97C46.4 60.19 47.09 60.51 47.57 60.67C48.29 60.91 48.7 60.98 49.56 60.98C50.24 60.98 50.95 60.91 51.41 60.8C51.82 60.68 52.62 60.37 53.19 60.1C53.76 59.82 54.54 59.36 54.92 59.08C55.3 58.79 55.83 58.32 56.1 58.02C56.37 57.73 56.59 57.4 56.59 57.28C56.6 57.18 56.51 56.97 56.4 56.82C56.28 56.69 55.57 56.27 54.81 55.93C54.05 55.57 52.88 55.05 52.21 54.77C51.55 54.5 50.83 54.24 50.62 54.21C50.43 54.17 50.26 54.12 50.26 54.06C50.27 54.01 50.9 53.57 51.67 53.08L53.08 52.18C54.06 52.89 54.63 53.23 54.98 53.39C55.33 53.55 55.93 53.76 56.31 53.86C56.69 53.95 57.43 54.04 57.98 54.04C58.52 54.04 59.24 53.95 59.59 53.86C59.93 53.77 60.58 53.52 61.03 53.3C61.55 53.04 62.17 52.6 62.76 52.05C63.26 51.58 63.94 50.81 64.28 50.34C64.6 49.86 65.04 49.13 65.25 48.68C65.53 48.04 65.59 47.81 65.51 47.58C65.45 47.43 65.28 47.24 65.12 47.17C64.95 47.08 63.8 46.96 62.3 46.89C60.78 46.81 59.49 46.79 59.08 46.85L58.4 46.95C59.79 44.98 60.22 44.35 60.26 44.25C60.33 44.13 60.51 44.14 61.38 44.3C62.11 44.45 62.7 44.48 63.39 44.44C63.93 44.4 64.66 44.28 65 44.15C65.35 44.02 65.93 43.78 66.27 43.61C66.64 43.42 67.26 42.93 67.77 42.41C68.35 41.83 68.78 41.26 69.06 40.73C69.29 40.28 69.59 39.59 69.73 39.17C69.86 38.76 70.04 37.93 70.13 37.33C70.22 36.73 70.31 36.03 70.31 35.77C70.32 35.48 70.22 35.2 70.07 34.99C69.95 34.82 69.74 34.68 69.61 34.68C69.49 34.68 68.57 34.97 67.56 35.32C66.57 35.68 65.26 36.2 64.66 36.48C64.06 36.75 63.55 36.97 63.54 36.96C63.53 36.94 63.63 36.41 63.78 35.77C63.9 35.28 64.02 34.73 64.1 34.39L64.1 34.39C64.12 34.29 64.14 34.22 64.15 34.16C64.26 33.72 64.28 33.7 64.77 33.63C65.06 33.58 65.6 33.47 65.98 33.35C66.36 33.25 67.03 32.97 67.48 32.74C67.97 32.49 68.59 32.02 69.05 31.57C69.59 31.03 69.94 30.55 70.28 29.84C70.6 29.2 70.84 28.51 70.95 27.88C71.09 27.19 71.12 26.58 71.08 25.81C71.04 25.21 70.87 24.2 70.71 23.58C70.55 22.97 70.34 22.31 70.25 22.12C70.16 21.92 69.94 21.72 69.75 21.66C69.58 21.59 69.34 21.58 69.21 21.62C69.08 21.66 68.23 22.38 67.31 23.21C66.39 24.04 65.36 25.02 65.03 25.38L64.43 26.04C64.33 25.18 64.2 24.42 64.08 23.79C63.97 23.16 63.89 22.64 63.9 22.64C63.9 22.64 64.29 22.37 64.76 22.06C65.24 21.74 65.88 21.2 66.2 20.84C66.53 20.48 66.99 19.81 67.23 19.34C67.46 18.87 67.75 18.1 67.84 17.62C67.97 17.05 68 16.46 67.97 15.84C67.93 15.33 67.78 14.55 67.64 14.11C67.51 13.67 67.24 12.99 67.06 12.61C66.86 12.23 66.46 11.59 66.16 11.17C65.86 10.76 65.32 10.15 64.96 9.81C64.59 9.47 64.2 9.21 64.05 9.21C63.91 9.2 63.68 9.29 63.54 9.41C63.4 9.52 62.92 10.53 62.44 11.69C61.95 12.83 61.47 14.09 61.35 14.48C61.24 14.88 61.11 15.2 61.05 15.2C61.01 15.2 60.95 15.11 60.91 15C60.89 14.89 60.52 14.27 60.11 13.61L59.36 12.44C60.25 11.15 60.63 10.43 60.79 10.02C60.94 9.6 61.12 8.88 61.19 8.41C61.26 7.88 61.27 7.28 61.21 6.85C61.16 6.47 61.05 5.93 60.97 5.64C60.89 5.35 60.68 4.83 60.51 4.49C60.34 4.14 59.93 3.52 59.64 3.12C59.32 2.7 58.71 2.07 58.26 1.69C57.81 1.32 57.07 0.78 56.59 0.5C56.12 0.23 55.61 0 55.49 0C55.35 0 55.13 0.09 54.99 0.19ZM14.31 0.58C13.68 0.97 12.92 1.59 12.23 2.29C11.39 3.14 11.01 3.61 10.65 4.32C10.39 4.82 10.09 5.57 10 5.99C9.89 6.4 9.81 7.1 9.81 7.54C9.81 7.98 9.89 8.68 10 9.1C10.09 9.51 10.32 10.16 10.5 10.54C10.68 10.92 11.01 11.47 11.24 11.77C11.47 12.08 11.66 12.37 11.66 12.44C11.66 12.51 11.46 12.85 11.22 13.21C10.98 13.58 10.6 14.18 10.38 14.54C10.16 14.91 9.95 15.16 9.92 15.11C9.88 15.07 9.77 14.72 9.65 14.34C9.54 13.96 9.05 12.72 8.56 11.59C8.05 10.39 7.59 9.45 7.45 9.36C7.32 9.28 7.09 9.21 6.93 9.21C6.72 9.21 6.42 9.44 5.89 10C5.48 10.42 4.87 11.18 4.53 11.69C4.2 12.2 3.77 13.04 3.59 13.56C3.39 14.09 3.19 14.89 3.13 15.34C3.05 15.94 3.05 16.46 3.14 17.11C3.21 17.61 3.36 18.28 3.49 18.6C3.6 18.91 3.91 19.51 4.18 19.93C4.44 20.34 4.9 20.91 5.2 21.2C5.49 21.48 6.04 21.92 6.41 22.16C6.79 22.42 7.12 22.63 7.14 22.63C7.15 22.64 7.06 23.19 6.93 23.87C6.8 24.56 6.7 25.3 6.7 25.52C6.7 25.74 6.64 25.92 6.59 25.92C6.53 25.92 6.27 25.68 6.03 25.39C5.8 25.1 4.81 24.16 3.84 23.29C2.86 22.43 1.94 21.68 1.79 21.62C1.62 21.58 1.41 21.6 1.23 21.72C1.07 21.81 0.86 22.08 0.76 22.31C0.65 22.56 0.44 23.25 0.28 23.85C0.06 24.68 0 25.25 0 26.21C0 27 0.06 27.78 0.18 28.28C0.28 28.73 0.53 29.4 0.72 29.78C0.92 30.16 1.26 30.73 1.49 31.03C1.72 31.34 2.25 31.84 2.67 32.15C3.08 32.48 3.81 32.89 4.28 33.08C4.75 33.27 5.53 33.49 5.99 33.57C6.68 33.68 6.84 33.74 6.87 33.93C6.89 34 6.95 34.25 7.01 34.57L7.01 34.57C7.06 34.79 7.12 35.05 7.17 35.31C7.31 35.95 7.46 36.58 7.52 36.72C7.58 36.87 7.6 36.98 7.57 36.98C7.53 36.98 7.21 36.83 6.84 36.65C6.48 36.46 5.48 36.06 4.63 35.74C3.77 35.43 2.73 35.05 2.31 34.9C1.65 34.65 1.49 34.64 1.24 34.76C1.08 34.84 0.89 35.02 0.84 35.16C0.77 35.32 0.78 35.89 0.85 36.64C0.91 37.3 1.09 38.28 1.25 38.83C1.4 39.37 1.75 40.22 2.01 40.73C2.33 41.36 2.75 41.9 3.3 42.47C3.88 43.04 4.36 43.4 4.97 43.7C5.45 43.94 6.19 44.21 6.64 44.3C7.08 44.39 7.74 44.47 8.08 44.47C8.43 44.47 9.01 44.43 9.35 44.37C9.7 44.3 10.13 44.22 10.33 44.18C10.66 44.11 10.71 44.15 11.48 45.28C11.92 45.92 12.37 46.56 12.46 46.68C12.64 46.9 12.61 46.9 11.66 46.83C11.11 46.8 9.59 46.83 8.26 46.93C6.14 47.08 5.81 47.12 5.69 47.31C5.61 47.43 5.55 47.66 5.55 47.84C5.55 48.02 5.71 48.48 5.91 48.87C6.1 49.28 6.54 49.98 6.86 50.45C7.19 50.92 7.8 51.62 8.21 52.01C8.63 52.4 9.25 52.88 9.59 53.08C9.94 53.29 10.53 53.56 10.91 53.7C11.39 53.87 11.97 53.97 12.81 54C13.72 54.05 14.2 54.01 14.77 53.86C15.18 53.76 15.83 53.51 16.21 53.32C16.59 53.13 17.14 52.79 17.45 52.58L17.99 52.19C19.73 53.32 20.36 53.71 20.51 53.79C20.64 53.86 20.76 53.95 20.76 54C20.76 54.06 20.52 54.16 20.22 54.24C19.91 54.32 18.96 54.7 18.11 55.08C17.26 55.46 16.11 55.99 15.57 56.26L14.59 56.74C14.54 57.71 14.56 57.75 15.31 58.39C15.75 58.75 16.32 59.21 16.61 59.4C16.9 59.6 17.45 59.92 17.84 60.13C18.25 60.33 18.97 60.6 19.46 60.73C20.03 60.89 20.71 60.98 21.33 61C21.88 61 22.6 60.93 22.95 60.85C23.29 60.76 23.96 60.52 24.41 60.3C24.96 60.05 25.53 59.66 26.02 59.17C26.46 58.78 27.04 58.1 27.33 57.68C27.7 57.13 27.89 56.93 28.02 56.97C28.11 57.01 28.74 57.16 29.43 57.3C30.37 57.49 30.71 57.52 30.88 57.42C30.98 57.35 31.14 57.17 31.23 57.02C31.32 56.86 31.36 56.62 31.31 56.42C31.28 56.25 31.14 56.05 31.01 55.99C30.89 55.94 30.2 55.75 29.48 55.59C28.78 55.43 27.49 55.06 26.64 54.77C25.78 54.48 24.41 53.93 23.58 53.53C22.75 53.14 21.61 52.51 21.05 52.17C20.48 51.81 19.58 51.21 19.05 50.82C18.53 50.43 17.6 49.67 16.99 49.1C16.38 48.55 15.39 47.54 14.79 46.83C14.19 46.13 13.27 44.92 12.75 44.13C12.22 43.33 11.51 42.14 11.17 41.48C10.83 40.81 10.33 39.72 10.07 39.06C9.81 38.39 9.42 37.22 9.2 36.46C8.98 35.7 8.68 34.44 8.54 33.64C8.35 32.57 8.27 31.56 8.23 29.72C8.19 28.18 8.22 26.78 8.3 26.04C8.38 25.37 8.58 24.18 8.74 23.39C8.9 22.59 9.26 21.24 9.55 20.39C9.82 19.54 10.41 18.11 10.84 17.22C11.28 16.33 12.05 14.99 12.55 14.23C13.07 13.46 13.96 12.3 14.54 11.63C15.11 10.96 15.79 10.09 16.03 9.67C16.28 9.26 16.56 8.64 16.67 8.29C16.77 7.95 16.89 7.22 16.92 6.68C16.97 5.96 16.9 5.01 16.67 3.16C16.45 1.32 16.31 0.55 16.16 0.34C16.03 0.17 15.82 0.04 15.62 0.02C15.38 0 15.01 0.16 14.31 0.58ZM56.09 2.73C56.05 2.97 55.97 3.81 55.9 4.6C55.83 5.4 55.81 6.36 55.84 6.74C55.88 7.12 55.99 7.71 56.09 8.06C56.19 8.41 56.47 9.03 56.72 9.44C56.96 9.86 57.38 10.42 57.63 10.71L58.09 11.23C58.54 10.69 58.85 10.17 59.07 9.73C59.29 9.29 59.53 8.61 59.6 8.23C59.67 7.85 59.69 7.28 59.65 6.97C59.6 6.64 59.47 6.12 59.35 5.81C59.23 5.49 58.86 4.89 58.55 4.45C58.23 4.03 57.6 3.37 57.14 2.99C56.69 2.61 56.27 2.3 56.24 2.3C56.19 2.3 56.13 2.5 56.09 2.73ZM14.25 2.74C13.93 2.98 13.36 3.52 12.98 3.92C12.59 4.34 12.11 5.01 11.89 5.47C11.51 6.23 11.48 6.33 11.48 7.5C11.48 8.71 11.48 8.73 11.97 9.69C12.23 10.22 12.59 10.77 12.75 10.92L13.04 11.17C13.96 10.05 14.4 9.36 14.62 8.92C14.82 8.49 15.04 7.83 15.11 7.48C15.18 7.14 15.23 6.51 15.23 6.07C15.23 5.64 15.17 4.66 15.1 3.89C15.03 3.11 14.94 2.43 14.89 2.38C14.85 2.33 14.56 2.5 14.25 2.74ZM26.9 13.5C24.46 14.35 22.06 15.19 20.94 15.57C19.06 16.23 18.13 16.6 18.03 16.76C17.89 16.96 17.88 17.83 17.92 21.77C17.96 25.36 18.02 26.89 18.15 27.88C18.26 28.61 18.48 29.8 18.64 30.53C18.8 31.26 19.17 32.56 19.44 33.41C19.73 34.26 20.29 35.65 20.7 36.46C21.1 37.28 21.78 38.5 22.22 39.17C22.66 39.84 23.44 40.9 23.95 41.53C24.46 42.17 25.47 43.26 26.19 43.96C26.91 44.66 28.04 45.67 28.71 46.2C29.38 46.72 30.56 47.58 31.36 48.1C32.15 48.63 33.36 49.38 34.07 49.77C35.06 50.33 35.4 50.46 35.65 50.42C35.83 50.38 36.48 50.06 37.09 49.7C37.71 49.35 38.55 48.84 38.96 48.59C39.38 48.32 40.15 47.8 40.69 47.42C41.23 47.04 42.21 46.29 42.88 45.75C43.55 45.21 44.55 44.3 45.12 43.72C45.69 43.16 46.55 42.21 47.02 41.65C47.49 41.08 48.17 40.17 48.53 39.63C48.88 39.09 49.43 38.24 49.71 37.73C50 37.22 50.5 36.21 50.81 35.48C51.12 34.76 51.57 33.56 51.8 32.83C52.03 32.11 52.35 30.86 52.51 30.07C52.68 29.27 52.88 27.93 52.98 27.07C53.08 26.04 53.14 24.1 53.14 21.25C53.15 17.32 53.13 16.97 52.94 16.74C52.8 16.58 51.92 16.21 50.26 15.62L50.2 15.6C48.79 15.11 45.04 13.81 41.79 12.67C38.49 11.53 35.63 10.6 35.45 10.61C35.27 10.62 32.53 11.52 29.4 12.62C28.6 12.9 27.75 13.2 26.91 13.5L26.9 13.5ZM63.65 13.03C63.3 13.81 62.92 14.77 62.79 15.15C62.62 15.64 62.55 16.14 62.54 16.88C62.54 17.59 62.6 18.11 62.75 18.55C62.86 18.89 63.12 19.54 63.32 19.96C63.52 20.39 63.7 20.75 63.74 20.75C63.77 20.75 64.18 20.39 64.65 19.96C65.29 19.35 65.58 18.98 65.92 18.32C66.31 17.51 66.33 17.41 66.33 16.3C66.32 15.31 66.27 15.04 66.01 14.4C65.83 13.98 65.52 13.37 65.32 13.04C65.12 12.69 64.79 12.23 64.6 12.01L64.26 11.6L63.65 13.03ZM5.34 13.76C5.54 13.38 5.93 12.74 6.22 12.35C6.51 11.94 6.78 11.66 6.83 11.71C6.87 11.76 7.19 12.45 7.52 13.25C7.84 14.04 8.21 15.02 8.33 15.44C8.45 15.85 8.54 16.5 8.54 16.88C8.54 17.26 8.46 17.88 8.37 18.26C8.27 18.64 8 19.35 7.33 20.76L6.74 20.29C6.4 20.03 5.92 19.54 5.66 19.2C5.41 18.88 5.1 18.32 4.97 17.97C4.83 17.62 4.7 17.03 4.66 16.64C4.62 16.18 4.67 15.7 4.8 15.2C4.9 14.79 5.16 14.14 5.34 13.76ZM24.12 16.26L24.11 16.26C22.52 16.82 21.31 17.24 20.93 17.37L19.66 17.82C19.62 23.37 19.65 25.6 19.72 26.44C19.8 27.27 19.95 28.51 20.08 29.2C20.21 29.91 20.47 31.05 20.67 31.74C20.86 32.44 21.25 33.58 21.53 34.27C21.82 34.98 22.28 35.98 22.58 36.52C22.87 37.06 23.39 37.92 23.72 38.42C24.05 38.93 24.68 39.78 25.1 40.32C25.53 40.87 26.4 41.82 27.04 42.46C27.68 43.09 28.74 44.05 29.41 44.58C30.07 45.11 31.27 45.97 32.05 46.5C32.85 47.02 33.96 47.71 34.53 48.03L35.56 48.61C36.37 48.14 37.16 47.66 37.81 47.26C38.48 46.85 39.47 46.2 40 45.82C40.54 45.44 41.56 44.64 42.25 44.07C42.95 43.48 43.93 42.57 44.44 42.04C44.96 41.51 45.65 40.72 46 40.27C46.35 39.83 46.82 39.21 47.04 38.88C47.27 38.57 47.71 37.87 48.02 37.33C48.34 36.79 48.77 35.99 48.98 35.54C49.2 35.1 49.56 34.22 49.8 33.58C50.04 32.95 50.39 31.79 50.59 30.99C50.79 30.2 51.03 29.03 51.12 28.4C51.21 27.76 51.35 26.34 51.42 25.23C51.49 24.12 51.52 22 51.5 20.53L51.47 17.83C47.89 16.59 46.06 15.95 45.07 15.62C44.52 15.43 43.49 15.07 42.32 14.66L42.32 14.66C41.4 14.34 40.39 13.99 39.46 13.66C37.35 12.92 35.56 12.32 35.48 12.34C35.4 12.34 32.38 13.37 28.77 14.64C27.11 15.22 25.48 15.79 24.12 16.26L24.12 16.26ZM37.41 26.27C40.53 23.14 41.55 22.19 41.9 22.06C42.16 21.97 42.47 21.9 42.59 21.89C42.72 21.89 43.03 21.95 43.29 22.01C43.63 22.11 44.05 22.44 44.94 23.32C45.61 23.96 46.23 24.69 46.35 24.94C46.47 25.19 46.57 25.57 46.57 25.78C46.57 25.98 46.49 26.35 46.4 26.59C46.27 26.89 44.43 28.81 40.37 32.88C36.95 36.3 34.38 38.8 34.16 38.89C33.95 38.99 33.57 39.06 33.32 39.06C33.06 39.06 32.72 39 32.55 38.94C32.36 38.87 30.58 37.17 28.56 35.16C26.54 33.16 24.81 31.35 24.71 31.16C24.61 30.98 24.53 30.56 24.53 30.24C24.51 29.85 24.6 29.54 24.77 29.26C24.9 29.04 25.52 28.35 26.14 27.74C26.77 27.12 27.46 26.54 27.7 26.44C27.94 26.35 28.31 26.27 28.5 26.27C28.71 26.27 29.09 26.37 29.34 26.5C29.6 26.62 30.6 27.52 33.38 30.3L37.41 26.27ZM33.26 32.32C33.59 32.4 33.79 32.21 37.98 28.01C41.11 24.88 42.44 23.62 42.63 23.62C42.79 23.62 43.23 23.95 43.84 24.56C44.49 25.21 44.79 25.59 44.79 25.76C44.78 25.94 43.09 27.72 39.17 31.67C36.07 34.78 33.47 37.33 33.38 37.33C33.28 37.33 31.68 35.85 29.84 34.06C27.98 32.26 26.38 30.64 26.29 30.48C26.12 30.18 26.13 30.16 27.21 29.09C27.81 28.49 28.39 27.99 28.48 27.99C28.57 27.99 29.61 28.95 30.78 30.11C32.29 31.62 33.02 32.27 33.26 32.32ZM1.87 24.63C1.8 24.99 1.71 25.66 1.68 26.09C1.63 26.55 1.67 27.26 1.75 27.71C1.82 28.16 2 28.78 2.14 29.09C2.29 29.41 2.58 29.87 2.79 30.11C3.01 30.37 3.5 30.77 3.88 31.01C4.26 31.27 4.92 31.57 5.32 31.69C5.73 31.82 6.17 31.92 6.3 31.91C6.53 31.91 6.53 31.87 6.45 30.56C6.4 29.61 6.3 28.99 6.11 28.46C5.96 28.04 5.63 27.41 5.35 27.05C5.09 26.68 4.25 25.84 3.51 25.17C2.76 24.5 2.12 23.96 2.08 23.96C2.03 23.96 1.94 24.26 1.87 24.63ZM65.87 26.84C66.1 26.55 66.87 25.79 67.57 25.15C68.29 24.5 68.91 23.97 68.96 23.97C69 23.96 69.06 24.05 69.1 24.17C69.12 24.27 69.21 24.73 69.28 25.17C69.36 25.62 69.39 26.46 69.36 27.07C69.31 27.83 69.22 28.39 69.03 28.86C68.86 29.3 68.54 29.78 68.17 30.18C67.84 30.53 67.27 30.98 66.89 31.19C66.53 31.38 65.94 31.62 65.58 31.73C65.24 31.83 64.84 31.91 64.72 31.91C64.5 31.91 64.5 31.87 64.57 30.68C64.61 30 64.74 29.15 64.84 28.8C64.95 28.46 65.12 27.98 65.24 27.76C65.35 27.55 65.63 27.13 65.87 26.84ZM2.62 37.19C2.66 37.42 2.79 38.01 2.92 38.48C3.05 38.95 3.33 39.68 3.54 40.09C3.75 40.51 4.17 41.1 4.45 41.4C4.77 41.72 5.28 42.09 5.76 42.31C6.39 42.61 6.71 42.69 7.51 42.73C8.05 42.76 8.74 42.74 9.04 42.7C9.56 42.63 9.58 42.62 9.52 42.32C9.49 42.14 9.24 41.52 8.95 40.93C8.59 40.2 8.25 39.68 7.83 39.25C7.5 38.92 6.91 38.49 6.53 38.28C6.15 38.09 5.12 37.66 4.26 37.34C3.38 37.02 2.65 36.75 2.61 36.75C2.58 36.75 2.58 36.95 2.62 37.19ZM64.83 38.12C65.21 37.94 66.17 37.57 66.96 37.28C67.92 36.95 68.4 36.82 68.44 36.91C68.47 36.98 68.37 37.54 68.23 38.13C68.08 38.73 67.79 39.56 67.59 39.98C67.38 40.39 67.03 40.93 66.83 41.19C66.61 41.44 66.18 41.81 65.86 42.02C65.55 42.21 64.98 42.47 64.6 42.58C64.09 42.72 63.61 42.77 62.75 42.73C62.1 42.71 61.54 42.65 61.5 42.61C61.47 42.56 61.58 42.14 61.76 41.68C61.93 41.22 62.25 40.57 62.48 40.21C62.71 39.86 63.17 39.32 63.52 39.01C63.86 38.7 64.45 38.3 64.83 38.12ZM7.74 48.6C7.74 48.64 7.99 49.05 8.3 49.48C8.6 49.93 9.19 50.6 9.59 50.98C10.01 51.37 10.64 51.83 11.02 52.02C11.59 52.3 11.91 52.36 12.75 52.4C13.6 52.43 13.93 52.4 14.54 52.19C14.95 52.05 15.56 51.78 15.9 51.58C16.23 51.37 16.5 51.18 16.5 51.13C16.5 51.09 16.13 50.71 15.67 50.29C15.2 49.88 14.55 49.39 14.19 49.2C13.85 49.01 13.2 48.78 12.75 48.69C12.2 48.56 11.29 48.5 9.85 48.5C8.68 48.5 7.74 48.55 7.74 48.6ZM56.95 49.15C57.3 48.97 57.88 48.75 58.26 48.67C58.69 48.57 59.79 48.52 61.12 48.53C62.7 48.53 63.29 48.56 63.29 48.65C63.28 48.74 62.95 49.23 62.54 49.77C62.14 50.31 61.53 50.98 61.19 51.26C60.85 51.54 60.29 51.9 59.93 52.07C59.37 52.33 59.16 52.36 58.03 52.36C56.81 52.36 56.74 52.35 55.9 51.95C55.43 51.72 54.93 51.45 54.58 51.19L54.81 50.9C54.93 50.75 55.34 50.36 55.68 50.05C56.04 49.74 56.62 49.33 56.95 49.15ZM20.7 55.88C20.26 55.99 19.64 56.19 19.32 56.32C19.01 56.44 18.34 56.74 17.85 56.96C17.07 57.33 16.98 57.4 17.11 57.56C17.19 57.66 17.61 57.98 18.05 58.25C18.5 58.52 19.12 58.85 19.43 58.98C19.76 59.09 20.38 59.27 20.82 59.34C21.43 59.44 21.8 59.44 22.31 59.35C22.69 59.28 23.27 59.08 23.58 58.92C23.9 58.75 24.37 58.46 24.61 58.26C24.85 58.06 25.24 57.64 25.49 57.32C25.74 57.01 25.94 56.71 25.94 56.66C25.94 56.62 25.7 56.44 25.4 56.29C25.1 56.14 24.54 55.94 24.16 55.83C23.78 55.74 23.03 55.66 22.49 55.66C21.92 55.66 21.17 55.75 20.7 55.88ZM45.68 56.29C46.02 56.13 46.57 55.93 46.91 55.83C47.36 55.71 47.92 55.66 48.76 55.69C49.74 55.72 50.18 55.8 51.01 56.09C51.58 56.28 52.54 56.66 54.21 57.43L53.53 57.91C53.16 58.17 52.6 58.52 52.27 58.67C51.96 58.83 51.44 59.04 51.12 59.14C50.81 59.24 50.29 59.36 49.97 59.39C49.65 59.44 49.09 59.42 48.7 59.34C48.32 59.26 47.71 59.04 47.33 58.84C46.95 58.63 46.36 58.16 45.98 57.76C45.61 57.35 45.26 56.93 45.19 56.8C45.08 56.59 45.14 56.54 45.68 56.29Z" fill="#234778" fill-opacity="1.000000" fill-rule="evenodd"/>
	<path id="Vector" d="M54.45 2.65C54.22 4.4 54.16 5.24 54.21 6.45C54.24 7.67 54.3 8.14 54.5 8.64C54.63 8.98 54.95 9.58 55.19 9.96C55.44 10.34 56.1 11.17 56.65 11.81C57.2 12.44 58.07 13.58 58.58 14.34C59.08 15.1 59.8 16.35 60.17 17.11C60.53 17.87 61.03 19.01 61.26 19.64C61.49 20.27 61.86 21.46 62.07 22.29C62.27 23.11 62.54 24.41 62.65 25.17C62.8 26.16 62.86 27.23 62.86 28.97C62.86 30.7 62.8 31.77 62.67 32.72C62.55 33.44 62.32 34.61 62.16 35.31C62 36.01 61.66 37.18 61.41 37.9C61.17 38.63 60.63 39.93 60.21 40.78C59.8 41.64 59.22 42.73 58.93 43.2C58.63 43.68 57.95 44.67 57.41 45.39C56.87 46.12 55.93 47.24 55.33 47.86C54.73 48.49 53.79 49.37 53.25 49.82C52.71 50.27 51.78 50.98 51.18 51.4C50.58 51.82 49.51 52.48 48.82 52.86C48.11 53.25 47.01 53.79 46.34 54.07C45.67 54.36 44.61 54.75 43.98 54.95C43.34 55.15 42.22 55.45 41.5 55.6C40.76 55.76 40.08 55.98 39.97 56.09C39.85 56.2 39.76 56.44 39.77 56.65C39.77 56.89 39.86 57.12 40.02 57.27C40.25 57.49 40.37 57.52 40.87 57.45C41.18 57.4 41.86 57.26 42.36 57.13C42.87 57.01 43.28 56.93 43.3 56.94C43.3 56.96 43.44 57.18 43.64 57.48C43.7 57.58 43.76 57.68 43.83 57.78C44.11 58.23 44.6 58.81 44.89 59.07C45.17 59.35 45.7 59.75 46.05 59.97C46.4 60.19 47.09 60.51 47.57 60.67C48.29 60.91 48.7 60.98 49.56 60.98C50.24 60.98 50.95 60.91 51.41 60.8C51.82 60.68 52.62 60.37 53.19 60.1C53.76 59.82 54.54 59.36 54.92 59.08C55.3 58.79 55.83 58.32 56.1 58.02C56.37 57.73 56.59 57.4 56.59 57.28C56.6 57.18 56.51 56.97 56.4 56.82C56.28 56.69 55.57 56.27 54.81 55.93C54.05 55.57 52.88 55.05 52.21 54.77C51.55 54.5 50.83 54.24 50.62 54.21C50.43 54.17 50.26 54.12 50.26 54.06C50.27 54.01 50.9 53.57 51.67 53.08L53.08 52.18C54.06 52.89 54.63 53.23 54.98 53.39C55.33 53.55 55.93 53.76 56.31 53.86C56.69 53.95 57.43 54.04 57.98 54.04C58.52 54.04 59.24 53.95 59.59 53.86C59.93 53.77 60.58 53.52 61.03 53.3C61.55 53.04 62.17 52.6 62.76 52.05C63.26 51.58 63.94 50.81 64.28 50.34C64.6 49.86 65.04 49.13 65.25 48.68C65.53 48.04 65.59 47.81 65.51 47.58C65.45 47.43 65.28 47.24 65.12 47.17C64.95 47.08 63.8 46.96 62.3 46.89C60.78 46.81 59.49 46.79 59.08 46.85L58.4 46.95C59.79 44.98 60.22 44.35 60.26 44.25C60.33 44.13 60.51 44.14 61.38 44.3C62.11 44.45 62.7 44.48 63.39 44.44C63.93 44.4 64.66 44.28 65 44.15C65.35 44.02 65.93 43.78 66.27 43.61C66.64 43.42 67.26 42.93 67.77 42.41C68.35 41.83 68.78 41.26 69.06 40.73C69.29 40.28 69.59 39.59 69.73 39.17C69.86 38.76 70.04 37.93 70.13 37.33C70.22 36.73 70.31 36.03 70.31 35.77C70.32 35.48 70.22 35.2 70.07 34.99C69.95 34.82 69.74 34.68 69.61 34.68C69.49 34.68 68.57 34.97 67.56 35.32C66.57 35.68 65.26 36.2 64.66 36.48C64.06 36.75 63.55 36.97 63.54 36.96C63.53 36.94 63.63 36.41 63.78 35.77C63.9 35.28 64.02 34.73 64.1 34.39L64.1 34.39C64.12 34.29 64.14 34.22 64.15 34.16C64.26 33.72 64.28 33.7 64.77 33.63C65.06 33.58 65.6 33.47 65.98 33.35C66.36 33.25 67.03 32.97 67.48 32.74C67.97 32.49 68.59 32.02 69.05 31.57C69.59 31.03 69.94 30.55 70.28 29.84C70.6 29.2 70.84 28.51 70.95 27.88C71.09 27.19 71.12 26.58 71.08 25.81C71.04 25.21 70.87 24.2 70.71 23.58C70.55 22.97 70.34 22.31 70.25 22.12C70.16 21.92 69.94 21.72 69.75 21.66C69.58 21.59 69.34 21.58 69.21 21.62C69.08 21.66 68.23 22.38 67.31 23.21C66.39 24.04 65.36 25.02 65.03 25.38L64.43 26.04C64.33 25.18 64.2 24.42 64.08 23.79C63.97 23.16 63.89 22.64 63.9 22.64C63.9 22.64 64.29 22.37 64.76 22.06C65.24 21.74 65.88 21.2 66.2 20.84C66.53 20.48 66.99 19.81 67.23 19.34C67.46 18.87 67.75 18.1 67.84 17.62C67.97 17.05 68 16.46 67.97 15.84C67.93 15.33 67.78 14.55 67.64 14.11C67.51 13.67 67.24 12.99 67.06 12.61C66.86 12.23 66.46 11.59 66.16 11.17C65.86 10.76 65.32 10.15 64.96 9.81C64.59 9.47 64.2 9.21 64.05 9.21C63.91 9.2 63.68 9.29 63.54 9.41C63.4 9.52 62.92 10.53 62.44 11.69C61.95 12.83 61.47 14.09 61.35 14.48C61.24 14.88 61.11 15.2 61.05 15.2C61.01 15.2 60.95 15.11 60.91 15C60.89 14.89 60.52 14.27 60.11 13.61L59.36 12.44C60.25 11.15 60.63 10.43 60.79 10.02C60.94 9.6 61.12 8.88 61.19 8.41C61.26 7.88 61.27 7.28 61.21 6.85C61.16 6.47 61.05 5.93 60.97 5.64C60.89 5.35 60.68 4.83 60.51 4.49C60.34 4.14 59.93 3.52 59.64 3.12C59.32 2.7 58.71 2.07 58.26 1.69C57.81 1.32 57.07 0.78 56.59 0.5C56.12 0.23 55.61 0 55.49 0C55.35 0 55.13 0.09 54.99 0.19C54.77 0.38 54.7 0.67 54.45 2.65ZM12.23 2.29C11.39 3.14 11.01 3.61 10.65 4.32C10.39 4.82 10.09 5.57 10 5.99C9.89 6.4 9.81 7.1 9.81 7.54C9.81 7.98 9.89 8.68 10 9.1C10.09 9.51 10.32 10.16 10.5 10.54C10.68 10.92 11.01 11.47 11.24 11.77C11.47 12.08 11.66 12.37 11.66 12.44C11.66 12.51 11.46 12.85 11.22 13.21C10.98 13.58 10.6 14.18 10.38 14.54C10.16 14.91 9.95 15.16 9.92 15.11C9.88 15.07 9.77 14.72 9.65 14.34C9.54 13.96 9.05 12.72 8.56 11.59C8.05 10.39 7.59 9.45 7.45 9.36C7.32 9.28 7.09 9.21 6.93 9.21C6.72 9.21 6.42 9.44 5.89 10C5.48 10.42 4.87 11.18 4.53 11.69C4.2 12.2 3.77 13.04 3.59 13.56C3.39 14.09 3.19 14.89 3.13 15.34C3.05 15.94 3.05 16.46 3.14 17.11C3.21 17.61 3.36 18.28 3.49 18.6C3.6 18.91 3.91 19.51 4.18 19.93C4.44 20.34 4.9 20.91 5.2 21.2C5.49 21.48 6.04 21.92 6.41 22.16C6.79 22.42 7.12 22.63 7.14 22.63C7.15 22.64 7.06 23.19 6.93 23.87C6.8 24.56 6.7 25.3 6.7 25.52C6.7 25.74 6.64 25.92 6.59 25.92C6.53 25.92 6.27 25.68 6.03 25.39C5.8 25.1 4.81 24.16 3.84 23.29C2.86 22.43 1.94 21.68 1.79 21.62C1.62 21.58 1.41 21.6 1.23 21.72C1.07 21.81 0.86 22.08 0.76 22.31C0.65 22.56 0.44 23.25 0.28 23.85C0.06 24.68 0 25.25 0 26.21C0 27 0.06 27.78 0.18 28.28C0.28 28.73 0.53 29.4 0.72 29.78C0.92 30.16 1.26 30.73 1.49 31.03C1.72 31.34 2.25 31.84 2.67 32.15C3.08 32.48 3.81 32.89 4.28 33.08C4.75 33.27 5.53 33.49 5.99 33.57C6.68 33.68 6.84 33.74 6.87 33.93C6.89 34 6.95 34.25 7.01 34.57L7.01 34.57C7.06 34.79 7.12 35.05 7.17 35.31C7.31 35.95 7.46 36.58 7.52 36.72C7.58 36.87 7.6 36.98 7.57 36.98C7.53 36.98 7.21 36.83 6.84 36.65C6.48 36.46 5.48 36.06 4.63 35.74C3.77 35.43 2.73 35.05 2.31 34.9C1.65 34.65 1.49 34.64 1.24 34.76C1.08 34.84 0.89 35.02 0.84 35.16C0.77 35.32 0.78 35.89 0.85 36.64C0.91 37.3 1.09 38.28 1.25 38.83C1.4 39.37 1.75 40.22 2.01 40.73C2.33 41.36 2.75 41.9 3.3 42.47C3.88 43.04 4.36 43.4 4.97 43.7C5.45 43.94 6.19 44.21 6.64 44.3C7.08 44.39 7.74 44.47 8.08 44.47C8.43 44.47 9.01 44.43 9.35 44.37C9.7 44.3 10.13 44.22 10.33 44.18C10.66 44.11 10.71 44.15 11.48 45.28C11.92 45.92 12.37 46.56 12.46 46.68C12.64 46.9 12.61 46.9 11.66 46.83C11.11 46.8 9.59 46.83 8.26 46.93C6.14 47.08 5.81 47.12 5.69 47.31C5.61 47.43 5.55 47.66 5.55 47.84C5.55 48.02 5.71 48.48 5.91 48.87C6.1 49.28 6.54 49.98 6.86 50.45C7.19 50.92 7.8 51.62 8.21 52.01C8.63 52.4 9.25 52.88 9.59 53.08C9.94 53.29 10.53 53.56 10.91 53.7C11.39 53.87 11.97 53.97 12.81 54C13.72 54.05 14.2 54.01 14.77 53.86C15.18 53.76 15.83 53.51 16.21 53.32C16.59 53.13 17.14 52.79 17.45 52.58L17.99 52.19C19.73 53.32 20.36 53.71 20.51 53.79C20.64 53.86 20.76 53.95 20.76 54C20.76 54.06 20.52 54.16 20.22 54.24C19.91 54.32 18.96 54.7 18.11 55.08C17.26 55.46 16.11 55.99 15.57 56.26L14.59 56.74C14.54 57.71 14.56 57.75 15.31 58.39C15.75 58.75 16.32 59.21 16.61 59.4C16.9 59.6 17.45 59.92 17.84 60.13C18.25 60.33 18.97 60.6 19.46 60.73C20.03 60.89 20.71 60.98 21.33 61C21.88 61 22.6 60.93 22.95 60.85C23.29 60.76 23.96 60.52 24.41 60.3C24.96 60.05 25.53 59.66 26.02 59.17C26.46 58.78 27.04 58.1 27.33 57.68C27.7 57.13 27.89 56.93 28.02 56.97C28.11 57.01 28.74 57.16 29.43 57.3C30.37 57.49 30.71 57.52 30.88 57.42C30.98 57.35 31.14 57.17 31.23 57.02C31.32 56.86 31.36 56.62 31.31 56.42C31.28 56.25 31.14 56.05 31.01 55.99C30.89 55.94 30.2 55.75 29.48 55.59C28.78 55.43 27.49 55.06 26.64 54.77C25.78 54.48 24.41 53.93 23.58 53.53C22.75 53.14 21.61 52.51 21.05 52.17C20.48 51.81 19.58 51.21 19.05 50.82C18.53 50.43 17.6 49.67 16.99 49.1C16.38 48.55 15.39 47.54 14.79 46.83C14.19 46.13 13.27 44.92 12.75 44.13C12.22 43.33 11.51 42.14 11.17 41.48C10.83 40.81 10.33 39.72 10.07 39.06C9.81 38.39 9.42 37.22 9.2 36.46C8.98 35.7 8.68 34.44 8.54 33.64C8.35 32.57 8.27 31.56 8.23 29.72C8.19 28.18 8.22 26.78 8.3 26.04C8.38 25.37 8.58 24.18 8.74 23.39C8.9 22.59 9.26 21.24 9.55 20.39C9.82 19.54 10.41 18.11 10.84 17.22C11.28 16.33 12.05 14.99 12.55 14.23C13.07 13.46 13.96 12.3 14.54 11.63C15.11 10.96 15.79 10.09 16.03 9.67C16.28 9.26 16.56 8.64 16.67 8.29C16.77 7.95 16.89 7.22 16.92 6.68C16.97 5.96 16.9 5.01 16.67 3.16C16.45 1.32 16.31 0.55 16.16 0.34C16.03 0.17 15.82 0.04 15.62 0.02C15.38 0 15.01 0.16 14.31 0.58C13.68 0.97 12.92 1.59 12.23 2.29ZM26.9 13.5L26.91 13.5C27.75 13.2 28.6 12.9 29.4 12.62C32.53 11.52 35.27 10.62 35.45 10.61C35.63 10.6 38.49 11.53 41.79 12.67C45.04 13.81 48.79 15.11 50.2 15.6L50.26 15.62C51.92 16.21 52.8 16.58 52.94 16.74C53.13 16.97 53.15 17.32 53.14 21.25C53.14 24.1 53.08 26.04 52.98 27.07C52.88 27.93 52.68 29.27 52.51 30.07C52.35 30.86 52.03 32.11 51.8 32.83C51.57 33.56 51.12 34.76 50.81 35.48C50.5 36.21 50 37.22 49.71 37.73C49.43 38.24 48.88 39.09 48.53 39.63C48.17 40.17 47.49 41.08 47.02 41.65C46.55 42.21 45.69 43.16 45.12 43.72C44.55 44.3 43.55 45.21 42.88 45.75C42.21 46.29 41.23 47.04 40.69 47.42C40.15 47.8 39.38 48.32 38.96 48.59C38.55 48.84 37.71 49.35 37.09 49.7C36.48 50.06 35.83 50.38 35.65 50.42C35.4 50.46 35.06 50.33 34.07 49.77C33.36 49.38 32.15 48.63 31.36 48.1C30.56 47.58 29.38 46.72 28.71 46.2C28.04 45.67 26.91 44.66 26.19 43.96C25.47 43.26 24.46 42.17 23.95 41.53C23.44 40.9 22.66 39.84 22.22 39.17C21.78 38.5 21.1 37.28 20.7 36.46C20.29 35.65 19.73 34.26 19.44 33.41C19.17 32.56 18.8 31.26 18.64 30.53C18.48 29.8 18.26 28.61 18.15 27.88C18.02 26.89 17.96 25.36 17.92 21.77C17.88 17.83 17.89 16.96 18.03 16.76C18.13 16.6 19.06 16.23 20.94 15.57C22.06 15.19 24.46 14.35 26.9 13.5ZM55.9 4.6C55.83 5.4 55.81 6.36 55.84 6.74C55.88 7.12 55.99 7.71 56.09 8.06C56.19 8.41 56.47 9.03 56.72 9.44C56.96 9.86 57.38 10.42 57.63 10.71L58.09 11.23C58.54 10.69 58.85 10.17 59.07 9.73C59.29 9.29 59.53 8.61 59.6 8.23C59.67 7.85 59.69 7.28 59.65 6.97C59.6 6.64 59.47 6.12 59.35 5.81C59.23 5.49 58.86 4.89 58.55 4.45C58.23 4.03 57.6 3.37 57.14 2.99C56.69 2.61 56.27 2.3 56.24 2.3C56.19 2.3 56.13 2.5 56.09 2.73C56.05 2.97 55.97 3.81 55.9 4.6ZM12.98 3.92C12.59 4.34 12.11 5.01 11.89 5.47C11.51 6.23 11.48 6.33 11.48 7.5C11.48 8.71 11.48 8.73 11.97 9.69C12.23 10.22 12.59 10.77 12.75 10.92L13.04 11.17C13.96 10.05 14.4 9.36 14.62 8.92C14.82 8.49 15.04 7.83 15.11 7.48C15.18 7.14 15.23 6.51 15.23 6.07C15.23 5.64 15.17 4.66 15.1 3.89C15.03 3.11 14.94 2.43 14.89 2.38C14.85 2.33 14.56 2.5 14.25 2.74C13.93 2.98 13.36 3.52 12.98 3.92ZM6.22 12.35C6.51 11.94 6.78 11.66 6.83 11.71C6.87 11.76 7.19 12.45 7.52 13.25C7.84 14.04 8.21 15.02 8.33 15.44C8.45 15.85 8.54 16.5 8.54 16.88C8.54 17.26 8.46 17.88 8.37 18.26C8.27 18.64 8 19.35 7.33 20.76L6.74 20.29C6.4 20.03 5.92 19.54 5.66 19.2C5.41 18.88 5.1 18.32 4.97 17.97C4.83 17.62 4.7 17.03 4.66 16.64C4.62 16.18 4.67 15.7 4.8 15.2C4.9 14.79 5.16 14.14 5.34 13.76C5.54 13.38 5.93 12.74 6.22 12.35ZM62.79 15.15C62.62 15.64 62.55 16.14 62.54 16.88C62.54 17.59 62.6 18.11 62.75 18.55C62.86 18.89 63.12 19.54 63.32 19.96C63.52 20.39 63.7 20.75 63.74 20.75C63.77 20.75 64.18 20.39 64.65 19.96C65.29 19.35 65.58 18.98 65.92 18.32C66.31 17.51 66.33 17.41 66.33 16.3C66.32 15.31 66.27 15.04 66.01 14.4C65.83 13.98 65.52 13.37 65.32 13.04C65.12 12.69 64.79 12.23 64.6 12.01L64.26 11.6L63.65 13.03C63.3 13.81 62.92 14.77 62.79 15.15ZM24.12 16.26L24.12 16.26C25.48 15.79 27.11 15.22 28.77 14.64C32.38 13.37 35.4 12.34 35.48 12.34C35.56 12.32 37.35 12.92 39.46 13.66C40.39 13.99 41.4 14.34 42.32 14.66L42.32 14.66C43.49 15.07 44.52 15.43 45.07 15.62C46.06 15.95 47.89 16.59 51.47 17.83L51.5 20.53C51.52 22 51.49 24.12 51.42 25.23C51.35 26.34 51.21 27.76 51.12 28.4C51.03 29.03 50.79 30.2 50.59 30.99C50.39 31.79 50.04 32.95 49.8 33.58C49.56 34.22 49.2 35.1 48.98 35.54C48.77 35.99 48.34 36.79 48.02 37.33C47.71 37.87 47.27 38.57 47.04 38.88C46.82 39.21 46.35 39.83 46 40.27C45.65 40.72 44.96 41.51 44.44 42.04C43.93 42.57 42.95 43.48 42.25 44.07C41.56 44.64 40.54 45.44 40 45.82C39.47 46.2 38.48 46.85 37.81 47.26C37.16 47.66 36.37 48.14 35.56 48.61L34.53 48.03C33.96 47.71 32.85 47.02 32.05 46.5C31.27 45.97 30.07 45.11 29.41 44.58C28.74 44.05 27.68 43.09 27.04 42.46C26.4 41.82 25.53 40.87 25.1 40.32C24.68 39.78 24.05 38.93 23.72 38.42C23.39 37.92 22.87 37.06 22.58 36.52C22.28 35.98 21.82 34.98 21.53 34.27C21.25 33.58 20.86 32.44 20.67 31.74C20.47 31.05 20.21 29.91 20.08 29.2C19.95 28.51 19.8 27.27 19.72 26.44C19.65 25.6 19.62 23.37 19.66 17.82L20.93 17.37C21.31 17.24 22.52 16.82 24.11 16.26L24.12 16.26ZM1.68 26.09C1.63 26.55 1.67 27.26 1.75 27.71C1.82 28.16 2 28.78 2.14 29.09C2.29 29.41 2.58 29.87 2.79 30.11C3.01 30.37 3.5 30.77 3.88 31.01C4.26 31.27 4.92 31.57 5.32 31.69C5.73 31.82 6.17 31.92 6.3 31.91C6.53 31.91 6.53 31.87 6.45 30.56C6.4 29.61 6.3 28.99 6.11 28.46C5.96 28.04 5.63 27.41 5.35 27.05C5.09 26.68 4.25 25.84 3.51 25.17C2.76 24.5 2.12 23.96 2.08 23.96C2.03 23.96 1.94 24.26 1.87 24.63C1.8 24.99 1.71 25.66 1.68 26.09ZM67.57 25.15C68.29 24.5 68.91 23.97 68.96 23.97C69 23.96 69.06 24.05 69.1 24.17C69.12 24.27 69.21 24.73 69.28 25.17C69.36 25.62 69.39 26.46 69.36 27.07C69.31 27.83 69.22 28.39 69.03 28.86C68.86 29.3 68.54 29.78 68.17 30.18C67.84 30.53 67.27 30.98 66.89 31.19C66.53 31.38 65.94 31.62 65.58 31.73C65.24 31.83 64.84 31.91 64.72 31.91C64.5 31.91 64.5 31.87 64.57 30.68C64.61 30 64.74 29.15 64.84 28.8C64.95 28.46 65.12 27.98 65.24 27.76C65.35 27.55 65.63 27.13 65.87 26.84C66.1 26.55 66.87 25.79 67.57 25.15ZM2.92 38.48C3.05 38.95 3.33 39.68 3.54 40.09C3.75 40.51 4.17 41.1 4.45 41.4C4.77 41.72 5.28 42.09 5.76 42.31C6.39 42.61 6.71 42.69 7.51 42.73C8.05 42.76 8.74 42.74 9.04 42.7C9.56 42.63 9.58 42.62 9.52 42.32C9.49 42.14 9.24 41.52 8.95 40.93C8.59 40.2 8.25 39.68 7.83 39.25C7.5 38.92 6.91 38.49 6.53 38.28C6.15 38.09 5.12 37.66 4.26 37.34C3.38 37.02 2.65 36.75 2.61 36.75C2.58 36.75 2.58 36.95 2.62 37.19C2.66 37.42 2.79 38.01 2.92 38.48ZM66.96 37.28C67.92 36.95 68.4 36.82 68.44 36.91C68.47 36.98 68.37 37.54 68.23 38.13C68.08 38.73 67.79 39.56 67.59 39.98C67.38 40.39 67.03 40.93 66.83 41.19C66.61 41.44 66.18 41.81 65.86 42.02C65.55 42.21 64.98 42.47 64.6 42.58C64.09 42.72 63.61 42.77 62.75 42.73C62.1 42.71 61.54 42.65 61.5 42.61C61.47 42.56 61.58 42.14 61.76 41.68C61.93 41.22 62.25 40.57 62.48 40.21C62.71 39.86 63.17 39.32 63.52 39.01C63.86 38.7 64.45 38.3 64.83 38.12C65.21 37.94 66.17 37.57 66.96 37.28ZM8.3 49.48C8.6 49.93 9.19 50.6 9.59 50.98C10.01 51.37 10.64 51.83 11.02 52.02C11.59 52.3 11.91 52.36 12.75 52.4C13.6 52.43 13.93 52.4 14.54 52.19C14.95 52.05 15.56 51.78 15.9 51.58C16.23 51.37 16.5 51.18 16.5 51.13C16.5 51.09 16.13 50.71 15.67 50.29C15.2 49.88 14.55 49.39 14.19 49.2C13.85 49.01 13.2 48.78 12.75 48.69C12.2 48.56 11.29 48.5 9.85 48.5C8.68 48.5 7.74 48.55 7.74 48.6C7.74 48.64 7.99 49.05 8.3 49.48ZM58.26 48.67C58.69 48.57 59.79 48.52 61.12 48.53C62.7 48.53 63.29 48.56 63.29 48.65C63.28 48.74 62.95 49.23 62.54 49.77C62.14 50.31 61.53 50.98 61.19 51.26C60.85 51.54 60.29 51.9 59.93 52.07C59.37 52.33 59.16 52.36 58.03 52.36C56.81 52.36 56.74 52.35 55.9 51.95C55.43 51.72 54.93 51.45 54.58 51.19L54.81 50.9C54.93 50.75 55.34 50.36 55.68 50.05C56.04 49.74 56.62 49.33 56.95 49.15C57.3 48.97 57.88 48.75 58.26 48.67ZM19.32 56.32C19.01 56.44 18.34 56.74 17.85 56.96C17.07 57.33 16.98 57.4 17.11 57.56C17.19 57.66 17.61 57.98 18.05 58.25C18.5 58.52 19.12 58.85 19.43 58.98C19.76 59.09 20.38 59.27 20.82 59.34C21.43 59.44 21.8 59.44 22.31 59.35C22.69 59.28 23.27 59.08 23.58 58.92C23.9 58.75 24.37 58.46 24.61 58.26C24.85 58.06 25.24 57.64 25.49 57.32C25.74 57.01 25.94 56.71 25.94 56.66C25.94 56.62 25.7 56.44 25.4 56.29C25.1 56.14 24.54 55.94 24.16 55.83C23.78 55.74 23.03 55.66 22.49 55.66C21.92 55.66 21.17 55.75 20.7 55.88C20.26 55.99 19.64 56.19 19.32 56.32ZM46.91 55.83C47.36 55.71 47.92 55.66 48.76 55.69C49.74 55.72 50.18 55.8 51.01 56.09C51.58 56.28 52.54 56.66 54.21 57.43L53.53 57.91C53.16 58.17 52.6 58.52 52.27 58.67C51.96 58.83 51.44 59.04 51.12 59.14C50.81 59.24 50.29 59.36 49.97 59.39C49.65 59.44 49.09 59.42 48.7 59.34C48.32 59.26 47.71 59.04 47.33 58.84C46.95 58.63 46.36 58.16 45.98 57.76C45.61 57.35 45.26 56.93 45.19 56.8C45.08 56.59 45.14 56.54 45.68 56.29C46.02 56.13 46.57 55.93 46.91 55.83ZM41.9 22.06C42.16 21.97 42.47 21.9 42.59 21.89C42.72 21.89 43.03 21.95 43.29 22.01C43.63 22.11 44.05 22.44 44.94 23.32C45.61 23.96 46.23 24.69 46.35 24.94C46.47 25.19 46.57 25.57 46.57 25.78C46.57 25.98 46.49 26.35 46.4 26.59C46.27 26.89 44.43 28.81 40.37 32.88C36.95 36.3 34.38 38.8 34.16 38.89C33.95 38.99 33.57 39.06 33.32 39.06C33.06 39.06 32.72 39 32.55 38.94C32.36 38.87 30.58 37.17 28.56 35.16C26.54 33.16 24.81 31.35 24.71 31.16C24.61 30.98 24.53 30.56 24.53 30.24C24.51 29.85 24.6 29.54 24.77 29.26C24.9 29.04 25.52 28.35 26.14 27.74C26.77 27.12 27.46 26.54 27.7 26.44C27.94 26.35 28.31 26.27 28.5 26.27C28.71 26.27 29.09 26.37 29.34 26.5C29.6 26.62 30.6 27.52 33.38 30.3L37.41 26.27C40.53 23.14 41.55 22.19 41.9 22.06ZM37.98 28.01C41.11 24.88 42.44 23.62 42.63 23.62C42.79 23.62 43.23 23.95 43.84 24.56C44.49 25.21 44.79 25.59 44.79 25.76C44.78 25.94 43.09 27.72 39.17 31.67C36.07 34.78 33.47 37.33 33.38 37.33C33.28 37.33 31.68 35.85 29.84 34.06C27.98 32.26 26.38 30.64 26.29 30.48C26.12 30.18 26.13 30.16 27.21 29.09C27.81 28.49 28.39 27.99 28.48 27.99C28.57 27.99 29.61 28.95 30.78 30.11C32.29 31.62 33.02 32.27 33.26 32.32C33.59 32.4 33.79 32.21 37.98 28.01Z" stroke="#000000" stroke-opacity="0" stroke-width="0.115225"/>
</svg>
