<svg width="48.867188" height="66.719971" viewBox="0 0 48.8672 66.72" fill="none" xmlns="http://www.w3.org/2000/svg" xmlns:xlink="http://www.w3.org/1999/xlink">
	<desc>
			Created with Pixso.
	</desc>
	<defs/>
	<path id="Vector" d="M34.91 0L48.86 13.96L48.86 57.82L46.64 57.82L46.64 15.56L41.67 15.52C37.01 15.49 36.67 15.48 36.09 15.2C35.74 15.05 35.16 14.65 34.8 14.3C34.42 13.96 33.95 13.34 33.38 12.16L33.31 2.22L19.29 2.22C8.96 2.22 5.09 2.26 4.6 2.39C4.12 2.51 3.77 2.73 3.24 3.25C2.66 3.83 2.51 4.1 2.37 4.72C2.24 5.3 2.22 11.75 2.29 58.72L2.59 59.28C2.74 59.58 3.06 60 3.29 60.2C3.49 60.4 3.9 60.68 4.16 60.82C4.62 61.07 5.12 61.08 18.88 61.15L18.88 63.38L4.23 63.31L3.33 62.88C2.83 62.64 2.17 62.24 1.88 61.97C1.59 61.71 1.18 61.25 0.97 60.95C0.76 60.64 0.45 60 0 58.65L0 31.78C0 14.84 0.05 4.71 0.13 4.35C0.22 4.01 0.41 3.46 0.58 3.09C0.74 2.72 1.23 2.08 1.66 1.66C2.08 1.23 2.67 0.77 2.98 0.62C3.29 0.48 3.81 0.29 4.16 0.19C4.63 0.05 8.32 0.01 34.91 0L34.91 0ZM35.53 7.5C35.53 9.53 35.59 11.41 35.66 11.67C35.74 11.95 36.03 12.38 36.35 12.69C36.77 13.06 37.09 13.23 37.51 13.27C37.84 13.31 39.64 13.34 41.55 13.31L44.98 13.27L35.53 3.82L35.53 7.5ZM4.44 5.55L6.66 5.55L6.66 7.78L4.44 7.78L4.44 5.55ZM8.88 5.55L11.1 5.55L11.1 7.78L8.88 7.78L8.88 5.55ZM13.32 5.55L15.54 5.55L15.54 7.78L13.32 7.78L13.32 5.55ZM4.44 12.23L31.09 12.23L31.09 14.45L4.44 14.45L4.44 12.23ZM4.44 18.9L31.09 18.9L31.09 21.12L4.44 21.12L4.44 18.9ZM4.44 25.57L44.42 25.57L44.42 27.79L4.44 27.79L4.44 25.57ZM4.44 32.24L44.42 32.24L44.42 34.47L4.44 34.47L4.44 32.24ZM4.44 38.91L25.54 38.91L25.54 41.14L4.44 41.14L4.44 38.91ZM32.06 41C32.49 41 33.08 41.14 34.42 41.69L35.26 41.35C35.77 41.14 36.35 41 36.78 41C37.37 41 37.55 41.07 37.98 41.46C38.26 41.69 38.67 42.22 38.92 42.63C39.3 43.27 39.42 43.36 39.91 43.45C40.21 43.49 40.8 43.68 41.19 43.86C41.81 44.14 41.96 44.29 42.21 44.86C42.46 45.41 42.5 45.67 42.42 46.46C42.34 47.39 42.34 47.39 42.88 48.06C43.17 48.42 43.52 48.92 43.64 49.17C43.77 49.41 43.86 49.81 43.86 50.03C43.86 50.26 43.77 50.66 43.64 50.91C43.52 51.15 43.17 51.63 42.37 52.61L45.06 57.26C46.74 60.18 47.75 62.06 47.75 62.31C47.75 62.52 47.61 62.82 47.4 63.03C47.22 63.23 46.93 63.38 46.75 63.38C46.57 63.38 45.66 63.17 44.7 62.91C43.43 62.56 42.93 62.47 42.86 62.59C42.81 62.68 42.56 63.53 42.31 64.48C41.95 65.84 41.78 66.26 41.5 66.46C41.31 66.6 41.02 66.73 40.84 66.71C40.67 66.71 40.35 66.55 40.14 66.34C39.94 66.12 38.85 64.38 35.74 58.94L34.35 58.35L32.83 59.06L30.72 62.71C29.55 64.73 28.5 66.45 28.36 66.55C28.22 66.64 27.94 66.71 27.72 66.71C27.51 66.71 27.21 66.57 27.02 66.41C26.82 66.19 26.57 65.52 26.25 64.28C25.98 63.29 25.76 62.46 25.76 62.45C25.75 62.43 24.96 62.63 23.97 62.89C23 63.16 22.08 63.38 21.93 63.38C21.78 63.38 21.49 63.24 21.29 63.07C21.04 62.86 20.92 62.61 20.92 62.34C20.9 62.04 21.62 60.67 23.37 57.61C24.75 55.25 25.97 53.13 26.37 52.54L25.9 51.95C25.65 51.62 25.33 51.15 25.21 50.91C25.08 50.66 24.98 50.26 24.98 50.03C24.98 49.81 25.08 49.41 25.21 49.17C25.33 48.92 25.66 48.44 25.96 48.09C26.48 47.46 26.48 47.46 26.41 46.49C26.34 45.68 26.39 45.41 26.64 44.86C26.89 44.29 27.04 44.14 27.65 43.86C28.05 43.68 28.64 43.49 28.94 43.45C29.43 43.36 29.55 43.27 29.93 42.63C30.16 42.22 30.59 41.69 30.87 41.46C31.3 41.07 31.48 41 32.06 41ZM31.09 44.77C30.56 45.29 30.33 45.43 29.57 45.6L28.66 45.79C28.75 47.45 28.69 47.91 28.54 48.27C28.41 48.55 28.07 49.06 27.76 49.41L27.21 50.03C28.14 51.06 28.48 51.6 28.58 51.91C28.69 52.23 28.75 52.86 28.72 53.37L28.66 54.26C29.95 54.55 30.54 54.79 30.77 54.98C31.02 55.16 31.45 55.66 31.72 56.08L32.2 56.85C33.01 56.5 33.55 56.32 33.91 56.23C34.52 56.09 34.69 56.12 35.62 56.47L36.65 56.85C37.02 56.15 37.41 55.65 37.76 55.3C38.28 54.77 38.52 54.64 39.28 54.47L40.19 54.27C40.1 52.68 40.16 52.16 40.28 51.84C40.39 51.58 40.71 51.1 40.99 50.8C41.27 50.49 41.49 50.15 41.49 50.03C41.49 49.92 41.27 49.58 40.99 49.27C40.71 48.96 40.39 48.49 40.28 48.23C40.16 47.92 40.1 47.39 40.13 46.77L40.19 45.81C38.89 45.52 38.31 45.28 38.06 45.09C37.83 44.91 37.4 44.4 37.13 43.99C36.87 43.57 36.63 43.22 36.6 43.22C36.59 43.22 36.2 43.38 35.74 43.57C35.28 43.75 34.69 43.92 34.42 43.92C34.16 43.92 33.58 43.75 33.13 43.57C32.7 43.38 32.3 43.22 32.27 43.22C32.23 43.22 32.08 43.43 31.95 43.68C31.83 43.92 31.44 44.42 31.09 44.77ZM25.68 58.11C24.98 59.32 24.44 60.35 24.46 60.38C24.48 60.42 24.93 60.32 25.47 60.17C26 60.03 26.55 59.9 26.68 59.9C26.82 59.9 27.07 60.04 27.25 60.22C27.44 60.4 27.68 60.95 27.83 61.54C27.98 62.1 28.14 62.54 28.18 62.54C28.22 62.54 28.76 61.63 29.38 60.53C30.02 59.42 30.52 58.47 30.5 58.4C30.48 58.35 30.25 57.94 29.98 57.51C29.55 56.8 29.43 56.71 28.94 56.62C28.64 56.58 28.05 56.4 27.65 56.22L26.93 55.9L25.68 58.11ZM40.07 56.59C39.31 56.76 39.23 56.82 38.85 57.47C38.63 57.85 38.38 58.26 38.28 58.37C38.16 58.54 38.35 58.97 39.3 60.63L40.46 62.67C40.84 61.33 41.02 60.81 41.09 60.63C41.16 60.46 41.39 60.21 41.6 60.08C41.96 59.88 42.06 59.88 43.1 60.15C43.71 60.31 44.23 60.43 44.24 60.42C44.25 60.4 43.7 59.42 43.02 58.24C42.34 57.05 41.74 56.07 41.67 56.05C41.62 56.04 41.42 56.11 41.23 56.22C41.03 56.33 40.52 56.5 40.07 56.59ZM4.44 45.59L21.1 45.59L21.1 47.81L4.44 47.81L4.44 45.59ZM34.35 44.61C34.83 44.61 35.58 44.72 36.09 44.89C36.59 45.04 37.28 45.39 37.64 45.66C38.01 45.92 38.52 46.43 38.78 46.8C39.05 47.16 39.39 47.85 39.55 48.32C39.71 48.81 39.84 49.56 39.84 50.03C39.84 50.51 39.71 51.24 39.55 51.73C39.39 52.22 39.05 52.9 38.78 53.26C38.52 53.62 38.01 54.13 37.64 54.4C37.28 54.66 36.6 55.01 36.12 55.16C35.63 55.33 34.88 55.46 34.42 55.46C33.95 55.46 33.2 55.33 32.72 55.16C32.24 55.01 31.55 54.66 31.19 54.4C30.83 54.13 30.31 53.62 30.05 53.26C29.79 52.9 29.44 52.2 29.29 51.7C29.12 51.2 29 50.45 29 50.03C29 49.62 29.12 48.87 29.29 48.37C29.44 47.87 29.79 47.16 30.05 46.8C30.31 46.43 30.83 45.92 31.19 45.66C31.55 45.39 32.23 45.04 32.69 44.89C33.15 44.75 33.9 44.63 34.35 44.61ZM32.19 47.8C31.83 48.17 31.49 48.67 31.4 48.99C31.31 49.3 31.23 49.77 31.23 50.03C31.23 50.3 31.31 50.77 31.4 51.08C31.49 51.4 31.83 51.9 32.19 52.26C32.56 52.62 33.05 52.95 33.38 53.05C33.69 53.15 34.16 53.23 34.42 53.23C34.69 53.23 35.15 53.15 35.44 53.05C35.74 52.95 36.2 52.69 36.48 52.47C36.74 52.23 37.12 51.73 37.28 51.35C37.48 50.95 37.62 50.4 37.62 50.03C37.62 49.67 37.48 49.12 37.28 48.71C37.12 48.32 36.74 47.82 36.48 47.6C36.2 47.37 35.74 47.1 35.44 47.02C35.15 46.92 34.66 46.85 34.35 46.85C34.05 46.87 33.58 46.93 33.31 47.02C33.05 47.1 32.54 47.46 32.19 47.8Z" fill="#234778" fill-opacity="1.000000" fill-rule="evenodd"/>
	<path id="Vector" d="M48.86 13.96L48.86 57.82L46.64 57.82L46.64 15.56L41.67 15.52C37.01 15.49 36.67 15.48 36.09 15.2C35.74 15.05 35.16 14.65 34.8 14.3C34.42 13.96 33.95 13.34 33.38 12.16L33.31 2.22L19.29 2.22C8.96 2.22 5.09 2.26 4.6 2.39C4.12 2.51 3.77 2.73 3.24 3.25C2.66 3.83 2.51 4.1 2.37 4.72C2.24 5.3 2.22 11.75 2.29 58.72L2.59 59.28C2.74 59.58 3.06 60 3.29 60.2C3.49 60.4 3.9 60.68 4.16 60.82C4.62 61.07 5.12 61.08 18.88 61.15L18.88 63.38L4.23 63.31L3.33 62.88C2.83 62.64 2.17 62.24 1.88 61.97C1.59 61.71 1.18 61.25 0.97 60.95C0.76 60.64 0.45 60 0 58.65L0 31.78C0 14.84 0.05 4.71 0.13 4.35C0.22 4.01 0.41 3.46 0.58 3.09C0.74 2.72 1.23 2.08 1.66 1.66C2.08 1.23 2.67 0.77 2.98 0.62C3.29 0.48 3.81 0.29 4.16 0.19C4.63 0.05 8.32 0.01 34.91 0L34.91 0L48.86 13.96ZM35.66 11.67C35.74 11.95 36.03 12.38 36.35 12.69C36.77 13.06 37.09 13.23 37.51 13.27C37.84 13.31 39.64 13.34 41.55 13.31L44.98 13.27L35.53 3.82L35.53 7.5C35.53 9.53 35.59 11.41 35.66 11.67ZM6.66 5.55L6.66 7.78L4.44 7.78L4.44 5.55L6.66 5.55ZM11.1 5.55L11.1 7.78L8.88 7.78L8.88 5.55L11.1 5.55ZM15.54 5.55L15.54 7.78L13.32 7.78L13.32 5.55L15.54 5.55ZM31.09 12.23L31.09 14.45L4.44 14.45L4.44 12.23L31.09 12.23ZM31.09 18.9L31.09 21.12L4.44 21.12L4.44 18.9L31.09 18.9ZM44.42 25.57L44.42 27.79L4.44 27.79L4.44 25.57L44.42 25.57ZM44.42 32.24L44.42 34.47L4.44 34.47L4.44 32.24L44.42 32.24ZM25.54 38.91L25.54 41.14L4.44 41.14L4.44 38.91L25.54 38.91ZM34.42 41.69L35.26 41.35C35.77 41.14 36.35 41 36.78 41C37.37 41 37.55 41.07 37.98 41.46C38.26 41.69 38.67 42.22 38.92 42.63C39.3 43.27 39.42 43.36 39.91 43.45C40.21 43.49 40.8 43.68 41.19 43.86C41.81 44.14 41.96 44.29 42.21 44.86C42.46 45.41 42.5 45.67 42.42 46.46C42.34 47.39 42.34 47.39 42.88 48.06C43.17 48.42 43.52 48.92 43.64 49.17C43.77 49.41 43.86 49.81 43.86 50.03C43.86 50.26 43.77 50.66 43.64 50.91C43.52 51.15 43.17 51.63 42.37 52.61L45.06 57.26C46.74 60.18 47.75 62.06 47.75 62.31C47.75 62.52 47.61 62.82 47.4 63.03C47.22 63.23 46.93 63.38 46.75 63.38C46.57 63.38 45.66 63.17 44.7 62.91C43.43 62.56 42.93 62.47 42.86 62.59C42.81 62.68 42.56 63.53 42.31 64.48C41.95 65.84 41.78 66.26 41.5 66.46C41.31 66.6 41.02 66.73 40.84 66.71C40.67 66.71 40.35 66.55 40.14 66.34C39.94 66.12 38.85 64.38 35.74 58.94L34.35 58.35L32.83 59.06L30.72 62.71C29.55 64.73 28.5 66.45 28.36 66.55C28.22 66.64 27.94 66.71 27.72 66.71C27.51 66.71 27.21 66.57 27.02 66.41C26.82 66.19 26.57 65.52 26.25 64.28C25.98 63.29 25.76 62.46 25.76 62.45C25.75 62.43 24.96 62.63 23.97 62.89C23 63.16 22.08 63.38 21.93 63.38C21.78 63.38 21.49 63.24 21.29 63.07C21.04 62.86 20.92 62.61 20.92 62.34C20.9 62.04 21.62 60.67 23.37 57.61C24.75 55.25 25.97 53.13 26.37 52.54L25.9 51.95C25.65 51.62 25.33 51.15 25.21 50.91C25.08 50.66 24.98 50.26 24.98 50.03C24.98 49.81 25.08 49.41 25.21 49.17C25.33 48.92 25.66 48.44 25.96 48.09C26.48 47.46 26.48 47.46 26.41 46.49C26.34 45.68 26.39 45.41 26.64 44.86C26.89 44.29 27.04 44.14 27.65 43.86C28.05 43.68 28.64 43.49 28.94 43.45C29.43 43.36 29.55 43.27 29.93 42.63C30.16 42.22 30.59 41.69 30.87 41.46C31.3 41.07 31.48 41 32.06 41C32.49 41 33.08 41.14 34.42 41.69ZM29.57 45.6L28.66 45.79C28.75 47.45 28.69 47.91 28.54 48.27C28.41 48.55 28.07 49.06 27.76 49.41L27.21 50.03C28.14 51.06 28.48 51.6 28.58 51.91C28.69 52.23 28.75 52.86 28.72 53.37L28.66 54.26C29.95 54.55 30.54 54.79 30.77 54.98C31.02 55.16 31.45 55.66 31.72 56.08L32.2 56.85C33.01 56.5 33.55 56.32 33.91 56.23C34.52 56.09 34.69 56.12 35.62 56.47L36.65 56.85C37.02 56.15 37.41 55.65 37.76 55.3C38.28 54.77 38.52 54.64 39.28 54.47L40.19 54.27C40.1 52.68 40.16 52.16 40.28 51.84C40.39 51.58 40.71 51.1 40.99 50.8C41.27 50.49 41.49 50.15 41.49 50.03C41.49 49.92 41.27 49.58 40.99 49.27C40.71 48.96 40.39 48.49 40.28 48.23C40.16 47.92 40.1 47.39 40.13 46.77L40.19 45.81C38.89 45.52 38.31 45.28 38.06 45.09C37.83 44.91 37.4 44.4 37.13 43.99C36.87 43.57 36.63 43.22 36.6 43.22C36.59 43.22 36.2 43.38 35.74 43.57C35.28 43.75 34.69 43.92 34.42 43.92C34.16 43.92 33.58 43.75 33.13 43.57C32.7 43.38 32.3 43.22 32.27 43.22C32.23 43.22 32.08 43.43 31.95 43.68C31.83 43.92 31.44 44.42 31.09 44.77C30.56 45.29 30.33 45.43 29.57 45.6ZM24.46 60.38C24.48 60.42 24.93 60.32 25.47 60.17C26 60.03 26.55 59.9 26.68 59.9C26.82 59.9 27.07 60.04 27.25 60.22C27.44 60.4 27.68 60.95 27.83 61.54C27.98 62.1 28.14 62.54 28.18 62.54C28.22 62.54 28.76 61.63 29.38 60.53C30.02 59.42 30.52 58.47 30.5 58.4C30.48 58.35 30.25 57.94 29.98 57.51C29.55 56.8 29.43 56.71 28.94 56.62C28.64 56.58 28.05 56.4 27.65 56.22L26.93 55.9L25.68 58.11C24.98 59.32 24.44 60.35 24.46 60.38ZM38.85 57.47C38.63 57.85 38.38 58.26 38.28 58.37C38.16 58.54 38.35 58.97 39.3 60.63L40.46 62.67C40.84 61.33 41.02 60.81 41.09 60.63C41.16 60.46 41.39 60.21 41.6 60.08C41.96 59.88 42.06 59.88 43.1 60.15C43.71 60.31 44.23 60.43 44.24 60.42C44.25 60.4 43.7 59.42 43.02 58.24C42.34 57.05 41.74 56.07 41.67 56.05C41.62 56.04 41.42 56.11 41.23 56.22C41.03 56.33 40.52 56.5 40.07 56.59C39.31 56.76 39.23 56.82 38.85 57.47ZM21.1 45.59L21.1 47.81L4.44 47.81L4.44 45.59L21.1 45.59ZM36.09 44.89C36.59 45.04 37.28 45.39 37.64 45.66C38.01 45.92 38.52 46.43 38.78 46.8C39.05 47.16 39.39 47.85 39.55 48.32C39.71 48.81 39.84 49.56 39.84 50.03C39.84 50.51 39.71 51.24 39.55 51.73C39.39 52.22 39.05 52.9 38.78 53.26C38.52 53.62 38.01 54.13 37.64 54.4C37.28 54.66 36.6 55.01 36.12 55.16C35.63 55.33 34.88 55.46 34.42 55.46C33.95 55.46 33.2 55.33 32.72 55.16C32.24 55.01 31.55 54.66 31.19 54.4C30.83 54.13 30.31 53.62 30.05 53.26C29.79 52.9 29.44 52.2 29.29 51.7C29.12 51.2 29 50.45 29 50.03C29 49.62 29.12 48.87 29.29 48.37C29.44 47.87 29.79 47.16 30.05 46.8C30.31 46.43 30.83 45.92 31.19 45.66C31.55 45.39 32.23 45.04 32.69 44.89C33.15 44.75 33.9 44.63 34.35 44.61C34.83 44.61 35.58 44.72 36.09 44.89ZM31.4 48.99C31.31 49.3 31.23 49.77 31.23 50.03C31.23 50.3 31.31 50.77 31.4 51.08C31.49 51.4 31.83 51.9 32.19 52.26C32.56 52.62 33.05 52.95 33.38 53.05C33.69 53.15 34.16 53.23 34.42 53.23C34.69 53.23 35.15 53.15 35.44 53.05C35.74 52.95 36.2 52.69 36.48 52.47C36.74 52.23 37.12 51.73 37.28 51.35C37.48 50.95 37.62 50.4 37.62 50.03C37.62 49.67 37.48 49.12 37.28 48.71C37.12 48.32 36.74 47.82 36.48 47.6C36.2 47.37 35.74 47.1 35.44 47.02C35.15 46.92 34.66 46.85 34.35 46.85C34.05 46.87 33.58 46.93 33.31 47.02C33.05 47.1 32.54 47.46 32.19 47.8C31.83 48.17 31.49 48.67 31.4 48.99Z" stroke="#000000" stroke-opacity="0" stroke-width="0.138998"/>
</svg>
