<svg width="24.000000" height="24.000000" viewBox="0 0 24 24" fill="none" xmlns="http://www.w3.org/2000/svg" xmlns:xlink="http://www.w3.org/1999/xlink">
	<desc>
			Created with Pixso.
	</desc>
	<defs>
		<clipPath id="clip0_62">
			<rect id="User Interface/payment" rx="-0.500000" width="23.000000" height="23.000000" transform="translate(0.500000 0.500000)" fill="white" fill-opacity="0"/>
		</clipPath>
	</defs>
	<g clip-path="url(#clip0_62)">
		<path id="Rectangle 36 (Stroke)" d="M1.5 5.5C1.5 4.11 2.61 3 4 3L18.5 3C19.88 3 21 4.11 21 5.5L21 9.54L20 9.54L20 5.5C20 4.67 19.32 4 18.5 4L4 4C3.17 4 2.5 4.67 2.5 5.5L2.5 14.5C2.5 15.32 3.17 16 4 16L9.5 16L9.5 17L4 17C2.61 17 1.5 15.88 1.5 14.5L1.5 5.5Z" fill="#234778" fill-opacity="1.000000" fill-rule="evenodd"/>
		<path id="Vector 77 (Stroke)" d="M20.5 8L2.5 8L2.5 7L20.5 7L20.5 8Z" fill="#234778" fill-opacity="1.000000" fill-rule="evenodd"/>
		<path id="Ellipse 27 (Stroke)" d="M6 10.5C5.44 10.5 5 10.94 5 11.5C5 12.05 5.44 12.5 6 12.5C6.55 12.5 7 12.05 7 11.5C7 10.94 6.55 10.5 6 10.5ZM4 11.5C4 10.39 4.89 9.5 6 9.5C7.1 9.5 8 10.39 8 11.5C8 12.6 7.1 13.5 6 13.5C4.89 13.5 4 12.6 4 11.5Z" fill="#234778" fill-opacity="1.000000" fill-rule="evenodd"/>
		<path id="Ellipse 27 (Stroke)" d="M9 10.5C8.44 10.5 8 10.94 8 11.5C8 12.05 8.44 12.5 9 12.5C9.55 12.5 10 12.05 10 11.5C10 10.94 9.55 10.5 9 10.5ZM7 11.5C7 10.39 7.89 9.5 9 9.5C10.1 9.5 11 10.39 11 11.5C11 12.6 10.1 13.5 9 13.5C7.89 13.5 7 12.6 7 11.5Z" fill="#234778" fill-opacity="1.000000" fill-rule="evenodd"/>
		<path id="Ellipse 29 (Stroke)" d="M17 11C14.51 11 12.5 13.01 12.5 15.5C12.5 17.98 14.51 20 17 20C19.48 20 21.5 17.98 21.5 15.5C21.5 13.01 19.48 11 17 11ZM11.5 15.5C11.5 12.46 13.96 10 17 10C20.03 10 22.5 12.46 22.5 15.5C22.5 18.53 20.03 21 17 21C13.96 21 11.5 18.53 11.5 15.5Z" fill="#234778" fill-opacity="1.000000" fill-rule="evenodd"/>
		<path id="Vector 80 (Stroke)" d="M19.38 13.82L16.88 16.82C16.79 16.92 16.66 16.99 16.52 16.99C16.38 17 16.24 16.95 16.14 16.85L14.64 15.35L15.35 14.64L16.46 15.75L18.61 13.17L19.38 13.82Z" fill="#234778" fill-opacity="1.000000" fill-rule="evenodd"/>
	</g>
</svg>
