<svg width="24.000000" height="24.000000" viewBox="0 0 24 24" fill="none" xmlns="http://www.w3.org/2000/svg" xmlns:xlink="http://www.w3.org/1999/xlink">
	<desc>
			Created with Pixso.
	</desc>
	<defs>
		<clipPath id="clip0_61">
			<rect id="User Interface/donate" rx="-0.500000" width="23.000000" height="23.000000" transform="translate(0.500000 0.500000)" fill="white" fill-opacity="0"/>
		</clipPath>
	</defs>
	<g clip-path="url(#clip0_61)">
		<path id="Ellipse 28 (Stroke)" d="M12 2.5C6.75 2.5 2.5 6.75 2.5 12C2.5 17.24 6.75 21.5 12 21.5C17.24 21.5 21.5 17.24 21.5 12C21.5 6.75 17.24 2.5 12 2.5ZM1.5 12C1.5 6.2 6.2 1.5 12 1.5C17.79 1.5 22.5 6.2 22.5 12C22.5 17.79 17.79 22.5 12 22.5C6.2 22.5 1.5 17.79 1.5 12Z" fill="#234778" fill-opacity="1.000000" fill-rule="evenodd"/>
		<path id="Vector 78 (Stroke)" d="M9.27 9.55C9.27 8.17 10.39 7.05 11.77 7.05L12.22 7.05C13.6 7.05 14.72 8.17 14.72 9.55L14.72 9.77L13.72 9.77L13.72 9.55C13.72 8.72 13.05 8.05 12.22 8.05L11.77 8.05C10.94 8.05 10.27 8.72 10.27 9.55L10.27 9.65C10.27 10.22 10.59 10.74 11.1 10.99L13.34 12.11C14.18 12.53 14.72 13.4 14.72 14.34L14.72 14.44C14.72 15.82 13.6 16.94 12.22 16.94L11.77 16.94C10.39 16.94 9.27 15.82 9.27 14.44L9.27 14.22L10.27 14.22L10.27 14.44C10.27 15.27 10.94 15.94 11.77 15.94L12.22 15.94C13.05 15.94 13.72 15.27 13.72 14.44L13.72 14.34C13.72 13.77 13.4 13.25 12.89 13L10.65 11.88C9.81 11.46 9.27 10.59 9.27 9.65L9.27 9.55Z" fill="#234778" fill-opacity="1.000000" fill-rule="evenodd"/>
		<path id="Vector 79 (Stroke)" d="M12.5 5.33L12.5 7.55L11.5 7.55L11.5 5.33L12.5 5.33Z" fill="#234778" fill-opacity="1.000000" fill-rule="evenodd"/>
		<path id="Vector 79 (Stroke)" d="M12.5 16.44L12.5 18.66L11.5 18.66L11.5 16.44L12.5 16.44Z" fill="#234778" fill-opacity="1.000000" fill-rule="evenodd"/>
	</g>
</svg>
