<svg width="24.000000" height="24.000000" viewBox="0 0 24 24" fill="none" xmlns="http://www.w3.org/2000/svg" xmlns:xlink="http://www.w3.org/1999/xlink">
	<desc>
			Created with Pixso.
	</desc>
	<defs>
		<clipPath id="clip0_60">
			<rect id="User Interface/stopwatch" rx="-0.500000" width="23.000000" height="23.000000" transform="translate(0.500000 0.500000)" fill="white" fill-opacity="0"/>
		</clipPath>
	</defs>
	<g clip-path="url(#clip0_60)">
		<path id="Ellipse 72 (Stroke)" d="M12 5.35C7.56 5.35 3.97 8.96 3.97 13.42C3.97 17.88 7.56 21.5 12 21.5C16.43 21.5 20.02 17.88 20.02 13.42C20.02 8.96 16.43 5.35 12 5.35ZM2.97 13.42C2.97 8.42 7.01 4.35 12 4.35C16.98 4.35 21.02 8.42 21.02 13.42C21.02 18.43 16.98 22.5 12 22.5C7.01 22.5 2.97 18.43 2.97 13.42Z" fill="#234778" fill-opacity="1.000000" fill-rule="evenodd"/>
		<path id="Vector 283 (Stroke)" d="M20.64 7.11L17.8 4.25L18.51 3.55L21.35 6.4L20.64 7.11Z" fill="#234778" fill-opacity="1.000000" fill-rule="evenodd"/>
		<path id="Vector 283 (Stroke)" d="M3.35 7.11L6.19 4.25L5.48 3.55L2.64 6.4L3.35 7.11Z" fill="#234778" fill-opacity="1.000000" fill-rule="evenodd"/>
		<path id="Vector 284 (Stroke)" d="M12.5 2.47L12.5 4.85L11.5 4.85L11.5 2.47L12.5 2.47Z" fill="#234778" fill-opacity="1.000000" fill-rule="evenodd"/>
		<path id="Vector 285 (Stroke)" d="M13.89 2.5L10.1 2.5L10.1 1.5L13.89 1.5L13.89 2.5Z" fill="#234778" fill-opacity="1.000000" fill-rule="evenodd"/>
		<path id="Vector 287 (Stroke)" d="M11.5 13.9L11.5 7.23L12.5 7.23L12.5 13.9L11.5 13.9Z" fill="#234778" fill-opacity="1.000000" fill-rule="evenodd"/>
	</g>
</svg>
