<svg width="24.000000" height="24.000000" viewBox="0 0 24 24" fill="none" xmlns="http://www.w3.org/2000/svg" xmlns:xlink="http://www.w3.org/1999/xlink">
	<desc>
			Created with Pixso.
	</desc>
	<defs>
		<clipPath id="clip1_69">
			<rect id="tag" rx="-0.500000" width="23.000000" height="23.000000" transform="translate(0.500000 0.500000)" fill="white" fill-opacity="0"/>
		</clipPath>
	</defs>
	<rect id="tag" rx="-0.500000" width="23.000000" height="23.000000" transform="translate(0.500000 0.500000)" fill="#FFFFFF" fill-opacity="0"/>
	<g clip-path="url(#clip1_69)">
		<path id="Vector" d="M13.42 20.58C13.23 20.76 13.01 20.91 12.77 21.01C12.52 21.11 12.26 21.16 12 21.16C11.74 21.16 11.48 21.11 11.23 21.01C10.99 20.91 10.77 20.76 10.59 20.58L2 12L2 2L12 2L20.59 10.59C20.96 10.96 21.17 11.47 21.17 12C21.17 12.52 20.96 13.03 20.59 13.4L13.42 20.58Z" stroke="#234778" stroke-opacity="1.000000" stroke-width="2.000000" stroke-linejoin="round"/>
		<path id="Vector" d="M7 7L7.01 7" stroke="#234778" stroke-opacity="1.000000" stroke-width="2.000000" stroke-linejoin="round" stroke-linecap="round"/>
	</g>
</svg>
