<svg width="22.270020" height="26.767578" viewBox="0 0 22.27 26.7676" fill="none" xmlns="http://www.w3.org/2000/svg" xmlns:xlink="http://www.w3.org/1999/xlink">
	<desc>
			Created with Pixso.
	</desc>
	<defs/>
	<path id="Vector" d="M11.13 0C8.15 0 5.35 0.95 3.29 2.87C1.22 4.79 0 7.59 0 11.03C0 13.7 1.47 16.63 3.12 19.11C4.8 21.65 6.83 23.98 8.27 25.51C9.83 27.18 12.43 27.18 13.99 25.51C15.43 23.98 17.46 21.65 19.14 19.11C20.79 16.63 22.27 13.7 22.27 11.03C22.27 7.59 21.04 4.79 18.97 2.87C16.91 0.95 14.11 0 11.13 0ZM2.78 11.03C2.78 8.28 3.74 6.25 5.19 4.91C6.65 3.55 8.73 2.78 11.13 2.78C13.53 2.78 15.61 3.55 17.07 4.91C18.52 6.25 19.48 8.28 19.48 11.03C19.48 12.82 18.42 15.15 16.82 17.57C15.26 19.93 13.35 22.13 11.96 23.61C11.5 24.1 10.76 24.1 10.3 23.61C8.91 22.13 7 19.93 5.44 17.57C3.84 15.15 2.78 12.82 2.78 11.03ZM11.13 4.17C8.06 4.17 5.56 6.66 5.56 9.74C5.56 12.81 8.06 15.31 11.13 15.31C14.2 15.31 16.7 12.81 16.7 9.74C16.7 6.66 14.2 4.17 11.13 4.17ZM8.35 9.74C8.35 8.2 9.59 6.95 11.13 6.95C12.67 6.95 13.91 8.2 13.91 9.74C13.91 11.28 12.67 12.52 11.13 12.52C9.59 12.52 8.35 11.28 8.35 9.74Z" fill="#234778" fill-opacity="1.000000" fill-rule="evenodd"/>
</svg>
