<svg width="16.170654" height="25.411133" viewBox="0 0 16.1707 25.4111" fill="none" xmlns="http://www.w3.org/2000/svg" xmlns:xlink="http://www.w3.org/1999/xlink">
	<desc>
			Created with Pixso.
	</desc>
	<defs/>
	<path id="Vector" d="M0 3.46C0 1.55 1.55 0 3.46 0L12.7 0C14.61 0 16.17 1.55 16.17 3.46L16.17 21.94C16.17 23.85 14.61 25.41 12.7 25.41L3.46 25.41C1.55 25.41 0 23.85 0 21.94L0 3.46ZM10.24 2.31L5.92 2.31C6.12 2.65 6.5 2.88 6.93 2.88L9.24 2.88C9.66 2.88 10.04 2.65 10.24 2.31ZM3.51 2.31C3.78 3.94 5.21 5.19 6.93 5.19L9.24 5.19C10.95 5.19 12.38 3.94 12.65 2.31L12.7 2.31C13.34 2.31 13.86 2.82 13.86 3.46L13.86 21.94C13.86 22.58 13.34 23.1 12.7 23.1L3.46 23.1C2.82 23.1 2.31 22.58 2.31 21.94L2.31 3.46C2.31 2.82 2.82 2.31 3.46 2.31L3.51 2.31ZM9.81 21.94L6.35 21.94L6.35 19.63L9.81 19.63L9.81 21.94Z" fill="#234778" fill-opacity="1.000000" fill-rule="evenodd"/>
</svg>
