<svg width="22.000000" height="19.000000" viewBox="0 0 22 19" fill="none" xmlns="http://www.w3.org/2000/svg" xmlns:xlink="http://www.w3.org/1999/xlink">
	<desc>
			Created with Pixso.
	</desc>
	<defs/>
	<path id="Vector" d="M0 3C0 1.34 1.34 0 3 0L17.5 0C19.15 0 20.5 1.34 20.5 3L20.5 7.04L18.5 7.04L18.5 6L2 6L2 12C2 12.55 2.44 13 3 13L8.5 13L8.5 15L3 15C1.34 15 0 13.65 0 12L0 3ZM2 4L18.5 4L18.5 3C18.5 2.44 18.05 2 17.5 2L3 2C2.44 2 2 2.44 2 3L2 4ZM2.5 9C2.5 7.61 3.61 6.5 5 6.5C5.56 6.5 6.08 6.68 6.5 7C6.91 6.68 7.43 6.5 8 6.5C9.38 6.5 10.5 7.61 10.5 9C10.5 10.38 9.38 11.5 8 11.5C7.43 11.5 6.91 11.31 6.5 11C6.08 11.31 5.56 11.5 5 11.5C3.61 11.5 2.5 10.38 2.5 9ZM10 13C10 9.68 12.68 7 16 7C19.31 7 22 9.68 22 13C22 16.31 19.31 19 16 19C12.68 19 10 16.31 10 13ZM5.5 9C5.5 8.72 5.27 8.5 5 8.5C4.72 8.5 4.5 8.72 4.5 9C4.5 9.27 4.72 9.5 5 9.5C5.27 9.5 5.5 9.27 5.5 9ZM7.5 9C7.5 9.27 7.72 9.5 8 9.5C8.27 9.5 8.5 9.27 8.5 9C8.5 8.72 8.27 8.5 8 8.5C7.72 8.5 7.5 8.72 7.5 9ZM16 9C13.79 9 12 10.79 12 13C12 15.2 13.79 17 16 17C18.2 17 20 15.2 20 13C20 10.79 18.2 9 16 9ZM16.26 14.64L18.76 11.64L17.23 10.35L15.43 12.51L14.7 11.79L13.29 13.2L14.79 14.7C14.99 14.9 15.26 15.01 15.54 14.99C15.82 14.98 16.08 14.85 16.26 14.64Z" fill="#234778" fill-opacity="1.000000" fill-rule="evenodd"/>
</svg>
