<svg width="19.417938" height="22.000000" viewBox="0 0 19.4179 22" fill="none" xmlns="http://www.w3.org/2000/svg" xmlns:xlink="http://www.w3.org/1999/xlink">
	<desc>
			Created with Pixso.
	</desc>
	<defs/>
	<path id="Vector" d="M11.6 2L10.7 2L10.7 2.9C15.5 3.41 19.23 7.48 19.23 12.42C19.23 17.7 14.97 22 9.7 22C4.44 22 0.18 17.7 0.18 12.42C0.18 7.48 3.91 3.41 8.7 2.9L8.7 2L7.81 2L7.81 0L11.6 0L11.6 2ZM1.41 6.46L4.26 3.6L2.84 2.19L0 5.05L1.41 6.46ZM15.15 3.6L18 6.46L19.41 5.05L16.57 2.19L15.15 3.6ZM9.7 4.85C5.55 4.85 2.18 8.24 2.18 12.42C2.18 16.61 5.55 20 9.7 20C13.86 20 17.23 16.61 17.23 12.42C17.23 8.24 13.86 4.85 9.7 4.85ZM8.7 6.23L8.7 12.9L10.7 12.9L10.7 6.23L8.7 6.23Z" fill="#234778" fill-opacity="1.000000" fill-rule="evenodd"/>
</svg>
